{"glyphs":{"0":{"ha":926,"x_min":0,"x_max":810,"o":"m 0 231 l 0 810 l 116 810 l 116 926 l 231 926 l 231 1042 l 579 1042 l 579 926 l 694 926 l 694 810 l 810 810 l 810 231 l 694 231 l 694 116 l 579 116 l 579 0 l 231 0 l 231 116 l 116 116 l 116 231 l 0 231 m 231 231 l 347 231 l 347 116 l 463 116 l 463 231 l 579 231 l 579 810 l 463 810 l 463 926 l 347 926 l 347 810 l 231 810 l 231 231 m 463 579 l 463 463 l 347 463 l 347 579 l 463 579 z "},"1":{"ha":926,"x_min":116,"x_max":810,"o":"m 116 0 l 116 116 l 347 116 l 347 694 l 116 694 l 116 810 l 231 810 l 231 926 l 347 926 l 347 1042 l 579 1042 l 579 116 l 810 116 l 810 0 l 116 0 z "},"2":{"ha":926,"x_min":0,"x_max":810,"o":"m 0 231 l 116 231 l 116 347 l 231 347 l 231 463 l 347 463 l 347 579 l 463 579 l 463 694 l 579 694 l 579 926 l 231 926 l 231 810 l 0 810 l 0 926 l 116 926 l 116 1042 l 694 1042 l 694 926 l 810 926 l 810 694 l 694 694 l 694 579 l 579 579 l 579 463 l 463 463 l 463 347 l 347 347 l 347 231 l 231 231 l 231 116 l 579 116 l 579 231 l 810 231 l 810 0 l 0 0 l 0 231 z "},"3":{"ha":926,"x_min":0,"x_max":810,"o":"m 0 116 l 0 231 l 231 231 l 231 116 l 579 116 l 579 463 l 231 463 l 231 579 l 579 579 l 579 926 l 231 926 l 231 810 l 0 810 l 0 926 l 116 926 l 116 1042 l 694 1042 l 694 926 l 810 926 l 810 579 l 694 579 l 694 463 l 810 463 l 810 116 l 694 116 l 694 0 l 116 0 l 116 116 l 0 116 z "},"4":{"ha":926,"x_min":0,"x_max":810,"o":"m 0 579 l 116 579 l 116 694 l 231 694 l 231 810 l 347 810 l 347 926 l 463 926 l 463 1042 l 694 1042 l 694 463 l 810 463 l 810 347 l 694 347 l 694 116 l 810 116 l 810 0 l 347 0 l 347 116 l 463 116 l 463 347 l 0 347 l 0 579 m 231 579 l 231 463 l 463 463 l 463 694 l 347 694 l 347 579 l 231 579 z "},"5":{"ha":926,"x_min":0,"x_max":810,"o":"m 0 116 l 0 231 l 231 231 l 231 116 l 579 116 l 579 463 l 0 463 l 0 1042 l 810 1042 l 810 926 l 231 926 l 231 579 l 694 579 l 694 463 l 810 463 l 810 116 l 694 116 l 694 0 l 116 0 l 116 116 l 0 116 z "},"6":{"ha":926,"x_min":0,"x_max":810,"o":"m 0 116 l 0 810 l 116 810 l 116 926 l 231 926 l 231 1042 l 579 1042 l 579 926 l 347 926 l 347 810 l 231 810 l 231 579 l 694 579 l 694 463 l 810 463 l 810 116 l 694 116 l 694 0 l 116 0 l 116 116 l 0 116 m 231 116 l 579 116 l 579 463 l 231 463 l 231 116 z "},"7":{"ha":926,"x_min":0,"x_max":810,"o":"m 0 810 l 0 1042 l 810 1042 l 810 694 l 694 694 l 694 579 l 579 579 l 579 463 l 463 463 l 463 0 l 231 0 l 231 463 l 347 463 l 347 579 l 463 579 l 463 694 l 579 694 l 579 926 l 231 926 l 231 810 l 0 810 z "},"8":{"ha":926,"x_min":0,"x_max":810,"o":"m 0 116 l 0 463 l 116 463 l 116 579 l 0 579 l 0 926 l 116 926 l 116 1042 l 694 1042 l 694 926 l 810 926 l 810 579 l 694 579 l 694 463 l 810 463 l 810 116 l 694 116 l 694 0 l 116 0 l 116 116 l 0 116 m 231 116 l 579 116 l 579 463 l 231 463 l 231 116 m 231 579 l 579 579 l 579 926 l 231 926 l 231 579 z "},"9":{"ha":926,"x_min":0,"x_max":810,"o":"m 0 579 l 0 926 l 116 926 l 116 1042 l 694 1042 l 694 926 l 810 926 l 810 231 l 694 231 l 694 116 l 579 116 l 579 0 l 116 0 l 116 116 l 463 116 l 463 231 l 579 231 l 579 463 l 116 463 l 116 579 l 0 579 m 231 579 l 579 579 l 579 926 l 231 926 l 231 579 z "},"\u0000":{"ha":926,"x_min":0,"x_max":0,"o":""},"\r":{"ha":926,"x_min":0,"x_max":926,"o":"m 0 231 l 116 231 l 116 347 l 231 347 l 231 1042 l 926 1042 l 926 694 l 463 694 l 463 116 l 347 116 l 347 0 l 0 0 l 0 231 m 463 810 l 694 810 l 694 926 l 463 926 l 463 810 z "},"\u0001":{"ha":926,"x_min":0,"x_max":926,"o":"m 0 116 l 0 926 l 116 926 l 116 116 l 0 116 m 231 347 l 231 463 l 694 463 l 694 347 l 579 347 l 579 231 l 347 231 l 347 347 l 231 347 m 231 694 l 231 810 l 347 810 l 347 694 l 231 694 m 694 810 l 694 694 l 579 694 l 579 810 l 694 810 m 926 116 l 810 116 l 810 926 l 926 926 l 926 116 m 116 116 l 810 116 l 810 0 l 116 0 l 116 116 m 116 926 l 116 1042 l 810 1042 l 810 926 l 116 926 z "},"\u0002":{"ha":926,"x_min":0,"x_max":926,"o":"m 0 116 l 0 926 l 116 926 l 116 1042 l 810 1042 l 810 926 l 926 926 l 926 116 l 810 116 l 810 0 l 116 0 l 116 116 l 0 116 m 231 463 l 231 347 l 347 347 l 347 231 l 579 231 l 579 347 l 694 347 l 694 463 l 231 463 m 231 810 l 231 694 l 347 694 l 347 810 l 231 810 m 694 810 l 579 810 l 579 694 l 694 694 l 694 810 z "},"\u0003":{"ha":926,"x_min":0,"x_max":810,"o":"m 0 347 l 0 810 l 116 810 l 116 926 l 347 926 l 347 810 l 463 810 l 463 926 l 694 926 l 694 810 l 810 810 l 810 347 l 694 347 l 694 231 l 579 231 l 579 116 l 463 116 l 463 0 l 347 0 l 347 116 l 231 116 l 231 231 l 116 231 l 116 347 l 0 347 z "},"\u0004":{"ha":926,"x_min":0,"x_max":810,"o":"m 0 463 l 0 579 l 116 579 l 116 694 l 231 694 l 231 810 l 347 810 l 347 926 l 463 926 l 463 810 l 579 810 l 579 694 l 694 694 l 694 579 l 810 579 l 810 463 l 694 463 l 694 347 l 579 347 l 579 231 l 463 231 l 463 116 l 347 116 l 347 231 l 231 231 l 231 347 l 116 347 l 116 463 l 0 463 z "},"\u0005":{"ha":926,"x_min":0,"x_max":926,"o":"m 0 347 l 0 694 l 231 694 l 231 926 l 347 926 l 347 1042 l 579 1042 l 579 926 l 694 926 l 694 694 l 926 694 l 926 347 l 579 347 l 579 694 l 347 694 l 347 347 l 0 347 m 116 0 l 116 116 l 347 116 l 347 347 l 579 347 l 579 116 l 810 116 l 810 0 l 116 0 z "},"\u0006":{"ha":926,"x_min":0,"x_max":926,"o":"m 0 463 l 0 694 l 116 694 l 116 810 l 231 810 l 231 926 l 347 926 l 347 1042 l 579 1042 l 579 926 l 694 926 l 694 810 l 810 810 l 810 694 l 926 694 l 926 463 l 810 463 l 810 347 l 579 347 l 579 116 l 810 116 l 810 0 l 116 0 l 116 116 l 347 116 l 347 347 l 116 347 l 116 463 l 0 463 z "},"\u0007":{"ha":926,"x_min":231,"x_max":694,"o":"m 579 231 l 347 231 l 347 347 l 231 347 l 231 579 l 347 579 l 347 694 l 579 694 l 579 579 l 694 579 l 694 347 l 579 347 l 579 231 z "},"\b":{"ha":926,"x_min":0,"x_max":926,"o":"m 0 -231 l 0 1157 l 926 1157 l 926 -231 l 0 -231 m 231 347 l 347 347 l 347 231 l 579 231 l 579 347 l 694 347 l 694 579 l 579 579 l 579 694 l 347 694 l 347 579 l 231 579 l 231 347 z "},"\t":{"ha":926,"x_min":116,"x_max":810,"o":"m 116 231 l 116 694 l 231 694 l 231 810 l 694 810 l 694 694 l 810 694 l 810 231 l 694 231 l 694 116 l 231 116 l 231 231 l 116 231 m 231 347 l 347 347 l 347 231 l 579 231 l 579 347 l 694 347 l 694 579 l 579 579 l 579 694 l 347 694 l 347 579 l 231 579 l 231 347 z "},"\n":{"ha":926,"x_min":0,"x_max":926,"o":"m 0 -231 l 0 1157 l 926 1157 l 926 -231 l 0 -231 m 231 231 l 231 116 l 694 116 l 694 231 l 810 231 l 810 694 l 694 694 l 694 810 l 231 810 l 231 694 l 116 694 l 116 231 l 231 231 m 231 579 l 347 579 l 347 694 l 579 694 l 579 579 l 694 579 l 694 347 l 579 347 l 579 231 l 347 231 l 347 347 l 231 347 l 231 579 z "},"\u000b":{"ha":926,"x_min":0,"x_max":810,"o":"m 0 116 l 0 463 l 116 463 l 116 579 l 231 579 l 231 694 l 347 694 l 347 810 l 463 810 l 463 926 l 231 926 l 231 1042 l 810 1042 l 810 579 l 694 579 l 694 810 l 579 810 l 579 694 l 463 694 l 463 579 l 579 579 l 579 463 l 694 463 l 694 116 l 579 116 l 579 0 l 116 0 l 116 116 l 0 116 m 231 116 l 463 116 l 463 463 l 231 463 l 231 116 z "},"\f":{"ha":926,"x_min":116,"x_max":810,"o":"m 231 579 l 116 579 l 116 926 l 231 926 l 231 1042 l 694 1042 l 694 926 l 810 926 l 810 579 l 694 579 l 694 463 l 579 463 l 579 347 l 810 347 l 810 231 l 579 231 l 579 0 l 347 0 l 347 231 l 116 231 l 116 347 l 347 347 l 347 463 l 231 463 l 231 579 m 347 579 l 579 579 l 579 926 l 347 926 l 347 579 z "},"\u000e":{"ha":926,"x_min":0,"x_max":926,"o":"m 0 231 l 116 231 l 116 1042 l 926 1042 l 926 116 l 810 116 l 810 0 l 579 0 l 579 347 l 694 347 l 694 694 l 347 694 l 347 0 l 231 0 l 231 -116 l 0 -116 l 0 231 m 347 810 l 694 810 l 694 926 l 347 926 l 347 810 z "},"\u000f":{"ha":926,"x_min":0,"x_max":926,"o":"m 0 231 l 0 347 l 231 347 l 231 231 l 0 231 m 0 463 l 0 579 l 231 579 l 231 694 l 347 694 l 347 1042 l 579 1042 l 579 694 l 694 694 l 694 579 l 926 579 l 926 463 l 694 463 l 694 347 l 579 347 l 579 0 l 347 0 l 347 347 l 231 347 l 231 463 l 0 463 m 0 694 l 0 810 l 231 810 l 231 694 l 0 694 m 694 231 l 694 347 l 926 347 l 926 231 l 694 231 m 694 694 l 694 810 l 926 810 l 926 694 l 694 694 m 347 579 l 347 463 l 579 463 l 579 579 l 347 579 z "},"\u0010":{"ha":926,"x_min":0,"x_max":810,"o":"m 0 0 l 0 1042 l 116 1042 l 116 926 l 231 926 l 231 810 l 347 810 l 347 694 l 579 694 l 579 579 l 810 579 l 810 463 l 579 463 l 579 347 l 347 347 l 347 231 l 231 231 l 231 116 l 116 116 l 116 0 l 0 0 z "},"\u0011":{"ha":926,"x_min":0,"x_max":810,"o":"m 0 463 l 0 579 l 231 579 l 231 694 l 463 694 l 463 810 l 579 810 l 579 926 l 694 926 l 694 1042 l 810 1042 l 810 0 l 694 0 l 694 116 l 579 116 l 579 231 l 463 231 l 463 347 l 231 347 l 231 463 l 0 463 z "},"\u0012":{"ha":926,"x_min":116,"x_max":810,"o":"m 231 231 l 116 231 l 116 347 l 347 347 l 347 694 l 116 694 l 116 810 l 231 810 l 231 926 l 347 926 l 347 1042 l 579 1042 l 579 926 l 694 926 l 694 810 l 810 810 l 810 694 l 579 694 l 579 347 l 810 347 l 810 231 l 694 231 l 694 116 l 579 116 l 579 0 l 347 0 l 347 116 l 231 116 l 231 231 z "},"\u0013":{"ha":926,"x_min":116,"x_max":810,"o":"m 116 231 l 347 231 l 347 0 l 116 0 l 116 231 m 116 347 l 116 1042 l 347 1042 l 347 347 l 116 347 m 579 231 l 810 231 l 810 0 l 579 0 l 579 231 m 579 347 l 579 1042 l 810 1042 l 810 347 l 579 347 z "},"\u0014":{"ha":926,"x_min":0,"x_max":926,"o":"m 926 0 l 694 0 l 694 926 l 579 926 l 579 0 l 347 0 l 347 463 l 116 463 l 116 579 l 0 579 l 0 926 l 116 926 l 116 1042 l 926 1042 l 926 0 m 231 579 l 347 579 l 347 926 l 231 926 l 231 579 z "},"\u0015":{"ha":926,"x_min":0,"x_max":810,"o":"m 0 -116 l 0 0 l 231 0 l 231 -116 l 579 -116 l 579 0 l 463 0 l 463 116 l 231 116 l 231 231 l 116 231 l 116 347 l 0 347 l 0 463 l 116 463 l 116 579 l 231 579 l 231 694 l 116 694 l 116 810 l 0 810 l 0 926 l 116 926 l 116 1042 l 694 1042 l 694 926 l 810 926 l 810 810 l 579 810 l 579 926 l 231 926 l 231 810 l 347 810 l 347 694 l 579 694 l 579 579 l 694 579 l 694 463 l 810 463 l 810 347 l 694 347 l 694 231 l 579 231 l 579 116 l 694 116 l 694 0 l 810 0 l 810 -116 l 694 -116 l 694 -231 l 116 -231 l 116 -116 l 0 -116 m 463 231 l 463 347 l 579 347 l 579 463 l 463 463 l 463 579 l 347 579 l 347 463 l 231 463 l 231 347 l 347 347 l 347 231 l 463 231 z "},"\u0016":{"ha":926,"x_min":0,"x_max":810,"o":"m 0 0 l 0 347 l 810 347 l 810 0 l 0 0 z "},"\u0017":{"ha":926,"x_min":116,"x_max":810,"o":"m 231 231 l 116 231 l 116 347 l 347 347 l 347 694 l 116 694 l 116 810 l 231 810 l 231 926 l 347 926 l 347 1042 l 579 1042 l 579 926 l 694 926 l 694 810 l 810 810 l 810 694 l 579 694 l 579 347 l 810 347 l 810 231 l 694 231 l 694 116 l 579 116 l 579 0 l 810 0 l 810 -116 l 116 -116 l 116 0 l 347 0 l 347 116 l 231 116 l 231 231 z "},"\u0018":{"ha":926,"x_min":116,"x_max":810,"o":"m 116 694 l 116 810 l 231 810 l 231 926 l 347 926 l 347 1042 l 579 1042 l 579 926 l 694 926 l 694 810 l 810 810 l 810 694 l 579 694 l 579 0 l 347 0 l 347 694 l 116 694 z "},"\u0019":{"ha":926,"x_min":116,"x_max":810,"o":"m 116 231 l 116 347 l 347 347 l 347 1042 l 579 1042 l 579 347 l 810 347 l 810 231 l 694 231 l 694 116 l 579 116 l 579 0 l 347 0 l 347 116 l 231 116 l 231 231 l 116 231 z "},"\u001a":{"ha":926,"x_min":0,"x_max":810,"o":"m 0 463 l 0 579 l 463 579 l 463 694 l 347 694 l 347 810 l 579 810 l 579 694 l 694 694 l 694 579 l 810 579 l 810 463 l 694 463 l 694 347 l 579 347 l 579 231 l 347 231 l 347 347 l 463 347 l 463 463 l 0 463 z "},"\u001b":{"ha":926,"x_min":0,"x_max":810,"o":"m 0 463 l 0 579 l 116 579 l 116 694 l 231 694 l 231 810 l 463 810 l 463 694 l 347 694 l 347 579 l 810 579 l 810 463 l 347 463 l 347 347 l 463 347 l 463 231 l 231 231 l 231 347 l 116 347 l 116 463 l 0 463 z "},"\u001c":{"ha":926,"x_min":0,"x_max":810,"o":"m 0 231 l 0 694 l 231 694 l 231 347 l 810 347 l 810 231 l 0 231 z "},"\u001d":{"ha":926,"x_min":0,"x_max":810,"o":"m 0 463 l 0 579 l 116 579 l 116 694 l 231 694 l 231 810 l 347 810 l 347 579 l 463 579 l 463 810 l 579 810 l 579 694 l 694 694 l 694 579 l 810 579 l 810 463 l 694 463 l 694 347 l 579 347 l 579 231 l 463 231 l 463 463 l 347 463 l 347 231 l 231 231 l 231 347 l 116 347 l 116 463 l 0 463 z "},"\u001e":{"ha":926,"x_min":0,"x_max":810,"o":"m 0 116 l 0 347 l 116 347 l 116 579 l 231 579 l 231 810 l 347 810 l 347 926 l 463 926 l 463 810 l 579 810 l 579 579 l 694 579 l 694 347 l 810 347 l 810 116 l 0 116 z "},"\u001f":{"ha":926,"x_min":0,"x_max":810,"o":"m 0 694 l 0 926 l 810 926 l 810 694 l 694 694 l 694 463 l 579 463 l 579 231 l 463 231 l 463 116 l 347 116 l 347 231 l 231 231 l 231 463 l 116 463 l 116 694 l 0 694 z "}," ":{"ha":926,"x_min":0,"x_max":0,"o":""},"!":{"ha":926,"x_min":231,"x_max":694,"o":"m 231 579 l 231 926 l 347 926 l 347 1042 l 579 1042 l 579 926 l 694 926 l 694 579 l 579 579 l 579 347 l 347 347 l 347 579 l 231 579 m 347 231 l 579 231 l 579 0 l 347 0 l 347 231 z "},"\"":{"ha":926,"x_min":116,"x_max":810,"o":"m 116 810 l 116 1157 l 347 1157 l 347 694 l 231 694 l 231 810 l 116 810 m 579 694 l 579 1157 l 810 1157 l 810 810 l 694 810 l 694 694 l 579 694 z "},"#":{"ha":926,"x_min":0,"x_max":810,"o":"m 0 231 l 0 347 l 116 347 l 116 694 l 0 694 l 0 810 l 116 810 l 116 1042 l 347 1042 l 347 810 l 463 810 l 463 1042 l 694 1042 l 694 810 l 810 810 l 810 694 l 694 694 l 694 347 l 810 347 l 810 231 l 694 231 l 694 0 l 463 0 l 463 231 l 347 231 l 347 0 l 116 0 l 116 231 l 0 231 m 463 347 l 463 694 l 347 694 l 347 347 l 463 347 z "},"$":{"ha":926,"x_min":0,"x_max":810,"o":"m 0 231 l 0 347 l 231 347 l 231 231 l 579 231 l 579 463 l 116 463 l 116 579 l 0 579 l 0 810 l 116 810 l 116 926 l 347 926 l 347 1157 l 579 1157 l 579 926 l 694 926 l 694 810 l 810 810 l 810 694 l 579 694 l 579 810 l 231 810 l 231 579 l 694 579 l 694 463 l 810 463 l 810 231 l 694 231 l 694 116 l 579 116 l 579 -116 l 347 -116 l 347 116 l 116 116 l 116 231 l 0 231 z "},"%":{"ha":926,"x_min":0,"x_max":810,"o":"m 0 0 l 0 116 l 116 116 l 116 231 l 231 231 l 231 347 l 347 347 l 347 463 l 463 463 l 463 579 l 579 579 l 579 694 l 694 694 l 694 810 l 810 810 l 810 579 l 694 579 l 694 463 l 579 463 l 579 347 l 463 347 l 463 231 l 347 231 l 347 116 l 231 116 l 231 0 l 0 0 m 0 579 l 0 810 l 231 810 l 231 579 l 0 579 m 579 231 l 810 231 l 810 0 l 579 0 l 579 231 z "},"&":{"ha":926,"x_min":0,"x_max":810,"o":"m 0 116 l 0 463 l 116 463 l 116 579 l 231 579 l 231 694 l 116 694 l 116 926 l 231 926 l 231 1042 l 579 1042 l 579 926 l 694 926 l 694 694 l 579 694 l 579 579 l 463 579 l 463 463 l 579 463 l 579 579 l 810 579 l 810 463 l 694 463 l 694 116 l 810 116 l 810 0 l 579 0 l 579 116 l 463 116 l 463 347 l 347 347 l 347 463 l 231 463 l 231 116 l 463 116 l 463 0 l 116 0 l 116 116 l 0 116 m 463 694 l 463 926 l 347 926 l 347 694 l 463 694 z "},"'":{"ha":926,"x_min":116,"x_max":463,"o":"m 463 810 l 347 810 l 347 694 l 116 694 l 116 810 l 231 810 l 231 1157 l 463 1157 l 463 810 z "},"(":{"ha":926,"x_min":231,"x_max":694,"o":"m 231 231 l 231 810 l 347 810 l 347 926 l 463 926 l 463 1042 l 694 1042 l 694 926 l 579 926 l 579 810 l 463 810 l 463 231 l 579 231 l 579 116 l 694 116 l 694 0 l 463 0 l 463 116 l 347 116 l 347 231 l 231 231 z "},")":{"ha":926,"x_min":231,"x_max":694,"o":"m 231 0 l 231 116 l 347 116 l 347 231 l 463 231 l 463 810 l 347 810 l 347 926 l 231 926 l 231 1042 l 463 1042 l 463 926 l 579 926 l 579 810 l 694 810 l 694 231 l 579 231 l 579 116 l 463 116 l 463 0 l 231 0 z "},"*":{"ha":926,"x_min":0,"x_max":926,"o":"m 0 463 l 0 579 l 231 579 l 231 694 l 116 694 l 116 810 l 347 810 l 347 694 l 579 694 l 579 810 l 810 810 l 810 694 l 694 694 l 694 579 l 926 579 l 926 463 l 694 463 l 694 347 l 810 347 l 810 231 l 579 231 l 579 347 l 347 347 l 347 231 l 116 231 l 116 347 l 231 347 l 231 463 l 0 463 z "},"+":{"ha":926,"x_min":116,"x_max":810,"o":"m 579 231 l 347 231 l 347 463 l 116 463 l 116 579 l 347 579 l 347 810 l 579 810 l 579 579 l 810 579 l 810 463 l 579 463 l 579 231 z "},",":{"ha":926,"x_min":231,"x_max":579,"o":"m 463 0 l 463 -116 l 231 -116 l 231 0 l 347 0 l 347 347 l 579 347 l 579 0 l 463 0 z "},"-":{"ha":926,"x_min":0,"x_max":810,"o":"m 0 463 l 0 579 l 810 579 l 810 463 l 0 463 z "},".":{"ha":926,"x_min":347,"x_max":579,"o":"m 579 231 l 579 0 l 347 0 l 347 231 l 579 231 z "},"/":{"ha":926,"x_min":0,"x_max":810,"o":"m 0 116 l 0 347 l 116 347 l 116 463 l 231 463 l 231 579 l 347 579 l 347 694 l 463 694 l 463 810 l 579 810 l 579 926 l 694 926 l 694 1042 l 810 1042 l 810 810 l 694 810 l 694 694 l 579 694 l 579 579 l 463 579 l 463 463 l 347 463 l 347 347 l 231 347 l 231 231 l 116 231 l 116 116 l 0 116 z "},":":{"ha":926,"x_min":347,"x_max":579,"o":"m 579 116 l 347 116 l 347 347 l 579 347 l 579 116 m 579 694 l 347 694 l 347 926 l 579 926 l 579 694 z "},";":{"ha":926,"x_min":231,"x_max":579,"o":"m 463 116 l 463 0 l 231 0 l 231 116 l 347 116 l 347 347 l 579 347 l 579 116 l 463 116 m 579 694 l 347 694 l 347 926 l 579 926 l 579 694 z "},"<":{"ha":926,"x_min":0,"x_max":694,"o":"m 0 463 l 0 579 l 116 579 l 116 694 l 231 694 l 231 810 l 347 810 l 347 926 l 463 926 l 463 1042 l 694 1042 l 694 926 l 579 926 l 579 810 l 463 810 l 463 694 l 347 694 l 347 579 l 231 579 l 231 463 l 347 463 l 347 347 l 463 347 l 463 231 l 579 231 l 579 116 l 694 116 l 694 0 l 463 0 l 463 116 l 347 116 l 347 231 l 231 231 l 231 347 l 116 347 l 116 463 l 0 463 z "},"=":{"ha":926,"x_min":116,"x_max":810,"o":"m 116 231 l 116 347 l 810 347 l 810 231 l 116 231 m 116 579 l 116 694 l 810 694 l 810 579 l 116 579 z "},">":{"ha":926,"x_min":116,"x_max":810,"o":"m 231 116 l 231 231 l 347 231 l 347 347 l 463 347 l 463 463 l 579 463 l 579 579 l 463 579 l 463 694 l 347 694 l 347 810 l 231 810 l 231 926 l 116 926 l 116 1042 l 347 1042 l 347 926 l 463 926 l 463 810 l 579 810 l 579 694 l 694 694 l 694 579 l 810 579 l 810 463 l 694 463 l 694 347 l 579 347 l 579 231 l 463 231 l 463 116 l 347 116 l 347 0 l 116 0 l 116 116 l 231 116 z "},"?":{"ha":926,"x_min":0,"x_max":810,"o":"m 0 694 l 0 926 l 116 926 l 116 1042 l 694 1042 l 694 926 l 810 926 l 810 694 l 694 694 l 694 579 l 579 579 l 579 347 l 347 347 l 347 579 l 463 579 l 463 694 l 579 694 l 579 926 l 231 926 l 231 694 l 0 694 m 347 231 l 579 231 l 579 0 l 347 0 l 347 231 z "},"@":{"ha":926,"x_min":0,"x_max":810,"o":"m 0 116 l 0 926 l 116 926 l 116 1042 l 694 1042 l 694 926 l 810 926 l 810 347 l 694 347 l 694 231 l 347 231 l 347 694 l 579 694 l 579 926 l 231 926 l 231 116 l 694 116 l 694 0 l 116 0 l 116 116 l 0 116 z "},"A":{"ha":926,"x_min":0,"x_max":810,"o":"m 0 0 l 0 694 l 116 694 l 116 810 l 231 810 l 231 926 l 347 926 l 347 1042 l 463 1042 l 463 926 l 579 926 l 579 810 l 694 810 l 694 694 l 810 694 l 810 0 l 579 0 l 579 347 l 231 347 l 231 0 l 0 0 m 231 463 l 579 463 l 579 694 l 463 694 l 463 810 l 347 810 l 347 694 l 231 694 l 231 463 z "},"B":{"ha":926,"x_min":0,"x_max":810,"o":"m 0 0 l 0 116 l 116 116 l 116 926 l 0 926 l 0 1042 l 694 1042 l 694 926 l 810 926 l 810 579 l 694 579 l 694 463 l 810 463 l 810 116 l 694 116 l 694 0 l 0 0 m 347 116 l 579 116 l 579 463 l 347 463 l 347 116 m 347 579 l 579 579 l 579 926 l 347 926 l 347 579 z "},"C":{"ha":926,"x_min":0,"x_max":810,"o":"m 0 231 l 0 810 l 116 810 l 116 926 l 231 926 l 231 1042 l 694 1042 l 694 926 l 810 926 l 810 694 l 694 694 l 694 810 l 579 810 l 579 926 l 347 926 l 347 810 l 231 810 l 231 231 l 347 231 l 347 116 l 579 116 l 579 231 l 694 231 l 694 347 l 810 347 l 810 116 l 694 116 l 694 0 l 231 0 l 231 116 l 116 116 l 116 231 l 0 231 z "},"D":{"ha":926,"x_min":0,"x_max":810,"o":"m 0 0 l 0 116 l 116 116 l 116 926 l 0 926 l 0 1042 l 579 1042 l 579 926 l 694 926 l 694 810 l 810 810 l 810 231 l 694 231 l 694 116 l 579 116 l 579 0 l 0 0 m 347 116 l 463 116 l 463 231 l 579 231 l 579 810 l 463 810 l 463 926 l 347 926 l 347 116 z "},"E":{"ha":926,"x_min":0,"x_max":810,"o":"m 0 0 l 0 116 l 116 116 l 116 926 l 0 926 l 0 1042 l 810 1042 l 810 694 l 694 694 l 694 810 l 579 810 l 579 926 l 347 926 l 347 579 l 463 579 l 463 694 l 579 694 l 579 347 l 463 347 l 463 463 l 347 463 l 347 116 l 579 116 l 579 231 l 694 231 l 694 347 l 810 347 l 810 0 l 0 0 z "},"F":{"ha":926,"x_min":0,"x_max":810,"o":"m 0 0 l 0 116 l 116 116 l 116 926 l 0 926 l 0 1042 l 810 1042 l 810 694 l 694 694 l 694 810 l 579 810 l 579 926 l 347 926 l 347 579 l 463 579 l 463 694 l 579 694 l 579 347 l 463 347 l 463 463 l 347 463 l 347 116 l 463 116 l 463 0 l 0 0 z "},"G":{"ha":926,"x_min":0,"x_max":810,"o":"m 0 231 l 0 810 l 116 810 l 116 926 l 231 926 l 231 1042 l 694 1042 l 694 926 l 810 926 l 810 694 l 694 694 l 694 810 l 579 810 l 579 926 l 347 926 l 347 810 l 231 810 l 231 231 l 347 231 l 347 116 l 579 116 l 579 0 l 231 0 l 231 116 l 116 116 l 116 231 l 0 231 m 694 116 l 579 116 l 579 347 l 347 347 l 347 463 l 810 463 l 810 0 l 694 0 l 694 116 z "},"H":{"ha":926,"x_min":0,"x_max":810,"o":"m 0 0 l 0 1042 l 231 1042 l 231 579 l 579 579 l 579 1042 l 810 1042 l 810 0 l 579 0 l 579 463 l 231 463 l 231 0 l 0 0 z "},"I":{"ha":926,"x_min":231,"x_max":694,"o":"m 579 116 l 694 116 l 694 0 l 231 0 l 231 116 l 347 116 l 347 926 l 231 926 l 231 1042 l 694 1042 l 694 926 l 579 926 l 579 116 z "},"J":{"ha":926,"x_min":0,"x_max":810,"o":"m 0 116 l 0 347 l 231 347 l 231 116 l 463 116 l 463 926 l 347 926 l 347 1042 l 810 1042 l 810 926 l 694 926 l 694 116 l 579 116 l 579 0 l 116 0 l 116 116 l 0 116 z "},"K":{"ha":926,"x_min":0,"x_max":810,"o":"m 0 0 l 0 116 l 116 116 l 116 926 l 0 926 l 0 1042 l 347 1042 l 347 579 l 463 579 l 463 810 l 579 810 l 579 1042 l 810 1042 l 810 810 l 694 810 l 694 579 l 579 579 l 579 463 l 694 463 l 694 231 l 810 231 l 810 0 l 579 0 l 579 231 l 463 231 l 463 463 l 347 463 l 347 0 l 0 0 z "},"L":{"ha":926,"x_min":0,"x_max":810,"o":"m 0 0 l 0 116 l 116 116 l 116 926 l 0 926 l 0 1042 l 463 1042 l 463 926 l 347 926 l 347 116 l 579 116 l 579 231 l 694 231 l 694 347 l 810 347 l 810 0 l 0 0 z "},"M":{"ha":926,"x_min":0,"x_max":810,"o":"m 0 0 l 0 1042 l 231 1042 l 231 926 l 347 926 l 347 810 l 463 810 l 463 926 l 579 926 l 579 1042 l 810 1042 l 810 0 l 579 0 l 579 579 l 463 579 l 463 463 l 347 463 l 347 579 l 231 579 l 231 0 l 0 0 z "},"N":{"ha":926,"x_min":0,"x_max":810,"o":"m 0 0 l 0 1042 l 231 1042 l 231 926 l 347 926 l 347 810 l 463 810 l 463 694 l 579 694 l 579 1042 l 810 1042 l 810 0 l 579 0 l 579 347 l 463 347 l 463 463 l 347 463 l 347 579 l 231 579 l 231 0 l 0 0 z "},"O":{"ha":926,"x_min":0,"x_max":810,"o":"m 0 231 l 0 810 l 116 810 l 116 926 l 231 926 l 231 1042 l 579 1042 l 579 926 l 694 926 l 694 810 l 810 810 l 810 231 l 694 231 l 694 116 l 579 116 l 579 0 l 231 0 l 231 116 l 116 116 l 116 231 l 0 231 m 231 231 l 347 231 l 347 116 l 463 116 l 463 231 l 579 231 l 579 810 l 463 810 l 463 926 l 347 926 l 347 810 l 231 810 l 231 231 z "},"P":{"ha":926,"x_min":0,"x_max":810,"o":"m 0 0 l 0 116 l 116 116 l 116 926 l 0 926 l 0 1042 l 694 1042 l 694 926 l 810 926 l 810 579 l 694 579 l 694 463 l 347 463 l 347 116 l 463 116 l 463 0 l 0 0 m 347 579 l 579 579 l 579 926 l 347 926 l 347 579 z "},"Q":{"ha":926,"x_min":0,"x_max":810,"o":"m 0 231 l 0 926 l 116 926 l 116 1042 l 694 1042 l 694 926 l 810 926 l 810 231 l 694 231 l 694 0 l 810 0 l 810 -116 l 463 -116 l 463 116 l 116 116 l 116 231 l 0 231 m 231 231 l 347 231 l 347 463 l 463 463 l 463 347 l 579 347 l 579 926 l 231 926 l 231 231 z "},"R":{"ha":926,"x_min":0,"x_max":810,"o":"m 0 0 l 0 116 l 116 116 l 116 926 l 0 926 l 0 1042 l 694 1042 l 694 926 l 810 926 l 810 579 l 694 579 l 694 347 l 810 347 l 810 0 l 579 0 l 579 347 l 463 347 l 463 463 l 347 463 l 347 0 l 0 0 m 347 579 l 579 579 l 579 926 l 347 926 l 347 579 z "},"S":{"ha":926,"x_min":0,"x_max":810,"o":"m 0 116 l 0 347 l 231 347 l 231 116 l 579 116 l 579 347 l 463 347 l 463 463 l 231 463 l 231 579 l 116 579 l 116 694 l 0 694 l 0 926 l 116 926 l 116 1042 l 694 1042 l 694 926 l 810 926 l 810 694 l 579 694 l 579 926 l 231 926 l 231 694 l 347 694 l 347 579 l 579 579 l 579 463 l 694 463 l 694 347 l 810 347 l 810 116 l 694 116 l 694 0 l 116 0 l 116 116 l 0 116 z "},"T":{"ha":926,"x_min":116,"x_max":810,"o":"m 116 694 l 116 1042 l 810 1042 l 810 694 l 694 694 l 694 810 l 579 810 l 579 116 l 694 116 l 694 0 l 231 0 l 231 116 l 347 116 l 347 810 l 231 810 l 231 694 l 116 694 z "},"U":{"ha":926,"x_min":0,"x_max":810,"o":"m 0 116 l 0 1042 l 231 1042 l 231 116 l 579 116 l 579 1042 l 810 1042 l 810 116 l 694 116 l 694 0 l 116 0 l 116 116 l 0 116 z "},"V":{"ha":926,"x_min":0,"x_max":810,"o":"m 0 347 l 0 1042 l 231 1042 l 231 347 l 347 347 l 347 231 l 463 231 l 463 347 l 579 347 l 579 1042 l 810 1042 l 810 347 l 694 347 l 694 231 l 579 231 l 579 116 l 463 116 l 463 0 l 347 0 l 347 116 l 231 116 l 231 231 l 116 231 l 116 347 l 0 347 z "},"W":{"ha":926,"x_min":0,"x_max":810,"o":"m 0 231 l 0 1042 l 231 1042 l 231 347 l 347 347 l 347 579 l 463 579 l 463 347 l 579 347 l 579 1042 l 810 1042 l 810 231 l 694 231 l 694 0 l 463 0 l 463 116 l 347 116 l 347 0 l 116 0 l 116 231 l 0 231 z "},"X":{"ha":926,"x_min":0,"x_max":810,"o":"m 0 231 l 116 231 l 116 347 l 231 347 l 231 694 l 116 694 l 116 810 l 0 810 l 0 1042 l 231 1042 l 231 810 l 347 810 l 347 694 l 463 694 l 463 810 l 579 810 l 579 1042 l 810 1042 l 810 810 l 694 810 l 694 694 l 579 694 l 579 347 l 694 347 l 694 231 l 810 231 l 810 0 l 579 0 l 579 231 l 463 231 l 463 347 l 347 347 l 347 231 l 231 231 l 231 0 l 0 0 l 0 231 z "},"Y":{"ha":926,"x_min":116,"x_max":810,"o":"m 116 579 l 116 1042 l 347 1042 l 347 579 l 579 579 l 579 1042 l 810 1042 l 810 579 l 694 579 l 694 463 l 579 463 l 579 116 l 694 116 l 694 0 l 231 0 l 231 116 l 347 116 l 347 463 l 231 463 l 231 579 l 116 579 z "},"Z":{"ha":926,"x_min":0,"x_max":810,"o":"m 0 0 l 0 347 l 116 347 l 116 463 l 231 463 l 231 579 l 347 579 l 347 694 l 463 694 l 463 810 l 579 810 l 579 926 l 231 926 l 231 810 l 116 810 l 116 694 l 0 694 l 0 1042 l 810 1042 l 810 810 l 694 810 l 694 694 l 579 694 l 579 579 l 463 579 l 463 463 l 347 463 l 347 347 l 231 347 l 231 116 l 579 116 l 579 231 l 694 231 l 694 347 l 810 347 l 810 0 l 0 0 z "},"[":{"ha":926,"x_min":231,"x_max":694,"o":"m 463 116 l 694 116 l 694 0 l 231 0 l 231 1042 l 694 1042 l 694 926 l 463 926 l 463 116 z "},"\\":{"ha":926,"x_min":0,"x_max":810,"o":"m 0 694 l 0 1042 l 116 1042 l 116 926 l 231 926 l 231 810 l 347 810 l 347 694 l 463 694 l 463 579 l 579 579 l 579 463 l 694 463 l 694 347 l 810 347 l 810 0 l 694 0 l 694 116 l 579 116 l 579 231 l 463 231 l 463 347 l 347 347 l 347 463 l 231 463 l 231 579 l 116 579 l 116 694 l 0 694 z "},"]":{"ha":926,"x_min":231,"x_max":694,"o":"m 463 116 l 463 926 l 231 926 l 231 1042 l 694 1042 l 694 0 l 231 0 l 231 116 l 463 116 z "},"^":{"ha":926,"x_min":0,"x_max":810,"o":"m 0 694 l 0 810 l 116 810 l 116 926 l 231 926 l 231 1042 l 347 1042 l 347 1157 l 463 1157 l 463 1042 l 579 1042 l 579 926 l 694 926 l 694 810 l 810 810 l 810 694 l 579 694 l 579 810 l 463 810 l 463 926 l 347 926 l 347 810 l 231 810 l 231 694 l 0 694 z "},"_":{"ha":926,"x_min":0,"x_max":810,"o":"m 0 -231 l 0 -116 l 810 -116 l 810 -231 l 0 -231 z "},"`":{"ha":926,"x_min":231,"x_max":579,"o":"m 463 926 l 579 926 l 579 810 l 347 810 l 347 926 l 231 926 l 231 1157 l 463 1157 l 463 926 z "},"a":{"ha":926,"x_min":0,"x_max":810,"o":"m 0 116 l 0 347 l 116 347 l 116 463 l 463 463 l 463 579 l 116 579 l 116 694 l 579 694 l 579 579 l 694 579 l 694 116 l 810 116 l 810 0 l 579 0 l 579 116 l 463 116 l 463 347 l 231 347 l 231 116 l 463 116 l 463 0 l 116 0 l 116 116 l 0 116 z "},"b":{"ha":926,"x_min":0,"x_max":810,"o":"m 0 926 l 0 1042 l 347 1042 l 347 694 l 579 694 l 579 579 l 694 579 l 694 463 l 810 463 l 810 116 l 694 116 l 694 0 l 116 0 l 116 926 l 0 926 m 347 116 l 579 116 l 579 463 l 463 463 l 463 579 l 347 579 l 347 116 z "},"c":{"ha":926,"x_min":0,"x_max":810,"o":"m 0 116 l 0 579 l 116 579 l 116 694 l 694 694 l 694 579 l 810 579 l 810 463 l 579 463 l 579 579 l 231 579 l 231 116 l 579 116 l 579 231 l 810 231 l 810 116 l 694 116 l 694 0 l 116 0 l 116 116 l 0 116 z "},"d":{"ha":926,"x_min":0,"x_max":810,"o":"m 0 116 l 0 463 l 116 463 l 116 579 l 231 579 l 231 694 l 463 694 l 463 926 l 347 926 l 347 1042 l 694 1042 l 694 116 l 810 116 l 810 0 l 579 0 l 579 116 l 463 116 l 463 579 l 347 579 l 347 463 l 231 463 l 231 116 l 463 116 l 463 0 l 116 0 l 116 116 l 0 116 z "},"e":{"ha":926,"x_min":0,"x_max":810,"o":"m 0 116 l 0 579 l 116 579 l 116 694 l 694 694 l 694 579 l 810 579 l 810 347 l 231 347 l 231 116 l 579 116 l 579 231 l 810 231 l 810 116 l 694 116 l 694 0 l 116 0 l 116 116 l 0 116 m 231 579 l 231 463 l 579 463 l 579 579 l 231 579 z "},"f":{"ha":926,"x_min":0,"x_max":694,"o":"m 0 0 l 0 116 l 116 116 l 116 463 l 0 463 l 0 579 l 116 579 l 116 926 l 231 926 l 231 1042 l 579 1042 l 579 926 l 694 926 l 694 694 l 579 694 l 579 810 l 463 810 l 463 926 l 347 926 l 347 579 l 463 579 l 463 463 l 347 463 l 347 116 l 463 116 l 463 0 l 0 0 z "},"g":{"ha":926,"x_min":0,"x_max":810,"o":"m 0 -116 l 0 0 l 231 0 l 231 -116 l 463 -116 l 463 116 l 116 116 l 116 231 l 0 231 l 0 579 l 116 579 l 116 694 l 463 694 l 463 579 l 231 579 l 231 231 l 463 231 l 463 579 l 579 579 l 579 694 l 810 694 l 810 579 l 694 579 l 694 -116 l 579 -116 l 579 -231 l 116 -231 l 116 -116 l 0 -116 z "},"h":{"ha":926,"x_min":0,"x_max":810,"o":"m 0 0 l 0 116 l 116 116 l 116 926 l 0 926 l 0 1042 l 347 1042 l 347 579 l 463 579 l 463 463 l 347 463 l 347 0 l 0 0 m 463 579 l 463 694 l 694 694 l 694 579 l 810 579 l 810 0 l 579 0 l 579 579 l 463 579 z "},"i":{"ha":926,"x_min":231,"x_max":694,"o":"m 231 0 l 231 116 l 347 116 l 347 579 l 231 579 l 231 694 l 579 694 l 579 116 l 694 116 l 694 0 l 231 0 m 347 810 l 347 1042 l 579 1042 l 579 810 l 347 810 z "},"j":{"ha":926,"x_min":116,"x_max":810,"o":"m 116 116 l 347 116 l 347 -116 l 579 -116 l 579 579 l 463 579 l 463 694 l 810 694 l 810 -116 l 694 -116 l 694 -231 l 231 -231 l 231 -116 l 116 -116 l 116 116 m 579 810 l 579 1042 l 810 1042 l 810 810 l 579 810 z "},"k":{"ha":926,"x_min":0,"x_max":810,"o":"m 0 0 l 0 116 l 116 116 l 116 926 l 0 926 l 0 1042 l 347 1042 l 347 463 l 463 463 l 463 579 l 579 579 l 579 694 l 810 694 l 810 579 l 694 579 l 694 463 l 579 463 l 579 347 l 694 347 l 694 231 l 810 231 l 810 0 l 579 0 l 579 231 l 463 231 l 463 347 l 347 347 l 347 0 l 0 0 z "},"l":{"ha":926,"x_min":231,"x_max":694,"o":"m 579 116 l 694 116 l 694 0 l 231 0 l 231 116 l 347 116 l 347 926 l 231 926 l 231 1042 l 579 1042 l 579 116 z "},"m":{"ha":926,"x_min":0,"x_max":810,"o":"m 0 0 l 0 694 l 347 694 l 347 579 l 463 579 l 463 694 l 694 694 l 694 579 l 810 579 l 810 0 l 579 0 l 579 463 l 463 463 l 463 116 l 347 116 l 347 463 l 231 463 l 231 0 l 0 0 z "},"n":{"ha":926,"x_min":0,"x_max":810,"o":"m 0 579 l 0 694 l 231 694 l 231 579 l 347 579 l 347 0 l 116 0 l 116 579 l 0 579 m 347 579 l 347 694 l 694 694 l 694 579 l 810 579 l 810 0 l 579 0 l 579 579 l 347 579 z "},"o":{"ha":926,"x_min":0,"x_max":810,"o":"m 0 116 l 0 579 l 116 579 l 116 694 l 694 694 l 694 579 l 810 579 l 810 116 l 694 116 l 694 0 l 116 0 l 116 116 l 0 116 m 231 116 l 579 116 l 579 579 l 231 579 l 231 116 z "},"p":{"ha":926,"x_min":0,"x_max":810,"o":"m 0 -231 l 0 -116 l 116 -116 l 116 579 l 0 579 l 0 694 l 231 694 l 231 579 l 347 579 l 347 231 l 579 231 l 579 579 l 347 579 l 347 694 l 694 694 l 694 579 l 810 579 l 810 231 l 694 231 l 694 116 l 347 116 l 347 -116 l 463 -116 l 463 -231 l 0 -231 z "},"q":{"ha":926,"x_min":0,"x_max":810,"o":"m 0 231 l 0 579 l 116 579 l 116 694 l 463 694 l 463 579 l 231 579 l 231 231 l 463 231 l 463 579 l 579 579 l 579 694 l 810 694 l 810 579 l 694 579 l 694 -116 l 810 -116 l 810 -231 l 347 -231 l 347 -116 l 463 -116 l 463 116 l 116 116 l 116 231 l 0 231 z "},"r":{"ha":926,"x_min":0,"x_max":810,"o":"m 0 0 l 0 116 l 116 116 l 116 579 l 0 579 l 0 694 l 231 694 l 231 579 l 347 579 l 347 694 l 694 694 l 694 579 l 810 579 l 810 347 l 579 347 l 579 579 l 463 579 l 463 463 l 347 463 l 347 116 l 463 116 l 463 0 l 0 0 z "},"s":{"ha":926,"x_min":0,"x_max":810,"o":"m 0 116 l 0 231 l 231 231 l 231 116 l 579 116 l 579 231 l 347 231 l 347 347 l 116 347 l 116 463 l 0 463 l 0 579 l 116 579 l 116 694 l 694 694 l 694 579 l 810 579 l 810 463 l 579 463 l 579 579 l 231 579 l 231 463 l 463 463 l 463 347 l 694 347 l 694 231 l 810 231 l 810 116 l 694 116 l 694 0 l 116 0 l 116 116 l 0 116 z "},"t":{"ha":926,"x_min":0,"x_max":810,"o":"m 0 579 l 0 694 l 231 694 l 231 926 l 347 926 l 347 1042 l 463 1042 l 463 694 l 694 694 l 694 579 l 463 579 l 463 116 l 579 116 l 579 231 l 810 231 l 810 116 l 694 116 l 694 0 l 347 0 l 347 116 l 231 116 l 231 579 l 0 579 z "},"u":{"ha":926,"x_min":0,"x_max":810,"o":"m 0 116 l 0 694 l 231 694 l 231 116 l 463 116 l 463 0 l 116 0 l 116 116 l 0 116 m 463 116 l 463 694 l 694 694 l 694 116 l 810 116 l 810 0 l 579 0 l 579 116 l 463 116 z "},"v":{"ha":926,"x_min":116,"x_max":810,"o":"m 116 231 l 116 694 l 347 694 l 347 231 l 579 231 l 579 694 l 810 694 l 810 231 l 694 231 l 694 116 l 579 116 l 579 0 l 347 0 l 347 116 l 231 116 l 231 231 l 116 231 z "},"w":{"ha":926,"x_min":0,"x_max":810,"o":"m 0 116 l 0 694 l 231 694 l 231 231 l 347 231 l 347 463 l 463 463 l 463 231 l 579 231 l 579 694 l 810 694 l 810 116 l 694 116 l 694 0 l 463 0 l 463 116 l 347 116 l 347 0 l 116 0 l 116 116 l 0 116 z "},"x":{"ha":926,"x_min":0,"x_max":810,"o":"m 0 0 l 0 116 l 116 116 l 116 231 l 231 231 l 231 463 l 116 463 l 116 579 l 0 579 l 0 694 l 231 694 l 231 579 l 347 579 l 347 463 l 463 463 l 463 579 l 579 579 l 579 694 l 810 694 l 810 579 l 694 579 l 694 463 l 579 463 l 579 231 l 694 231 l 694 116 l 810 116 l 810 0 l 579 0 l 579 116 l 463 116 l 463 231 l 347 231 l 347 116 l 231 116 l 231 0 l 0 0 z "},"y":{"ha":926,"x_min":0,"x_max":810,"o":"m 0 -231 l 0 -116 l 463 -116 l 463 0 l 579 0 l 579 116 l 116 116 l 116 231 l 0 231 l 0 694 l 231 694 l 231 231 l 579 231 l 579 694 l 810 694 l 810 0 l 694 0 l 694 -116 l 579 -116 l 579 -231 l 0 -231 z "},"z":{"ha":926,"x_min":0,"x_max":810,"o":"m 0 0 l 0 116 l 116 116 l 116 231 l 231 231 l 231 347 l 347 347 l 347 463 l 463 463 l 463 579 l 231 579 l 231 463 l 0 463 l 0 694 l 810 694 l 810 579 l 694 579 l 694 463 l 579 463 l 579 347 l 463 347 l 463 231 l 347 231 l 347 116 l 579 116 l 579 231 l 810 231 l 810 0 l 0 0 z "},"{":{"ha":926,"x_min":116,"x_max":810,"o":"m 116 463 l 116 579 l 347 579 l 347 926 l 463 926 l 463 1042 l 810 1042 l 810 926 l 579 926 l 579 579 l 463 579 l 463 463 l 579 463 l 579 116 l 810 116 l 810 0 l 463 0 l 463 116 l 347 116 l 347 463 l 116 463 z "},"|":{"ha":926,"x_min":347,"x_max":579,"o":"m 579 0 l 347 0 l 347 463 l 579 463 l 579 0 m 579 579 l 347 579 l 347 1042 l 579 1042 l 579 579 z "},"}":{"ha":926,"x_min":116,"x_max":810,"o":"m 116 0 l 116 116 l 347 116 l 347 463 l 463 463 l 463 579 l 347 579 l 347 926 l 116 926 l 116 1042 l 463 1042 l 463 926 l 579 926 l 579 579 l 810 579 l 810 463 l 579 463 l 579 116 l 463 116 l 463 0 l 116 0 z "},"~":{"ha":926,"x_min":0,"x_max":810,"o":"m 0 810 l 0 926 l 116 926 l 116 1042 l 463 1042 l 463 926 l 579 926 l 579 1042 l 810 1042 l 810 926 l 694 926 l 694 810 l 347 810 l 347 926 l 231 926 l 231 810 l 0 810 z "},"":{"ha":926,"x_min":0,"x_max":810,"o":"m 0 116 l 0 463 l 116 463 l 116 579 l 231 579 l 231 694 l 347 694 l 347 810 l 463 810 l 463 694 l 579 694 l 579 579 l 694 579 l 694 463 l 810 463 l 810 116 l 0 116 m 231 231 l 579 231 l 579 463 l 463 463 l 463 579 l 347 579 l 347 463 l 231 463 l 231 231 z "}," ":{"ha":926,"x_min":0,"x_max":0,"o":""},"¡":{"ha":926,"x_min":231,"x_max":694,"o":"m 231 116 l 231 463 l 347 463 l 347 694 l 579 694 l 579 463 l 694 463 l 694 116 l 579 116 l 579 0 l 347 0 l 347 116 l 231 116 m 347 810 l 347 1042 l 579 1042 l 579 810 l 347 810 z "},"¢":{"ha":926,"x_min":116,"x_max":810,"o":"m 231 231 l 231 347 l 116 347 l 116 810 l 231 810 l 231 926 l 347 926 l 347 1157 l 579 1157 l 579 926 l 694 926 l 694 810 l 810 810 l 810 694 l 579 694 l 579 810 l 347 810 l 347 347 l 579 347 l 579 463 l 810 463 l 810 347 l 694 347 l 694 231 l 579 231 l 579 0 l 347 0 l 347 231 l 231 231 z "},"£":{"ha":926,"x_min":0,"x_max":810,"o":"m 0 231 l 116 231 l 116 579 l 0 579 l 0 694 l 116 694 l 116 1042 l 231 1042 l 231 1157 l 579 1157 l 579 1042 l 694 1042 l 694 810 l 579 810 l 579 926 l 463 926 l 463 1042 l 347 1042 l 347 694 l 463 694 l 463 579 l 347 579 l 347 116 l 579 116 l 579 231 l 810 231 l 810 116 l 694 116 l 694 0 l 0 0 l 0 231 z "},"¤":{"ha":926,"x_min":0,"x_max":810,"o":"m 0 0 l 0 116 l 116 116 l 116 231 l 0 231 l 0 579 l 116 579 l 116 694 l 0 694 l 0 810 l 231 810 l 231 694 l 579 694 l 579 810 l 810 810 l 810 694 l 694 694 l 694 579 l 810 579 l 810 231 l 694 231 l 694 116 l 810 116 l 810 0 l 579 0 l 579 116 l 231 116 l 231 0 l 0 0 m 231 231 l 579 231 l 579 579 l 231 579 l 231 231 z "},"¥":{"ha":926,"x_min":116,"x_max":810,"o":"m 231 810 l 116 810 l 116 1042 l 347 1042 l 347 810 l 579 810 l 579 1042 l 810 1042 l 810 810 l 694 810 l 694 694 l 579 694 l 579 579 l 810 579 l 810 463 l 579 463 l 579 347 l 810 347 l 810 231 l 579 231 l 579 0 l 347 0 l 347 231 l 116 231 l 116 347 l 347 347 l 347 463 l 116 463 l 116 579 l 347 579 l 347 694 l 231 694 l 231 810 z "},"¦":{"ha":926,"x_min":347,"x_max":579,"o":"m 579 0 l 347 0 l 347 463 l 579 463 l 579 0 m 579 579 l 347 579 l 347 1042 l 579 1042 l 579 579 z "},"§":{"ha":926,"x_min":0,"x_max":810,"o":"m 0 -116 l 0 0 l 231 0 l 231 -116 l 579 -116 l 579 0 l 463 0 l 463 116 l 231 116 l 231 231 l 116 231 l 116 347 l 0 347 l 0 463 l 116 463 l 116 579 l 231 579 l 231 694 l 116 694 l 116 810 l 0 810 l 0 926 l 116 926 l 116 1042 l 694 1042 l 694 926 l 810 926 l 810 810 l 579 810 l 579 926 l 231 926 l 231 810 l 347 810 l 347 694 l 579 694 l 579 579 l 694 579 l 694 463 l 810 463 l 810 347 l 694 347 l 694 231 l 579 231 l 579 116 l 694 116 l 694 0 l 810 0 l 810 -116 l 694 -116 l 694 -231 l 116 -231 l 116 -116 l 0 -116 m 463 231 l 463 347 l 579 347 l 579 463 l 463 463 l 463 579 l 347 579 l 347 463 l 231 463 l 231 347 l 347 347 l 347 231 l 463 231 z "},"¨":{"ha":926,"x_min":116,"x_max":810,"o":"m 116 1157 l 347 1157 l 347 926 l 116 926 l 116 1157 m 579 1157 l 810 1157 l 810 926 l 579 926 l 579 1157 z "},"©":{"ha":926,"x_min":0,"x_max":810,"o":"m 0 231 l 0 810 l 116 810 l 116 231 l 0 231 m 231 231 l 231 116 l 116 116 l 116 231 l 231 231 m 231 116 l 579 116 l 579 0 l 231 0 l 231 116 m 231 347 l 231 694 l 347 694 l 347 347 l 231 347 m 231 810 l 116 810 l 116 926 l 231 926 l 231 810 m 231 926 l 231 1042 l 579 1042 l 579 926 l 231 926 m 694 231 l 694 116 l 579 116 l 579 231 l 694 231 m 694 810 l 579 810 l 579 926 l 694 926 l 694 810 m 347 231 l 347 347 l 579 347 l 579 231 l 347 231 m 347 694 l 347 810 l 579 810 l 579 694 l 347 694 m 810 231 l 694 231 l 694 810 l 810 810 l 810 231 z "},"ª":{"ha":926,"x_min":116,"x_max":810,"o":"m 116 463 l 116 579 l 810 579 l 810 463 l 116 463 m 116 810 l 116 1042 l 231 1042 l 231 1157 l 694 1157 l 694 810 l 810 810 l 810 694 l 231 694 l 231 810 l 116 810 m 347 810 l 463 810 l 463 1042 l 347 1042 l 347 810 z "},"«":{"ha":926,"x_min":0,"x_max":810,"o":"m 0 463 l 0 579 l 116 579 l 116 694 l 231 694 l 231 810 l 463 810 l 463 694 l 347 694 l 347 579 l 231 579 l 231 463 l 347 463 l 347 347 l 463 347 l 463 231 l 231 231 l 231 347 l 116 347 l 116 463 l 0 463 m 463 579 l 463 694 l 579 694 l 579 810 l 810 810 l 810 694 l 694 694 l 694 579 l 579 579 l 579 463 l 694 463 l 694 347 l 810 347 l 810 231 l 579 231 l 579 347 l 463 347 l 463 463 l 347 463 l 347 579 l 463 579 z "},"¬":{"ha":926,"x_min":0,"x_max":810,"o":"m 0 463 l 0 579 l 810 579 l 810 116 l 579 116 l 579 463 l 0 463 z "},"­":{"ha":926,"x_min":0,"x_max":810,"o":"m 0 463 l 0 579 l 810 579 l 810 463 l 0 463 z "},"®":{"ha":926,"x_min":0,"x_max":810,"o":"m 0 231 l 0 810 l 116 810 l 116 231 l 0 231 m 231 231 l 231 116 l 116 116 l 116 231 l 231 231 m 231 116 l 579 116 l 579 0 l 231 0 l 231 116 m 231 810 l 116 810 l 116 926 l 231 926 l 231 810 m 231 926 l 231 1042 l 579 1042 l 579 926 l 231 926 m 463 231 l 463 463 l 579 463 l 579 231 l 463 231 m 463 579 l 463 463 l 347 463 l 347 231 l 231 231 l 231 810 l 579 810 l 579 579 l 463 579 m 463 694 l 347 694 l 347 579 l 463 579 l 463 694 m 694 231 l 694 116 l 579 116 l 579 231 l 694 231 m 694 810 l 579 810 l 579 926 l 694 926 l 694 810 m 810 231 l 694 231 l 694 810 l 810 810 l 810 231 z "},"¯":{"ha":926,"x_min":0,"x_max":926,"o":"m 0 1042 l 0 1157 l 926 1157 l 926 1042 l 0 1042 z "},"°":{"ha":926,"x_min":116,"x_max":694,"o":"m 116 810 l 116 1042 l 231 1042 l 231 1157 l 579 1157 l 579 1042 l 694 1042 l 694 810 l 579 810 l 579 694 l 231 694 l 231 810 l 116 810 m 347 810 l 463 810 l 463 1042 l 347 1042 l 347 810 z "},"±":{"ha":926,"x_min":0,"x_max":926,"o":"m 0 0 l 0 116 l 926 116 l 926 0 l 0 0 m 116 579 l 116 694 l 347 694 l 347 926 l 579 926 l 579 694 l 810 694 l 810 579 l 579 579 l 579 347 l 347 347 l 347 579 l 116 579 z "},"²":{"ha":926,"x_min":0,"x_max":579,"o":"m 0 463 l 0 694 l 116 694 l 116 810 l 231 810 l 231 926 l 347 926 l 347 1042 l 231 1042 l 231 926 l 0 926 l 0 1042 l 116 1042 l 116 1157 l 463 1157 l 463 1042 l 579 1042 l 579 926 l 463 926 l 463 810 l 347 810 l 347 694 l 231 694 l 231 579 l 463 579 l 463 694 l 579 694 l 579 463 l 0 463 z "},"³":{"ha":926,"x_min":0,"x_max":579,"o":"m 0 463 l 0 579 l 347 579 l 347 810 l 116 810 l 116 926 l 347 926 l 347 1042 l 0 1042 l 0 1157 l 463 1157 l 463 1042 l 579 1042 l 579 926 l 463 926 l 463 810 l 579 810 l 579 579 l 463 579 l 463 463 l 0 463 z "},"´":{"ha":926,"x_min":231,"x_max":694,"o":"m 463 810 l 231 810 l 231 926 l 347 926 l 347 1042 l 463 1042 l 463 1157 l 694 1157 l 694 1042 l 579 1042 l 579 926 l 463 926 l 463 810 z "},"µ":{"ha":926,"x_min":0,"x_max":810,"o":"m 0 -116 l 0 0 l 116 0 l 116 810 l 347 810 l 347 347 l 579 347 l 579 810 l 810 810 l 810 347 l 694 347 l 694 231 l 347 231 l 347 0 l 231 0 l 231 -116 l 0 -116 z "},"¶":{"ha":926,"x_min":0,"x_max":926,"o":"m 926 0 l 694 0 l 694 926 l 579 926 l 579 0 l 347 0 l 347 463 l 116 463 l 116 579 l 0 579 l 0 926 l 116 926 l 116 1042 l 926 1042 l 926 0 m 231 579 l 347 579 l 347 926 l 231 926 l 231 579 z "},"·":{"ha":926,"x_min":347,"x_max":579,"o":"m 579 463 l 579 347 l 347 347 l 347 463 l 579 463 z "},"¸":{"ha":926,"x_min":116,"x_max":694,"o":"m 463 0 l 347 0 l 347 116 l 579 116 l 579 0 l 694 0 l 694 -116 l 579 -116 l 579 -231 l 116 -231 l 116 -116 l 463 -116 l 463 0 z "},"¹":{"ha":926,"x_min":116,"x_max":579,"o":"m 463 579 l 579 579 l 579 463 l 116 463 l 116 579 l 231 579 l 231 926 l 116 926 l 116 1042 l 231 1042 l 231 1157 l 463 1157 l 463 579 z "},"º":{"ha":926,"x_min":116,"x_max":694,"o":"m 116 463 l 116 579 l 694 579 l 694 463 l 116 463 m 116 810 l 116 1042 l 231 1042 l 231 1157 l 579 1157 l 579 1042 l 694 1042 l 694 810 l 579 810 l 579 694 l 231 694 l 231 810 l 116 810 m 347 810 l 463 810 l 463 1042 l 347 1042 l 347 810 z "},"»":{"ha":926,"x_min":0,"x_max":810,"o":"m 0 231 l 0 347 l 116 347 l 116 463 l 231 463 l 231 579 l 116 579 l 116 694 l 0 694 l 0 810 l 231 810 l 231 694 l 347 694 l 347 579 l 463 579 l 463 463 l 347 463 l 347 347 l 231 347 l 231 231 l 0 231 m 463 579 l 463 694 l 347 694 l 347 810 l 579 810 l 579 694 l 694 694 l 694 579 l 810 579 l 810 463 l 694 463 l 694 347 l 579 347 l 579 231 l 347 231 l 347 347 l 463 347 l 463 463 l 579 463 l 579 579 l 463 579 z "},"¼":{"ha":926,"x_min":0,"x_max":810,"o":"m 0 116 l 0 347 l 116 347 l 116 463 l 231 463 l 231 579 l 347 579 l 347 694 l 463 694 l 463 810 l 579 810 l 579 926 l 810 926 l 810 810 l 694 810 l 694 694 l 579 694 l 579 579 l 463 579 l 463 463 l 347 463 l 347 347 l 231 347 l 231 231 l 116 231 l 116 116 l 0 116 m 0 579 l 0 926 l 116 926 l 116 1042 l 231 1042 l 231 579 l 0 579 m 231 0 l 231 116 l 347 116 l 347 231 l 463 231 l 463 116 l 579 116 l 579 231 l 463 231 l 463 347 l 579 347 l 579 463 l 810 463 l 810 -231 l 579 -231 l 579 0 l 231 0 z "},"½":{"ha":926,"x_min":0,"x_max":810,"o":"m 0 116 l 0 347 l 116 347 l 116 463 l 231 463 l 231 579 l 347 579 l 347 694 l 463 694 l 463 810 l 579 810 l 579 926 l 810 926 l 810 810 l 694 810 l 694 694 l 579 694 l 579 579 l 463 579 l 463 463 l 347 463 l 347 347 l 231 347 l 231 231 l 116 231 l 116 116 l 0 116 m 0 579 l 0 926 l 116 926 l 116 1042 l 231 1042 l 231 579 l 0 579 m 463 0 l 463 116 l 579 116 l 579 231 l 347 231 l 347 347 l 694 347 l 694 231 l 810 231 l 810 116 l 694 116 l 694 0 l 579 0 l 579 -116 l 810 -116 l 810 -231 l 231 -231 l 231 -116 l 347 -116 l 347 0 l 463 0 z "},"¾":{"ha":926,"x_min":0,"x_max":810,"o":"m 0 116 l 0 231 l 116 231 l 116 347 l 231 347 l 231 463 l 347 463 l 347 579 l 463 579 l 463 694 l 579 694 l 579 810 l 694 810 l 694 926 l 810 926 l 810 694 l 694 694 l 694 579 l 579 579 l 579 463 l 463 463 l 463 347 l 347 347 l 347 231 l 231 231 l 231 116 l 0 116 m 0 579 l 0 694 l 231 694 l 231 810 l 116 810 l 116 926 l 231 926 l 231 1042 l 0 1042 l 0 1157 l 347 1157 l 347 1042 l 463 1042 l 463 926 l 347 926 l 347 810 l 463 810 l 463 694 l 347 694 l 347 579 l 0 579 m 463 231 l 463 116 l 579 116 l 579 231 l 463 231 m 463 347 l 579 347 l 579 463 l 810 463 l 810 -231 l 579 -231 l 579 0 l 231 0 l 231 116 l 347 116 l 347 231 l 463 231 l 463 347 z "},"¿":{"ha":926,"x_min":0,"x_max":810,"o":"m 0 116 l 0 347 l 116 347 l 116 463 l 231 463 l 231 694 l 463 694 l 463 463 l 347 463 l 347 347 l 231 347 l 231 116 l 579 116 l 579 347 l 810 347 l 810 116 l 694 116 l 694 0 l 116 0 l 116 116 l 0 116 m 231 810 l 231 1042 l 463 1042 l 463 810 l 231 810 z "},"À":{"ha":926,"x_min":0,"x_max":810,"o":"m 0 0 l 0 579 l 116 579 l 116 694 l 231 694 l 231 810 l 347 810 l 347 926 l 463 926 l 463 810 l 579 810 l 579 694 l 694 694 l 694 579 l 810 579 l 810 0 l 579 0 l 579 231 l 231 231 l 231 0 l 0 0 m 231 579 l 231 347 l 579 347 l 579 579 l 463 579 l 463 694 l 347 694 l 347 579 l 231 579 m 463 1042 l 463 1157 l 694 1157 l 694 1042 l 810 1042 l 810 926 l 579 926 l 579 1042 l 463 1042 z "},"Á":{"ha":926,"x_min":0,"x_max":810,"o":"m 0 0 l 0 579 l 116 579 l 116 694 l 231 694 l 231 810 l 347 810 l 347 926 l 463 926 l 463 810 l 579 810 l 579 694 l 694 694 l 694 579 l 810 579 l 810 0 l 579 0 l 579 231 l 231 231 l 231 0 l 0 0 m 0 926 l 0 1042 l 116 1042 l 116 1157 l 347 1157 l 347 1042 l 231 1042 l 231 926 l 0 926 m 231 579 l 231 347 l 579 347 l 579 579 l 463 579 l 463 694 l 347 694 l 347 579 l 231 579 z "},"Â":{"ha":926,"x_min":0,"x_max":810,"o":"m 0 0 l 0 579 l 116 579 l 116 694 l 231 694 l 231 810 l 347 810 l 347 926 l 463 926 l 463 810 l 579 810 l 579 694 l 694 694 l 694 579 l 810 579 l 810 0 l 579 0 l 579 231 l 231 231 l 231 0 l 0 0 m 231 579 l 231 347 l 579 347 l 579 579 l 463 579 l 463 694 l 347 694 l 347 579 l 231 579 m 231 1042 l 231 1157 l 579 1157 l 579 1042 l 694 1042 l 694 926 l 463 926 l 463 1042 l 347 1042 l 347 926 l 116 926 l 116 1042 l 231 1042 z "},"Ã":{"ha":926,"x_min":0,"x_max":810,"o":"m 0 0 l 0 579 l 116 579 l 116 694 l 231 694 l 231 810 l 347 810 l 347 1042 l 231 1042 l 231 926 l 0 926 l 0 1042 l 116 1042 l 116 1157 l 463 1157 l 463 1042 l 579 1042 l 579 1157 l 810 1157 l 810 1042 l 694 1042 l 694 926 l 463 926 l 463 810 l 579 810 l 579 694 l 694 694 l 694 579 l 810 579 l 810 0 l 579 0 l 579 231 l 231 231 l 231 0 l 0 0 m 231 579 l 231 347 l 579 347 l 579 579 l 463 579 l 463 694 l 347 694 l 347 579 l 231 579 z "},"Ä":{"ha":926,"x_min":0,"x_max":810,"o":"m 0 0 l 0 579 l 116 579 l 116 694 l 231 694 l 231 810 l 347 810 l 347 926 l 463 926 l 463 810 l 579 810 l 579 694 l 694 694 l 694 579 l 810 579 l 810 0 l 579 0 l 579 231 l 231 231 l 231 0 l 0 0 m 0 1157 l 231 1157 l 231 926 l 0 926 l 0 1157 m 231 579 l 231 347 l 579 347 l 579 579 l 463 579 l 463 694 l 347 694 l 347 579 l 231 579 m 579 1157 l 810 1157 l 810 926 l 579 926 l 579 1157 z "},"Å":{"ha":926,"x_min":0,"x_max":810,"o":"m 0 0 l 0 579 l 116 579 l 116 694 l 231 694 l 231 926 l 116 926 l 116 1042 l 231 1042 l 231 1157 l 579 1157 l 579 1042 l 694 1042 l 694 926 l 579 926 l 579 694 l 694 694 l 694 579 l 810 579 l 810 0 l 579 0 l 579 231 l 231 231 l 231 0 l 0 0 m 231 579 l 231 347 l 579 347 l 579 579 l 463 579 l 463 694 l 347 694 l 347 579 l 231 579 m 463 1042 l 347 1042 l 347 926 l 463 926 l 463 1042 z "},"Æ":{"ha":926,"x_min":0,"x_max":810,"o":"m 0 0 l 0 810 l 116 810 l 116 926 l 231 926 l 231 1042 l 810 1042 l 810 926 l 694 926 l 694 579 l 810 579 l 810 463 l 694 463 l 694 116 l 810 116 l 810 0 l 463 0 l 463 463 l 231 463 l 231 0 l 0 0 m 231 579 l 463 579 l 463 926 l 347 926 l 347 810 l 231 810 l 231 579 z "},"Ç":{"ha":926,"x_min":0,"x_max":810,"o":"m 0 347 l 0 926 l 116 926 l 116 1042 l 231 1042 l 231 1157 l 694 1157 l 694 1042 l 810 1042 l 810 810 l 694 810 l 694 926 l 579 926 l 579 1042 l 347 1042 l 347 926 l 231 926 l 231 347 l 347 347 l 347 231 l 579 231 l 579 347 l 694 347 l 694 463 l 810 463 l 810 231 l 694 231 l 694 0 l 810 0 l 810 -116 l 694 -116 l 694 -231 l 116 -231 l 116 -116 l 579 -116 l 579 0 l 463 0 l 463 116 l 231 116 l 231 231 l 116 231 l 116 347 l 0 347 z "},"È":{"ha":926,"x_min":0,"x_max":810,"o":"m 0 0 l 0 116 l 116 116 l 116 694 l 0 694 l 0 810 l 810 810 l 810 579 l 579 579 l 579 694 l 347 694 l 347 463 l 579 463 l 579 347 l 347 347 l 347 116 l 579 116 l 579 231 l 810 231 l 810 0 l 0 0 m 231 1042 l 231 1157 l 463 1157 l 463 1042 l 579 1042 l 579 926 l 347 926 l 347 1042 l 231 1042 z "},"É":{"ha":926,"x_min":0,"x_max":810,"o":"m 0 0 l 0 116 l 116 116 l 116 694 l 0 694 l 0 810 l 116 810 l 116 926 l 231 926 l 231 1042 l 347 1042 l 347 1157 l 579 1157 l 579 1042 l 463 1042 l 463 926 l 347 926 l 347 810 l 810 810 l 810 579 l 579 579 l 579 694 l 347 694 l 347 463 l 579 463 l 579 347 l 347 347 l 347 116 l 579 116 l 579 231 l 810 231 l 810 0 l 0 0 z "},"Ê":{"ha":926,"x_min":0,"x_max":810,"o":"m 0 0 l 0 116 l 116 116 l 116 694 l 0 694 l 0 810 l 810 810 l 810 579 l 579 579 l 579 694 l 347 694 l 347 463 l 579 463 l 579 347 l 347 347 l 347 116 l 579 116 l 579 231 l 810 231 l 810 0 l 0 0 m 231 1042 l 231 1157 l 579 1157 l 579 1042 l 694 1042 l 694 926 l 463 926 l 463 1042 l 347 1042 l 347 926 l 116 926 l 116 1042 l 231 1042 z "},"Ë":{"ha":926,"x_min":0,"x_max":810,"o":"m 0 0 l 0 116 l 116 116 l 116 694 l 0 694 l 0 810 l 810 810 l 810 579 l 579 579 l 579 694 l 347 694 l 347 463 l 579 463 l 579 347 l 347 347 l 347 116 l 579 116 l 579 231 l 810 231 l 810 0 l 0 0 m 0 1157 l 231 1157 l 231 926 l 0 926 l 0 1157 m 579 1157 l 810 1157 l 810 926 l 579 926 l 579 1157 z "},"Ì":{"ha":926,"x_min":231,"x_max":694,"o":"m 231 0 l 231 116 l 347 116 l 347 694 l 231 694 l 231 810 l 694 810 l 694 694 l 579 694 l 579 116 l 694 116 l 694 0 l 231 0 m 231 1042 l 231 1157 l 463 1157 l 463 1042 l 579 1042 l 579 926 l 347 926 l 347 1042 l 231 1042 z "},"Í":{"ha":926,"x_min":231,"x_max":694,"o":"m 231 0 l 231 116 l 347 116 l 347 694 l 231 694 l 231 810 l 694 810 l 694 694 l 579 694 l 579 116 l 694 116 l 694 0 l 231 0 m 347 926 l 347 1042 l 463 1042 l 463 1157 l 694 1157 l 694 1042 l 579 1042 l 579 926 l 347 926 z "},"Î":{"ha":926,"x_min":116,"x_max":810,"o":"m 116 926 l 116 1042 l 231 1042 l 231 1157 l 694 1157 l 694 1042 l 810 1042 l 810 926 l 579 926 l 579 1042 l 347 1042 l 347 926 l 116 926 m 231 0 l 231 116 l 347 116 l 347 694 l 231 694 l 231 810 l 694 810 l 694 694 l 579 694 l 579 116 l 694 116 l 694 0 l 231 0 z "},"Ï":{"ha":926,"x_min":116,"x_max":810,"o":"m 116 1157 l 347 1157 l 347 926 l 116 926 l 116 1157 m 231 0 l 231 116 l 347 116 l 347 694 l 231 694 l 231 810 l 694 810 l 694 694 l 579 694 l 579 116 l 694 116 l 694 0 l 231 0 m 579 1157 l 810 1157 l 810 926 l 579 926 l 579 1157 z "},"Ð":{"ha":926,"x_min":0,"x_max":810,"o":"m 0 0 l 0 116 l 116 116 l 116 463 l 0 463 l 0 579 l 116 579 l 116 926 l 0 926 l 0 1042 l 579 1042 l 579 926 l 694 926 l 694 810 l 810 810 l 810 231 l 694 231 l 694 116 l 579 116 l 579 0 l 0 0 m 463 116 l 463 231 l 579 231 l 579 810 l 463 810 l 463 926 l 347 926 l 347 579 l 463 579 l 463 463 l 347 463 l 347 116 l 463 116 z "},"Ñ":{"ha":926,"x_min":0,"x_max":810,"o":"m 0 0 l 0 810 l 231 810 l 231 694 l 347 694 l 347 579 l 463 579 l 463 463 l 579 463 l 579 810 l 810 810 l 810 0 l 579 0 l 579 231 l 463 231 l 463 347 l 347 347 l 347 463 l 231 463 l 231 0 l 0 0 m 0 926 l 0 1042 l 116 1042 l 116 1157 l 463 1157 l 463 1042 l 579 1042 l 579 1157 l 810 1157 l 810 1042 l 694 1042 l 694 926 l 347 926 l 347 1042 l 231 1042 l 231 926 l 0 926 z "},"Ò":{"ha":926,"x_min":0,"x_max":810,"o":"m 0 231 l 0 579 l 116 579 l 116 694 l 231 694 l 231 810 l 579 810 l 579 694 l 694 694 l 694 579 l 810 579 l 810 231 l 694 231 l 694 116 l 579 116 l 579 0 l 231 0 l 231 116 l 116 116 l 116 231 l 0 231 m 231 231 l 347 231 l 347 116 l 463 116 l 463 231 l 579 231 l 579 579 l 463 579 l 463 694 l 347 694 l 347 579 l 231 579 l 231 231 m 231 1042 l 231 1157 l 463 1157 l 463 1042 l 579 1042 l 579 926 l 347 926 l 347 1042 l 231 1042 z "},"Ó":{"ha":926,"x_min":0,"x_max":810,"o":"m 0 231 l 0 579 l 116 579 l 116 694 l 231 694 l 231 810 l 579 810 l 579 694 l 694 694 l 694 579 l 810 579 l 810 231 l 694 231 l 694 116 l 579 116 l 579 0 l 231 0 l 231 116 l 116 116 l 116 231 l 0 231 m 231 231 l 347 231 l 347 116 l 463 116 l 463 231 l 579 231 l 579 579 l 463 579 l 463 694 l 347 694 l 347 579 l 231 579 l 231 231 m 231 926 l 231 1042 l 347 1042 l 347 1157 l 579 1157 l 579 1042 l 463 1042 l 463 926 l 231 926 z "},"Ô":{"ha":926,"x_min":0,"x_max":810,"o":"m 0 231 l 0 579 l 116 579 l 116 694 l 231 694 l 231 810 l 579 810 l 579 694 l 694 694 l 694 579 l 810 579 l 810 231 l 694 231 l 694 116 l 579 116 l 579 0 l 231 0 l 231 116 l 116 116 l 116 231 l 0 231 m 231 231 l 347 231 l 347 116 l 463 116 l 463 231 l 579 231 l 579 579 l 463 579 l 463 694 l 347 694 l 347 579 l 231 579 l 231 231 m 231 1042 l 231 1157 l 579 1157 l 579 1042 l 694 1042 l 694 926 l 463 926 l 463 1042 l 347 1042 l 347 926 l 116 926 l 116 1042 l 231 1042 z "},"Õ":{"ha":926,"x_min":0,"x_max":810,"o":"m 0 231 l 0 694 l 116 694 l 116 810 l 231 810 l 231 926 l 347 926 l 347 1042 l 231 1042 l 231 926 l 0 926 l 0 1042 l 116 1042 l 116 1157 l 463 1157 l 463 1042 l 579 1042 l 579 1157 l 810 1157 l 810 1042 l 694 1042 l 694 926 l 579 926 l 579 810 l 694 810 l 694 694 l 810 694 l 810 231 l 694 231 l 694 116 l 579 116 l 579 0 l 231 0 l 231 116 l 116 116 l 116 231 l 0 231 m 231 231 l 347 231 l 347 116 l 463 116 l 463 231 l 579 231 l 579 694 l 463 694 l 463 810 l 347 810 l 347 694 l 231 694 l 231 231 z "},"Ö":{"ha":926,"x_min":0,"x_max":810,"o":"m 0 231 l 0 694 l 116 694 l 116 810 l 231 810 l 231 926 l 579 926 l 579 810 l 694 810 l 694 694 l 810 694 l 810 231 l 694 231 l 694 116 l 579 116 l 579 0 l 231 0 l 231 116 l 116 116 l 116 231 l 0 231 m 0 1157 l 231 1157 l 231 926 l 0 926 l 0 1157 m 231 231 l 347 231 l 347 116 l 463 116 l 463 231 l 579 231 l 579 694 l 463 694 l 463 810 l 347 810 l 347 694 l 231 694 l 231 231 m 579 926 l 579 1157 l 810 1157 l 810 926 l 579 926 z "},"×":{"ha":926,"x_min":0,"x_max":810,"o":"m 0 116 l 0 231 l 116 231 l 116 347 l 231 347 l 231 579 l 116 579 l 116 694 l 0 694 l 0 810 l 231 810 l 231 694 l 347 694 l 347 579 l 463 579 l 463 694 l 579 694 l 579 810 l 810 810 l 810 694 l 694 694 l 694 579 l 579 579 l 579 347 l 694 347 l 694 231 l 810 231 l 810 116 l 579 116 l 579 231 l 463 231 l 463 347 l 347 347 l 347 231 l 231 231 l 231 116 l 0 116 z "},"Ø":{"ha":926,"x_min":0,"x_max":810,"o":"m 0 231 l 0 810 l 116 810 l 116 926 l 231 926 l 231 1042 l 579 1042 l 579 1157 l 694 1157 l 694 810 l 810 810 l 810 231 l 694 231 l 694 116 l 579 116 l 579 0 l 231 0 l 231 -116 l 116 -116 l 116 231 l 0 231 m 231 347 l 347 347 l 347 116 l 463 116 l 463 231 l 579 231 l 579 694 l 463 694 l 463 926 l 347 926 l 347 810 l 231 810 l 231 347 m 463 347 l 347 347 l 347 694 l 463 694 l 463 347 z "},"Ù":{"ha":926,"x_min":0,"x_max":810,"o":"m 0 116 l 0 810 l 231 810 l 231 116 l 579 116 l 579 810 l 810 810 l 810 116 l 694 116 l 694 0 l 116 0 l 116 116 l 0 116 m 231 1042 l 231 1157 l 463 1157 l 463 1042 l 579 1042 l 579 926 l 347 926 l 347 1042 l 231 1042 z "},"Ú":{"ha":926,"x_min":0,"x_max":810,"o":"m 0 116 l 0 810 l 231 810 l 231 116 l 579 116 l 579 810 l 810 810 l 810 116 l 694 116 l 694 0 l 116 0 l 116 116 l 0 116 m 231 926 l 231 1042 l 347 1042 l 347 1157 l 579 1157 l 579 1042 l 463 1042 l 463 926 l 231 926 z "},"Û":{"ha":926,"x_min":0,"x_max":810,"o":"m 0 116 l 0 810 l 231 810 l 231 116 l 579 116 l 579 810 l 810 810 l 810 116 l 694 116 l 694 0 l 116 0 l 116 116 l 0 116 m 116 926 l 116 1042 l 231 1042 l 231 1157 l 579 1157 l 579 1042 l 694 1042 l 694 926 l 463 926 l 463 1042 l 347 1042 l 347 926 l 116 926 z "},"Ü":{"ha":926,"x_min":0,"x_max":810,"o":"m 0 116 l 0 810 l 231 810 l 231 116 l 579 116 l 579 810 l 810 810 l 810 116 l 694 116 l 694 0 l 116 0 l 116 116 l 0 116 m 0 1157 l 231 1157 l 231 926 l 0 926 l 0 1157 m 579 1157 l 810 1157 l 810 926 l 579 926 l 579 1157 z "},"Ý":{"ha":926,"x_min":116,"x_max":810,"o":"m 231 0 l 231 116 l 347 116 l 347 463 l 231 463 l 231 579 l 116 579 l 116 926 l 347 926 l 347 579 l 579 579 l 579 926 l 810 926 l 810 579 l 694 579 l 694 463 l 579 463 l 579 116 l 694 116 l 694 0 l 231 0 m 463 1042 l 463 1157 l 694 1157 l 694 1042 l 579 1042 l 579 926 l 347 926 l 347 1042 l 463 1042 z "},"Þ":{"ha":926,"x_min":0,"x_max":810,"o":"m 0 0 l 0 116 l 116 116 l 116 926 l 0 926 l 0 1042 l 463 1042 l 463 926 l 347 926 l 347 810 l 694 810 l 694 694 l 810 694 l 810 347 l 694 347 l 694 231 l 347 231 l 347 116 l 463 116 l 463 0 l 0 0 m 347 347 l 579 347 l 579 694 l 347 694 l 347 347 z "},"ß":{"ha":926,"x_min":0,"x_max":810,"o":"m 0 0 l 0 926 l 116 926 l 116 1042 l 579 1042 l 579 926 l 694 926 l 694 579 l 579 579 l 579 463 l 694 463 l 694 347 l 810 347 l 810 116 l 694 116 l 694 0 l 463 0 l 463 116 l 579 116 l 579 347 l 463 347 l 463 463 l 347 463 l 347 579 l 463 579 l 463 926 l 231 926 l 231 0 l 0 0 z "},"à":{"ha":926,"x_min":0,"x_max":810,"o":"m 0 116 l 0 347 l 116 347 l 116 463 l 463 463 l 463 579 l 116 579 l 116 694 l 579 694 l 579 579 l 694 579 l 694 116 l 810 116 l 810 0 l 579 0 l 579 116 l 463 116 l 463 347 l 231 347 l 231 116 l 463 116 l 463 0 l 116 0 l 116 116 l 0 116 m 231 1042 l 116 1042 l 116 1157 l 347 1157 l 347 1042 l 463 1042 l 463 926 l 579 926 l 579 810 l 347 810 l 347 926 l 231 926 l 231 1042 z "},"á":{"ha":926,"x_min":0,"x_max":810,"o":"m 0 116 l 0 347 l 116 347 l 116 463 l 463 463 l 463 579 l 116 579 l 116 694 l 579 694 l 579 579 l 694 579 l 694 116 l 810 116 l 810 0 l 579 0 l 579 116 l 463 116 l 463 347 l 231 347 l 231 116 l 463 116 l 463 0 l 116 0 l 116 116 l 0 116 m 231 926 l 231 1042 l 347 1042 l 347 1157 l 579 1157 l 579 1042 l 463 1042 l 463 926 l 347 926 l 347 810 l 116 810 l 116 926 l 231 926 z "},"â":{"ha":926,"x_min":0,"x_max":810,"o":"m 0 116 l 0 347 l 116 347 l 116 463 l 463 463 l 463 579 l 116 579 l 116 694 l 579 694 l 579 579 l 694 579 l 694 116 l 810 116 l 810 0 l 579 0 l 579 116 l 463 116 l 463 347 l 231 347 l 231 116 l 463 116 l 463 0 l 116 0 l 116 116 l 0 116 m 231 926 l 231 1042 l 347 1042 l 347 1157 l 463 1157 l 463 1042 l 579 1042 l 579 926 l 694 926 l 694 810 l 463 810 l 463 926 l 347 926 l 347 810 l 116 810 l 116 926 l 231 926 z "},"ã":{"ha":926,"x_min":0,"x_max":810,"o":"m 0 116 l 0 347 l 116 347 l 116 463 l 463 463 l 463 579 l 116 579 l 116 694 l 579 694 l 579 579 l 694 579 l 694 116 l 810 116 l 810 0 l 579 0 l 579 116 l 463 116 l 463 347 l 231 347 l 231 116 l 463 116 l 463 0 l 116 0 l 116 116 l 0 116 m 0 810 l 0 926 l 116 926 l 116 1042 l 463 1042 l 463 926 l 579 926 l 579 1042 l 810 1042 l 810 926 l 694 926 l 694 810 l 347 810 l 347 926 l 231 926 l 231 810 l 0 810 z "},"ä":{"ha":926,"x_min":0,"x_max":810,"o":"m 0 116 l 0 347 l 116 347 l 116 463 l 463 463 l 463 579 l 116 579 l 116 694 l 579 694 l 579 579 l 694 579 l 694 116 l 810 116 l 810 0 l 579 0 l 579 116 l 463 116 l 463 347 l 231 347 l 231 116 l 463 116 l 463 0 l 116 0 l 116 116 l 0 116 m 0 810 l 0 1042 l 231 1042 l 231 810 l 0 810 m 463 810 l 463 1042 l 694 1042 l 694 810 l 463 810 z "},"å":{"ha":926,"x_min":0,"x_max":810,"o":"m 0 116 l 0 347 l 116 347 l 116 463 l 463 463 l 463 579 l 116 579 l 116 694 l 579 694 l 579 579 l 694 579 l 694 116 l 810 116 l 810 0 l 579 0 l 579 116 l 463 116 l 463 347 l 231 347 l 231 116 l 463 116 l 463 0 l 116 0 l 116 116 l 0 116 m 231 810 l 231 926 l 116 926 l 116 1042 l 231 1042 l 231 1157 l 579 1157 l 579 1042 l 694 1042 l 694 926 l 579 926 l 579 810 l 231 810 m 463 1042 l 347 1042 l 347 926 l 463 926 l 463 1042 z "},"æ":{"ha":926,"x_min":0,"x_max":810,"o":"m 0 116 l 0 347 l 116 347 l 116 463 l 231 463 l 231 579 l 0 579 l 0 694 l 347 694 l 347 579 l 463 579 l 463 463 l 579 463 l 579 579 l 463 579 l 463 694 l 694 694 l 694 579 l 810 579 l 810 347 l 579 347 l 579 116 l 810 116 l 810 0 l 463 0 l 463 116 l 347 116 l 347 347 l 231 347 l 231 116 l 347 116 l 347 0 l 116 0 l 116 116 l 0 116 z "},"ç":{"ha":926,"x_min":116,"x_max":810,"o":"m 231 231 l 231 347 l 116 347 l 116 694 l 231 694 l 231 810 l 694 810 l 694 694 l 810 694 l 810 579 l 579 579 l 579 694 l 347 694 l 347 347 l 579 347 l 579 463 l 810 463 l 810 347 l 694 347 l 694 116 l 810 116 l 810 0 l 694 0 l 694 -116 l 231 -116 l 231 0 l 579 0 l 579 116 l 463 116 l 463 231 l 231 231 z "},"è":{"ha":926,"x_min":0,"x_max":810,"o":"m 0 116 l 0 579 l 116 579 l 116 694 l 694 694 l 694 579 l 810 579 l 810 347 l 231 347 l 231 116 l 579 116 l 579 231 l 810 231 l 810 116 l 694 116 l 694 0 l 116 0 l 116 116 l 0 116 m 231 579 l 231 463 l 579 463 l 579 579 l 231 579 m 231 1042 l 116 1042 l 116 1157 l 347 1157 l 347 1042 l 463 1042 l 463 926 l 579 926 l 579 810 l 347 810 l 347 926 l 231 926 l 231 1042 z "},"é":{"ha":926,"x_min":0,"x_max":810,"o":"m 0 116 l 0 579 l 116 579 l 116 694 l 694 694 l 694 579 l 810 579 l 810 347 l 231 347 l 231 116 l 579 116 l 579 231 l 810 231 l 810 116 l 694 116 l 694 0 l 116 0 l 116 116 l 0 116 m 231 579 l 231 463 l 579 463 l 579 579 l 231 579 m 231 810 l 231 926 l 347 926 l 347 1042 l 463 1042 l 463 1157 l 694 1157 l 694 1042 l 579 1042 l 579 926 l 463 926 l 463 810 l 231 810 z "},"ê":{"ha":926,"x_min":0,"x_max":810,"o":"m 0 116 l 0 579 l 116 579 l 116 694 l 694 694 l 694 579 l 810 579 l 810 347 l 231 347 l 231 116 l 579 116 l 579 231 l 810 231 l 810 116 l 694 116 l 694 0 l 116 0 l 116 116 l 0 116 m 231 579 l 231 463 l 579 463 l 579 579 l 231 579 m 231 926 l 231 1042 l 347 1042 l 347 1157 l 463 1157 l 463 1042 l 579 1042 l 579 926 l 694 926 l 694 810 l 463 810 l 463 926 l 347 926 l 347 810 l 116 810 l 116 926 l 231 926 z "},"ë":{"ha":926,"x_min":0,"x_max":810,"o":"m 0 116 l 0 579 l 116 579 l 116 694 l 694 694 l 694 579 l 810 579 l 810 347 l 231 347 l 231 116 l 579 116 l 579 231 l 810 231 l 810 116 l 694 116 l 694 0 l 116 0 l 116 116 l 0 116 m 0 810 l 0 1042 l 231 1042 l 231 810 l 0 810 m 231 579 l 231 463 l 579 463 l 579 579 l 231 579 m 463 810 l 463 1042 l 694 1042 l 694 810 l 463 810 z "},"ì":{"ha":926,"x_min":116,"x_max":694,"o":"m 116 1042 l 116 1157 l 347 1157 l 347 1042 l 463 1042 l 463 926 l 579 926 l 579 810 l 347 810 l 347 926 l 231 926 l 231 1042 l 116 1042 m 231 0 l 231 116 l 347 116 l 347 579 l 231 579 l 231 694 l 579 694 l 579 116 l 694 116 l 694 0 l 231 0 z "},"í":{"ha":926,"x_min":231,"x_max":694,"o":"m 231 0 l 231 116 l 347 116 l 347 579 l 231 579 l 231 694 l 579 694 l 579 116 l 694 116 l 694 0 l 231 0 m 231 810 l 231 926 l 347 926 l 347 1042 l 463 1042 l 463 1157 l 694 1157 l 694 1042 l 579 1042 l 579 926 l 463 926 l 463 810 l 231 810 z "},"î":{"ha":926,"x_min":116,"x_max":810,"o":"m 231 0 l 231 116 l 347 116 l 347 579 l 231 579 l 231 694 l 579 694 l 579 116 l 694 116 l 694 0 l 231 0 m 231 926 l 231 1042 l 347 1042 l 347 1157 l 579 1157 l 579 1042 l 694 1042 l 694 926 l 810 926 l 810 810 l 579 810 l 579 926 l 347 926 l 347 810 l 116 810 l 116 926 l 231 926 z "},"ï":{"ha":926,"x_min":116,"x_max":810,"o":"m 116 810 l 116 1042 l 347 1042 l 347 810 l 116 810 m 231 0 l 231 116 l 347 116 l 347 579 l 231 579 l 231 694 l 579 694 l 579 116 l 694 116 l 694 0 l 231 0 m 579 810 l 579 1042 l 810 1042 l 810 810 l 579 810 z "},"ð":{"ha":926,"x_min":116,"x_max":810,"o":"m 231 116 l 116 116 l 116 463 l 231 463 l 231 579 l 579 579 l 579 694 l 463 694 l 463 810 l 347 810 l 347 926 l 231 926 l 231 1042 l 463 1042 l 463 926 l 579 926 l 579 810 l 694 810 l 694 694 l 810 694 l 810 116 l 694 116 l 694 0 l 231 0 l 231 116 m 231 694 l 231 810 l 347 810 l 347 694 l 231 694 m 694 1042 l 694 926 l 579 926 l 579 1042 l 694 1042 m 347 116 l 579 116 l 579 463 l 347 463 l 347 116 z "},"ñ":{"ha":926,"x_min":0,"x_max":810,"o":"m 0 579 l 0 694 l 231 694 l 231 579 l 347 579 l 347 0 l 116 0 l 116 579 l 0 579 m 0 810 l 0 926 l 116 926 l 116 1042 l 463 1042 l 463 926 l 579 926 l 579 1042 l 810 1042 l 810 926 l 694 926 l 694 810 l 347 810 l 347 926 l 231 926 l 231 810 l 0 810 m 694 579 l 810 579 l 810 0 l 579 0 l 579 579 l 347 579 l 347 694 l 694 694 l 694 579 z "},"ò":{"ha":926,"x_min":0,"x_max":810,"o":"m 0 116 l 0 579 l 116 579 l 116 694 l 694 694 l 694 579 l 810 579 l 810 116 l 694 116 l 694 0 l 116 0 l 116 116 l 0 116 m 231 116 l 579 116 l 579 579 l 231 579 l 231 116 m 231 1042 l 116 1042 l 116 1157 l 347 1157 l 347 1042 l 463 1042 l 463 926 l 579 926 l 579 810 l 347 810 l 347 926 l 231 926 l 231 1042 z "},"ó":{"ha":926,"x_min":0,"x_max":810,"o":"m 0 116 l 0 579 l 116 579 l 116 694 l 694 694 l 694 579 l 810 579 l 810 116 l 694 116 l 694 0 l 116 0 l 116 116 l 0 116 m 231 116 l 579 116 l 579 579 l 231 579 l 231 116 m 231 926 l 231 1042 l 347 1042 l 347 1157 l 579 1157 l 579 1042 l 463 1042 l 463 926 l 347 926 l 347 810 l 116 810 l 116 926 l 231 926 z "},"ô":{"ha":926,"x_min":0,"x_max":810,"o":"m 0 116 l 0 579 l 116 579 l 116 694 l 694 694 l 694 579 l 810 579 l 810 116 l 694 116 l 694 0 l 116 0 l 116 116 l 0 116 m 231 116 l 579 116 l 579 579 l 231 579 l 231 116 m 231 926 l 231 1042 l 347 1042 l 347 1157 l 463 1157 l 463 1042 l 579 1042 l 579 926 l 694 926 l 694 810 l 463 810 l 463 926 l 347 926 l 347 810 l 116 810 l 116 926 l 231 926 z "},"õ":{"ha":926,"x_min":0,"x_max":810,"o":"m 0 116 l 0 579 l 116 579 l 116 694 l 694 694 l 694 579 l 810 579 l 810 116 l 694 116 l 694 0 l 116 0 l 116 116 l 0 116 m 0 810 l 0 926 l 116 926 l 116 1042 l 463 1042 l 463 926 l 579 926 l 579 1042 l 810 1042 l 810 926 l 694 926 l 694 810 l 347 810 l 347 926 l 231 926 l 231 810 l 0 810 m 231 116 l 579 116 l 579 579 l 231 579 l 231 116 z "},"ö":{"ha":926,"x_min":0,"x_max":810,"o":"m 0 116 l 0 579 l 116 579 l 116 694 l 694 694 l 694 579 l 810 579 l 810 116 l 694 116 l 694 0 l 116 0 l 116 116 l 0 116 m 0 810 l 0 1042 l 231 1042 l 231 810 l 0 810 m 231 116 l 579 116 l 579 579 l 231 579 l 231 116 m 579 810 l 579 1042 l 810 1042 l 810 810 l 579 810 z "},"÷":{"ha":926,"x_min":116,"x_max":810,"o":"m 579 116 l 347 116 l 347 347 l 579 347 l 579 116 m 116 463 l 116 579 l 810 579 l 810 463 l 116 463 m 579 694 l 347 694 l 347 926 l 579 926 l 579 694 z "},"ø":{"ha":926,"x_min":0,"x_max":810,"o":"m 0 -116 l 0 0 l 116 0 l 116 116 l 0 116 l 0 579 l 116 579 l 116 694 l 579 694 l 579 810 l 810 810 l 810 694 l 694 694 l 694 579 l 810 579 l 810 116 l 694 116 l 694 0 l 231 0 l 231 -116 l 0 -116 m 231 231 l 347 231 l 347 116 l 579 116 l 579 463 l 463 463 l 463 579 l 231 579 l 231 231 m 463 231 l 347 231 l 347 463 l 463 463 l 463 231 z "},"ù":{"ha":926,"x_min":0,"x_max":810,"o":"m 0 116 l 0 694 l 231 694 l 231 116 l 463 116 l 463 0 l 116 0 l 116 116 l 0 116 m 231 1042 l 116 1042 l 116 1157 l 347 1157 l 347 1042 l 463 1042 l 463 926 l 579 926 l 579 810 l 347 810 l 347 926 l 231 926 l 231 1042 m 463 116 l 463 694 l 694 694 l 694 116 l 810 116 l 810 0 l 579 0 l 579 116 l 463 116 z "},"ú":{"ha":926,"x_min":0,"x_max":810,"o":"m 0 116 l 0 694 l 231 694 l 231 116 l 463 116 l 463 0 l 116 0 l 116 116 l 0 116 m 231 926 l 231 1042 l 347 1042 l 347 1157 l 579 1157 l 579 1042 l 463 1042 l 463 926 l 347 926 l 347 810 l 116 810 l 116 926 l 231 926 m 463 116 l 463 694 l 694 694 l 694 116 l 810 116 l 810 0 l 579 0 l 579 116 l 463 116 z "},"û":{"ha":926,"x_min":0,"x_max":810,"o":"m 0 116 l 0 694 l 231 694 l 231 116 l 463 116 l 463 0 l 116 0 l 116 116 l 0 116 m 0 810 l 0 926 l 116 926 l 116 1042 l 231 1042 l 231 1157 l 463 1157 l 463 1042 l 579 1042 l 579 926 l 694 926 l 694 810 l 463 810 l 463 926 l 231 926 l 231 810 l 0 810 m 463 116 l 463 694 l 694 694 l 694 116 l 810 116 l 810 0 l 579 0 l 579 116 l 463 116 z "},"ü":{"ha":926,"x_min":0,"x_max":810,"o":"m 0 116 l 0 694 l 231 694 l 231 116 l 463 116 l 463 0 l 116 0 l 116 116 l 0 116 m 0 810 l 0 1042 l 231 1042 l 231 810 l 0 810 m 463 116 l 463 694 l 694 694 l 694 116 l 810 116 l 810 0 l 579 0 l 579 116 l 463 116 m 463 810 l 463 1042 l 694 1042 l 694 810 l 463 810 z "},"ý":{"ha":926,"x_min":0,"x_max":810,"o":"m 0 -231 l 0 -116 l 463 -116 l 463 0 l 579 0 l 579 116 l 116 116 l 116 231 l 0 231 l 0 694 l 231 694 l 231 231 l 579 231 l 579 694 l 810 694 l 810 0 l 694 0 l 694 -116 l 579 -116 l 579 -231 l 0 -231 m 231 810 l 231 926 l 347 926 l 347 1042 l 463 1042 l 463 1157 l 694 1157 l 694 1042 l 579 1042 l 579 926 l 463 926 l 463 810 l 231 810 z "},"þ":{"ha":926,"x_min":0,"x_max":810,"o":"m 0 -231 l 0 -116 l 116 -116 l 116 926 l 0 926 l 0 1042 l 347 1042 l 347 694 l 694 694 l 694 579 l 810 579 l 810 116 l 694 116 l 694 0 l 347 0 l 347 -116 l 463 -116 l 463 -231 l 0 -231 m 347 116 l 579 116 l 579 579 l 347 579 l 347 116 z "},"ÿ":{"ha":926,"x_min":0,"x_max":810,"o":"m 0 -231 l 0 -116 l 463 -116 l 463 0 l 579 0 l 579 116 l 116 116 l 116 231 l 0 231 l 0 694 l 231 694 l 231 231 l 579 231 l 579 694 l 810 694 l 810 0 l 694 0 l 694 -116 l 579 -116 l 579 -231 l 0 -231 m 0 810 l 0 1042 l 231 1042 l 231 810 l 0 810 m 579 810 l 579 1042 l 810 1042 l 810 810 l 579 810 z "},"Ā":{"ha":926,"x_min":0,"x_max":810,"o":"m 0 0 l 0 579 l 116 579 l 116 694 l 231 694 l 231 810 l 347 810 l 347 926 l 463 926 l 463 810 l 579 810 l 579 694 l 694 694 l 694 579 l 810 579 l 810 0 l 579 0 l 579 231 l 231 231 l 231 0 l 0 0 m 231 579 l 231 347 l 579 347 l 579 579 l 463 579 l 463 694 l 347 694 l 347 579 l 231 579 m 694 1157 l 694 1042 l 116 1042 l 116 1157 l 694 1157 z "},"ā":{"ha":926,"x_min":0,"x_max":810,"o":"m 0 116 l 0 347 l 116 347 l 116 463 l 463 463 l 463 579 l 116 579 l 116 694 l 579 694 l 579 579 l 694 579 l 694 116 l 810 116 l 810 0 l 579 0 l 579 116 l 463 116 l 463 347 l 231 347 l 231 116 l 463 116 l 463 0 l 116 0 l 116 116 l 0 116 m 694 810 l 116 810 l 116 926 l 694 926 l 694 810 z "},"Ă":{"ha":926,"x_min":0,"x_max":810,"o":"m 0 0 l 0 579 l 116 579 l 116 694 l 231 694 l 231 810 l 347 810 l 347 926 l 116 926 l 116 1042 l 0 1042 l 0 1157 l 231 1157 l 231 1042 l 579 1042 l 579 1157 l 810 1157 l 810 1042 l 694 1042 l 694 926 l 463 926 l 463 810 l 579 810 l 579 694 l 694 694 l 694 579 l 810 579 l 810 0 l 579 0 l 579 231 l 231 231 l 231 0 l 0 0 m 231 579 l 231 347 l 579 347 l 579 579 l 463 579 l 463 694 l 347 694 l 347 579 l 231 579 z "},"ă":{"ha":926,"x_min":0,"x_max":810,"o":"m 0 116 l 0 347 l 116 347 l 116 463 l 463 463 l 463 579 l 116 579 l 116 694 l 579 694 l 579 579 l 694 579 l 694 116 l 810 116 l 810 0 l 579 0 l 579 116 l 463 116 l 463 347 l 231 347 l 231 116 l 463 116 l 463 0 l 116 0 l 116 116 l 0 116 m 0 926 l 0 1042 l 231 1042 l 231 926 l 463 926 l 463 1042 l 694 1042 l 694 926 l 579 926 l 579 810 l 116 810 l 116 926 l 0 926 z "},"Ą":{"ha":926,"x_min":0,"x_max":810,"o":"m 0 0 l 0 694 l 116 694 l 116 810 l 231 810 l 231 926 l 347 926 l 347 1042 l 463 1042 l 463 926 l 579 926 l 579 810 l 694 810 l 694 694 l 810 694 l 810 0 l 694 0 l 694 -116 l 810 -116 l 810 -231 l 579 -231 l 579 -116 l 463 -116 l 463 116 l 579 116 l 579 347 l 231 347 l 231 0 l 0 0 m 231 463 l 579 463 l 579 694 l 463 694 l 463 810 l 347 810 l 347 694 l 231 694 l 231 463 z "},"ą":{"ha":926,"x_min":0,"x_max":810,"o":"m 0 116 l 0 347 l 116 347 l 116 463 l 463 463 l 463 579 l 116 579 l 116 694 l 579 694 l 579 579 l 694 579 l 694 116 l 810 116 l 810 0 l 694 0 l 694 -116 l 810 -116 l 810 -231 l 579 -231 l 579 -116 l 463 -116 l 463 0 l 579 0 l 579 116 l 463 116 l 463 347 l 231 347 l 231 116 l 463 116 l 463 0 l 116 0 l 116 116 l 0 116 z "},"Ć":{"ha":926,"x_min":0,"x_max":810,"o":"m 0 231 l 0 694 l 116 694 l 116 810 l 231 810 l 231 926 l 347 926 l 347 1042 l 463 1042 l 463 1157 l 694 1157 l 694 1042 l 579 1042 l 579 926 l 694 926 l 694 810 l 810 810 l 810 579 l 694 579 l 694 694 l 579 694 l 579 810 l 347 810 l 347 694 l 231 694 l 231 231 l 347 231 l 347 116 l 579 116 l 579 231 l 694 231 l 694 347 l 810 347 l 810 116 l 694 116 l 694 0 l 231 0 l 231 116 l 116 116 l 116 231 l 0 231 z "},"ć":{"ha":926,"x_min":0,"x_max":810,"o":"m 0 116 l 0 579 l 116 579 l 116 694 l 694 694 l 694 579 l 810 579 l 810 463 l 579 463 l 579 579 l 231 579 l 231 116 l 579 116 l 579 231 l 810 231 l 810 116 l 694 116 l 694 0 l 116 0 l 116 116 l 0 116 m 231 810 l 231 926 l 347 926 l 347 1042 l 463 1042 l 463 1157 l 694 1157 l 694 1042 l 579 1042 l 579 926 l 463 926 l 463 810 l 231 810 z "},"Ĉ":{"ha":926,"x_min":0,"x_max":810,"o":"m 0 231 l 0 579 l 116 579 l 116 694 l 231 694 l 231 810 l 694 810 l 694 694 l 810 694 l 810 579 l 579 579 l 579 694 l 347 694 l 347 579 l 231 579 l 231 231 l 347 231 l 347 116 l 579 116 l 579 231 l 810 231 l 810 116 l 694 116 l 694 0 l 231 0 l 231 116 l 116 116 l 116 231 l 0 231 m 231 1042 l 231 1157 l 579 1157 l 579 1042 l 694 1042 l 694 926 l 463 926 l 463 1042 l 347 1042 l 347 926 l 116 926 l 116 1042 l 231 1042 z "},"ĉ":{"ha":926,"x_min":0,"x_max":810,"o":"m 0 116 l 0 579 l 116 579 l 116 694 l 694 694 l 694 579 l 810 579 l 810 463 l 579 463 l 579 579 l 231 579 l 231 116 l 579 116 l 579 231 l 810 231 l 810 116 l 694 116 l 694 0 l 116 0 l 116 116 l 0 116 m 231 926 l 231 1042 l 347 1042 l 347 1157 l 463 1157 l 463 1042 l 579 1042 l 579 926 l 694 926 l 694 810 l 463 810 l 463 926 l 347 926 l 347 810 l 116 810 l 116 926 l 231 926 z "},"Ċ":{"ha":926,"x_min":0,"x_max":810,"o":"m 0 231 l 0 694 l 116 694 l 116 810 l 231 810 l 231 926 l 694 926 l 694 810 l 810 810 l 810 579 l 694 579 l 694 694 l 579 694 l 579 810 l 347 810 l 347 694 l 231 694 l 231 231 l 347 231 l 347 116 l 579 116 l 579 231 l 694 231 l 694 347 l 810 347 l 810 116 l 694 116 l 694 0 l 231 0 l 231 116 l 116 116 l 116 231 l 0 231 m 347 1042 l 347 1157 l 579 1157 l 579 1042 l 347 1042 z "},"ċ":{"ha":926,"x_min":0,"x_max":810,"o":"m 0 116 l 0 579 l 116 579 l 116 694 l 694 694 l 694 579 l 810 579 l 810 463 l 579 463 l 579 579 l 231 579 l 231 116 l 579 116 l 579 231 l 810 231 l 810 116 l 694 116 l 694 0 l 116 0 l 116 116 l 0 116 m 347 810 l 347 926 l 579 926 l 579 810 l 347 810 z "},"Č":{"ha":926,"x_min":0,"x_max":810,"o":"m 0 231 l 0 579 l 116 579 l 116 694 l 231 694 l 231 810 l 694 810 l 694 694 l 810 694 l 810 579 l 579 579 l 579 694 l 347 694 l 347 579 l 231 579 l 231 231 l 347 231 l 347 116 l 579 116 l 579 231 l 810 231 l 810 116 l 694 116 l 694 0 l 231 0 l 231 116 l 116 116 l 116 231 l 0 231 m 231 1042 l 116 1042 l 116 1157 l 347 1157 l 347 1042 l 463 1042 l 463 1157 l 694 1157 l 694 1042 l 579 1042 l 579 926 l 231 926 l 231 1042 z "},"č":{"ha":926,"x_min":0,"x_max":810,"o":"m 0 116 l 0 579 l 116 579 l 116 694 l 694 694 l 694 579 l 810 579 l 810 463 l 579 463 l 579 579 l 231 579 l 231 116 l 579 116 l 579 231 l 810 231 l 810 116 l 694 116 l 694 0 l 116 0 l 116 116 l 0 116 m 231 810 l 231 926 l 116 926 l 116 1042 l 347 1042 l 347 926 l 463 926 l 463 1042 l 694 1042 l 694 926 l 579 926 l 579 810 l 231 810 z "},"Ď":{"ha":926,"x_min":0,"x_max":810,"o":"m 0 0 l 0 116 l 116 116 l 116 694 l 0 694 l 0 810 l 579 810 l 579 694 l 694 694 l 694 579 l 810 579 l 810 231 l 694 231 l 694 116 l 579 116 l 579 0 l 0 0 m 0 1042 l 0 1157 l 231 1157 l 231 1042 l 463 1042 l 463 1157 l 694 1157 l 694 1042 l 579 1042 l 579 926 l 116 926 l 116 1042 l 0 1042 m 463 116 l 463 231 l 579 231 l 579 579 l 463 579 l 463 694 l 347 694 l 347 116 l 463 116 z "},"ď":{"ha":926,"x_min":0,"x_max":810,"o":"m 0 116 l 0 463 l 116 463 l 116 579 l 231 579 l 231 694 l 463 694 l 463 926 l 347 926 l 347 810 l 231 810 l 231 926 l 116 926 l 116 1042 l 0 1042 l 0 1157 l 231 1157 l 231 1042 l 347 1042 l 347 1157 l 579 1157 l 579 1042 l 694 1042 l 694 116 l 810 116 l 810 0 l 579 0 l 579 116 l 463 116 l 463 579 l 347 579 l 347 463 l 231 463 l 231 116 l 463 116 l 463 0 l 116 0 l 116 116 l 0 116 z "},"Đ":{"ha":926,"x_min":0,"x_max":810,"o":"m 0 0 l 0 116 l 116 116 l 116 463 l 0 463 l 0 694 l 116 694 l 116 926 l 0 926 l 0 1042 l 579 1042 l 579 926 l 694 926 l 694 810 l 810 810 l 810 231 l 694 231 l 694 116 l 579 116 l 579 0 l 0 0 m 463 116 l 463 231 l 579 231 l 579 810 l 463 810 l 463 926 l 347 926 l 347 694 l 463 694 l 463 463 l 347 463 l 347 116 l 463 116 z "},"đ":{"ha":926,"x_min":0,"x_max":810,"o":"m 0 116 l 0 463 l 116 463 l 116 579 l 231 579 l 231 694 l 463 694 l 463 810 l 116 810 l 116 926 l 347 926 l 347 1042 l 694 1042 l 694 926 l 810 926 l 810 810 l 694 810 l 694 116 l 810 116 l 810 0 l 579 0 l 579 116 l 463 116 l 463 579 l 347 579 l 347 463 l 231 463 l 231 116 l 463 116 l 463 0 l 116 0 l 116 116 l 0 116 z "},"Ē":{"ha":926,"x_min":0,"x_max":810,"o":"m 0 0 l 0 116 l 116 116 l 116 810 l 0 810 l 0 926 l 810 926 l 810 579 l 694 579 l 694 694 l 579 694 l 579 810 l 347 810 l 347 579 l 579 579 l 579 463 l 347 463 l 347 116 l 579 116 l 579 231 l 694 231 l 694 347 l 810 347 l 810 0 l 0 0 m 694 1157 l 694 1042 l 116 1042 l 116 1157 l 694 1157 z "},"ē":{"ha":926,"x_min":0,"x_max":810,"o":"m 0 116 l 0 579 l 116 579 l 116 694 l 694 694 l 694 579 l 810 579 l 810 347 l 231 347 l 231 116 l 579 116 l 579 231 l 810 231 l 810 116 l 694 116 l 694 0 l 116 0 l 116 116 l 0 116 m 231 579 l 231 463 l 579 463 l 579 579 l 231 579 m 694 810 l 116 810 l 116 926 l 694 926 l 694 810 z "},"Ĕ":{"ha":926,"x_min":0,"x_max":810,"o":"m 0 0 l 0 116 l 116 116 l 116 694 l 0 694 l 0 810 l 810 810 l 810 579 l 579 579 l 579 694 l 347 694 l 347 463 l 579 463 l 579 347 l 347 347 l 347 116 l 579 116 l 579 231 l 810 231 l 810 0 l 0 0 m 0 1042 l 0 1157 l 231 1157 l 231 1042 l 579 1042 l 579 1157 l 810 1157 l 810 1042 l 694 1042 l 694 926 l 116 926 l 116 1042 l 0 1042 z "},"ĕ":{"ha":926,"x_min":0,"x_max":810,"o":"m 0 116 l 0 579 l 116 579 l 116 694 l 694 694 l 694 579 l 810 579 l 810 347 l 231 347 l 231 116 l 579 116 l 579 231 l 810 231 l 810 116 l 694 116 l 694 0 l 116 0 l 116 116 l 0 116 m 0 926 l 0 1042 l 231 1042 l 231 926 l 579 926 l 579 1042 l 810 1042 l 810 926 l 694 926 l 694 810 l 116 810 l 116 926 l 0 926 m 231 579 l 231 463 l 579 463 l 579 579 l 231 579 z "},"Ė":{"ha":926,"x_min":0,"x_max":810,"o":"m 0 0 l 0 116 l 116 116 l 116 810 l 0 810 l 0 926 l 810 926 l 810 579 l 694 579 l 694 694 l 579 694 l 579 810 l 347 810 l 347 579 l 579 579 l 579 463 l 347 463 l 347 116 l 579 116 l 579 231 l 694 231 l 694 347 l 810 347 l 810 0 l 0 0 m 347 1042 l 347 1157 l 579 1157 l 579 1042 l 347 1042 z "},"ė":{"ha":926,"x_min":0,"x_max":810,"o":"m 0 116 l 0 579 l 116 579 l 116 694 l 694 694 l 694 579 l 810 579 l 810 347 l 231 347 l 231 116 l 579 116 l 579 231 l 810 231 l 810 116 l 694 116 l 694 0 l 116 0 l 116 116 l 0 116 m 231 579 l 231 463 l 579 463 l 579 579 l 231 579 m 347 810 l 347 926 l 579 926 l 579 810 l 347 810 z "},"Ę":{"ha":926,"x_min":0,"x_max":810,"o":"m 0 0 l 0 116 l 116 116 l 116 926 l 0 926 l 0 1042 l 810 1042 l 810 694 l 694 694 l 694 810 l 579 810 l 579 926 l 347 926 l 347 579 l 463 579 l 463 694 l 579 694 l 579 347 l 463 347 l 463 463 l 347 463 l 347 116 l 579 116 l 579 231 l 694 231 l 694 347 l 810 347 l 810 0 l 579 0 l 579 -116 l 694 -116 l 694 -231 l 347 -231 l 347 0 l 0 0 z "},"ę":{"ha":926,"x_min":0,"x_max":810,"o":"m 0 116 l 0 579 l 116 579 l 116 694 l 694 694 l 694 579 l 810 579 l 810 347 l 231 347 l 231 116 l 579 116 l 579 231 l 810 231 l 810 116 l 694 116 l 694 0 l 579 0 l 579 -116 l 694 -116 l 694 -231 l 347 -231 l 347 0 l 116 0 l 116 116 l 0 116 m 231 579 l 231 463 l 579 463 l 579 579 l 231 579 z "},"Ě":{"ha":926,"x_min":0,"x_max":810,"o":"m 0 0 l 0 116 l 116 116 l 116 694 l 0 694 l 0 810 l 810 810 l 810 579 l 579 579 l 579 694 l 347 694 l 347 463 l 579 463 l 579 347 l 347 347 l 347 116 l 579 116 l 579 231 l 810 231 l 810 0 l 0 0 m 231 1042 l 116 1042 l 116 1157 l 347 1157 l 347 1042 l 463 1042 l 463 1157 l 694 1157 l 694 1042 l 579 1042 l 579 926 l 231 926 l 231 1042 z "},"ě":{"ha":926,"x_min":0,"x_max":810,"o":"m 0 116 l 0 579 l 116 579 l 116 694 l 694 694 l 694 579 l 810 579 l 810 347 l 231 347 l 231 116 l 579 116 l 579 231 l 810 231 l 810 116 l 694 116 l 694 0 l 116 0 l 116 116 l 0 116 m 231 579 l 231 463 l 579 463 l 579 579 l 231 579 m 231 810 l 231 926 l 116 926 l 116 1042 l 347 1042 l 347 926 l 463 926 l 463 1042 l 694 1042 l 694 926 l 579 926 l 579 810 l 231 810 z "},"Ĝ":{"ha":926,"x_min":0,"x_max":810,"o":"m 0 231 l 0 694 l 116 694 l 116 810 l 231 810 l 231 926 l 116 926 l 116 1042 l 231 1042 l 231 1157 l 694 1157 l 694 1042 l 810 1042 l 810 926 l 694 926 l 694 810 l 810 810 l 810 579 l 694 579 l 694 694 l 579 694 l 579 810 l 347 810 l 347 694 l 231 694 l 231 231 l 347 231 l 347 116 l 579 116 l 579 0 l 231 0 l 231 116 l 116 116 l 116 231 l 0 231 m 694 116 l 579 116 l 579 347 l 347 347 l 347 463 l 810 463 l 810 0 l 694 0 l 694 116 m 347 1042 l 347 926 l 579 926 l 579 1042 l 347 1042 z "},"ĝ":{"ha":926,"x_min":0,"x_max":810,"o":"m 0 -116 l 0 0 l 231 0 l 231 -116 l 463 -116 l 463 116 l 116 116 l 116 231 l 0 231 l 0 579 l 116 579 l 116 694 l 463 694 l 463 579 l 231 579 l 231 231 l 463 231 l 463 579 l 579 579 l 579 694 l 810 694 l 810 579 l 694 579 l 694 -116 l 579 -116 l 579 -231 l 116 -231 l 116 -116 l 0 -116 m 231 926 l 231 1042 l 347 1042 l 347 1157 l 463 1157 l 463 1042 l 579 1042 l 579 926 l 694 926 l 694 810 l 463 810 l 463 926 l 347 926 l 347 810 l 116 810 l 116 926 l 231 926 z "},"Ğ":{"ha":926,"x_min":0,"x_max":810,"o":"m 0 231 l 0 694 l 116 694 l 116 810 l 231 810 l 231 926 l 116 926 l 116 1157 l 347 1157 l 347 1042 l 579 1042 l 579 1157 l 810 1157 l 810 926 l 694 926 l 694 810 l 810 810 l 810 579 l 694 579 l 694 694 l 579 694 l 579 810 l 347 810 l 347 694 l 231 694 l 231 231 l 347 231 l 347 116 l 579 116 l 579 0 l 231 0 l 231 116 l 116 116 l 116 231 l 0 231 m 694 116 l 579 116 l 579 347 l 347 347 l 347 463 l 810 463 l 810 0 l 694 0 l 694 116 z "},"ğ":{"ha":926,"x_min":0,"x_max":810,"o":"m 0 -116 l 0 0 l 231 0 l 231 -116 l 463 -116 l 463 116 l 116 116 l 116 231 l 0 231 l 0 579 l 116 579 l 116 694 l 463 694 l 463 579 l 231 579 l 231 231 l 463 231 l 463 579 l 579 579 l 579 694 l 810 694 l 810 579 l 694 579 l 694 -116 l 579 -116 l 579 -231 l 116 -231 l 116 -116 l 0 -116 m 0 926 l 0 1042 l 231 1042 l 231 926 l 463 926 l 463 1042 l 694 1042 l 694 926 l 579 926 l 579 810 l 116 810 l 116 926 l 0 926 z "},"Ġ":{"ha":926,"x_min":0,"x_max":810,"o":"m 0 231 l 0 694 l 116 694 l 116 810 l 231 810 l 231 926 l 694 926 l 694 810 l 810 810 l 810 579 l 694 579 l 694 694 l 579 694 l 579 810 l 347 810 l 347 694 l 231 694 l 231 231 l 347 231 l 347 116 l 579 116 l 579 0 l 231 0 l 231 116 l 116 116 l 116 231 l 0 231 m 694 116 l 579 116 l 579 347 l 347 347 l 347 463 l 810 463 l 810 0 l 694 0 l 694 116 m 347 1042 l 347 1157 l 579 1157 l 579 1042 l 347 1042 z "},"ġ":{"ha":926,"x_min":0,"x_max":810,"o":"m 0 -116 l 0 0 l 231 0 l 231 -116 l 463 -116 l 463 116 l 116 116 l 116 231 l 0 231 l 0 579 l 116 579 l 116 694 l 463 694 l 463 579 l 231 579 l 231 231 l 463 231 l 463 579 l 579 579 l 579 694 l 810 694 l 810 579 l 694 579 l 694 -116 l 579 -116 l 579 -231 l 116 -231 l 116 -116 l 0 -116 m 347 810 l 347 926 l 579 926 l 579 810 l 347 810 z "},"Ģ":{"ha":926,"x_min":0,"x_max":810,"o":"m 0 231 l 0 810 l 116 810 l 116 926 l 231 926 l 231 1042 l 694 1042 l 694 926 l 810 926 l 810 694 l 694 694 l 694 810 l 579 810 l 579 926 l 347 926 l 347 810 l 231 810 l 231 231 l 347 231 l 347 116 l 579 116 l 579 -116 l 463 -116 l 463 -231 l 116 -231 l 116 -116 l 347 -116 l 347 0 l 231 0 l 231 116 l 116 116 l 116 231 l 0 231 m 694 116 l 579 116 l 579 347 l 347 347 l 347 463 l 810 463 l 810 0 l 694 0 l 694 116 z "},"ģ":{"ha":926,"x_min":0,"x_max":810,"o":"m 0 -116 l 0 0 l 231 0 l 231 -116 l 463 -116 l 463 116 l 116 116 l 116 231 l 0 231 l 0 579 l 116 579 l 116 694 l 463 694 l 463 579 l 231 579 l 231 231 l 463 231 l 463 579 l 579 579 l 579 694 l 810 694 l 810 579 l 694 579 l 694 -116 l 579 -116 l 579 -231 l 116 -231 l 116 -116 l 0 -116 m 231 810 l 231 926 l 347 926 l 347 1042 l 694 1042 l 694 926 l 463 926 l 463 810 l 231 810 z "},"Ĥ":{"ha":926,"x_min":0,"x_max":810,"o":"m 0 0 l 0 810 l 231 810 l 231 463 l 579 463 l 579 810 l 810 810 l 810 0 l 579 0 l 579 347 l 231 347 l 231 0 l 0 0 m 116 926 l 116 1042 l 231 1042 l 231 1157 l 579 1157 l 579 1042 l 694 1042 l 694 926 l 463 926 l 463 1042 l 347 1042 l 347 926 l 116 926 z "},"ĥ":{"ha":926,"x_min":0,"x_max":810,"o":"m 0 0 l 0 116 l 116 116 l 116 810 l 0 810 l 0 926 l 231 926 l 231 1042 l 347 1042 l 347 1157 l 463 1157 l 463 1042 l 579 1042 l 579 926 l 694 926 l 694 810 l 463 810 l 463 926 l 347 926 l 347 579 l 463 579 l 463 463 l 347 463 l 347 0 l 0 0 m 463 579 l 463 694 l 694 694 l 694 579 l 810 579 l 810 0 l 579 0 l 579 579 l 463 579 z "},"Ħ":{"ha":926,"x_min":0,"x_max":926,"o":"m 0 694 l 0 810 l 116 810 l 116 1042 l 347 1042 l 347 810 l 579 810 l 579 1042 l 810 1042 l 810 810 l 926 810 l 926 694 l 810 694 l 810 0 l 579 0 l 579 463 l 347 463 l 347 0 l 116 0 l 116 694 l 0 694 m 347 579 l 579 579 l 579 694 l 347 694 l 347 579 z "},"ħ":{"ha":926,"x_min":0,"x_max":810,"o":"m 0 0 l 0 116 l 116 116 l 116 694 l 0 694 l 0 810 l 116 810 l 116 926 l 0 926 l 0 1042 l 347 1042 l 347 810 l 463 810 l 463 694 l 347 694 l 347 579 l 463 579 l 463 463 l 347 463 l 347 0 l 0 0 m 463 579 l 463 694 l 694 694 l 694 579 l 810 579 l 810 0 l 579 0 l 579 579 l 463 579 z "},"Ĩ":{"ha":926,"x_min":0,"x_max":810,"o":"m 0 926 l 0 1042 l 116 1042 l 116 1157 l 463 1157 l 463 1042 l 579 1042 l 579 1157 l 810 1157 l 810 1042 l 694 1042 l 694 926 l 347 926 l 347 1042 l 231 1042 l 231 926 l 0 926 m 231 0 l 231 116 l 347 116 l 347 694 l 231 694 l 231 810 l 694 810 l 694 694 l 579 694 l 579 116 l 694 116 l 694 0 l 231 0 z "},"ĩ":{"ha":926,"x_min":0,"x_max":810,"o":"m 0 810 l 0 926 l 116 926 l 116 1042 l 463 1042 l 463 926 l 579 926 l 579 1042 l 810 1042 l 810 926 l 694 926 l 694 810 l 347 810 l 347 926 l 231 926 l 231 810 l 0 810 m 231 0 l 231 116 l 347 116 l 347 579 l 231 579 l 231 694 l 579 694 l 579 116 l 694 116 l 694 0 l 231 0 z "},"Ī":{"ha":926,"x_min":116,"x_max":810,"o":"m 116 1042 l 116 1157 l 810 1157 l 810 1042 l 116 1042 m 231 0 l 231 116 l 347 116 l 347 810 l 231 810 l 231 926 l 694 926 l 694 810 l 579 810 l 579 116 l 694 116 l 694 0 l 231 0 z "},"ī":{"ha":926,"x_min":116,"x_max":810,"o":"m 116 810 l 116 926 l 810 926 l 810 810 l 116 810 m 231 0 l 231 116 l 347 116 l 347 579 l 231 579 l 231 694 l 579 694 l 579 116 l 694 116 l 694 0 l 231 0 z "},"Ĭ":{"ha":926,"x_min":116,"x_max":810,"o":"m 116 1042 l 116 1157 l 347 1157 l 347 1042 l 579 1042 l 579 1157 l 810 1157 l 810 1042 l 694 1042 l 694 926 l 231 926 l 231 1042 l 116 1042 m 231 0 l 231 116 l 347 116 l 347 694 l 231 694 l 231 810 l 694 810 l 694 694 l 579 694 l 579 116 l 694 116 l 694 0 l 231 0 z "},"ĭ":{"ha":926,"x_min":116,"x_max":810,"o":"m 116 926 l 116 1042 l 347 1042 l 347 926 l 579 926 l 579 1042 l 810 1042 l 810 926 l 694 926 l 694 810 l 231 810 l 231 926 l 116 926 m 231 0 l 231 116 l 347 116 l 347 579 l 231 579 l 231 694 l 579 694 l 579 116 l 694 116 l 694 0 l 231 0 z "},"Į":{"ha":926,"x_min":231,"x_max":810,"o":"m 231 0 l 231 116 l 347 116 l 347 926 l 231 926 l 231 1042 l 694 1042 l 694 926 l 579 926 l 579 116 l 694 116 l 694 0 l 579 0 l 579 -116 l 810 -116 l 810 -231 l 463 -231 l 463 -116 l 347 -116 l 347 0 l 231 0 z "},"į":{"ha":926,"x_min":231,"x_max":810,"o":"m 231 0 l 231 116 l 347 116 l 347 579 l 231 579 l 231 694 l 579 694 l 579 116 l 694 116 l 694 0 l 579 0 l 579 -116 l 810 -116 l 810 -231 l 463 -231 l 463 -116 l 347 -116 l 347 0 l 231 0 m 347 810 l 347 1042 l 579 1042 l 579 810 l 347 810 z "},"İ":{"ha":926,"x_min":231,"x_max":694,"o":"m 231 0 l 231 116 l 347 116 l 347 810 l 231 810 l 231 926 l 694 926 l 694 810 l 579 810 l 579 116 l 694 116 l 694 0 l 231 0 m 347 1042 l 347 1157 l 579 1157 l 579 1042 l 347 1042 z "},"ı":{"ha":926,"x_min":231,"x_max":694,"o":"m 579 116 l 694 116 l 694 0 l 231 0 l 231 116 l 347 116 l 347 579 l 231 579 l 231 694 l 579 694 l 579 116 z "},"Ĳ":{"ha":926,"x_min":0,"x_max":810,"o":"m 0 0 l 0 1042 l 231 1042 l 231 0 l 0 0 m 347 116 l 347 347 l 463 347 l 463 116 l 347 116 m 463 116 l 579 116 l 579 926 l 463 926 l 463 1042 l 810 1042 l 810 116 l 694 116 l 694 0 l 463 0 l 463 116 z "},"ĳ":{"ha":926,"x_min":0,"x_max":810,"o":"m 0 0 l 0 694 l 231 694 l 231 0 l 0 0 m 0 810 l 0 1042 l 231 1042 l 231 810 l 0 810 m 463 -116 l 579 -116 l 579 579 l 463 579 l 463 694 l 810 694 l 810 -116 l 694 -116 l 694 -231 l 463 -231 l 463 -116 m 463 116 l 463 -116 l 347 -116 l 347 116 l 463 116 m 579 810 l 579 1042 l 810 1042 l 810 810 l 579 810 z "},"Ĵ":{"ha":926,"x_min":0,"x_max":810,"o":"m 0 116 l 0 347 l 231 347 l 231 116 l 463 116 l 463 694 l 347 694 l 347 810 l 810 810 l 810 694 l 694 694 l 694 116 l 579 116 l 579 0 l 116 0 l 116 116 l 0 116 m 231 926 l 231 1042 l 347 1042 l 347 1157 l 694 1157 l 694 1042 l 810 1042 l 810 926 l 579 926 l 579 1042 l 463 1042 l 463 926 l 231 926 z "},"ĵ":{"ha":926,"x_min":0,"x_max":810,"o":"m 0 116 l 231 116 l 231 -116 l 463 -116 l 463 579 l 347 579 l 347 694 l 694 694 l 694 -116 l 579 -116 l 579 -231 l 116 -231 l 116 -116 l 0 -116 l 0 116 m 231 810 l 231 926 l 347 926 l 347 1042 l 463 1042 l 463 1157 l 579 1157 l 579 1042 l 694 1042 l 694 926 l 810 926 l 810 810 l 579 810 l 579 926 l 463 926 l 463 810 l 231 810 z "},"Ķ":{"ha":926,"x_min":0,"x_max":810,"o":"m 0 0 l 0 116 l 116 116 l 116 926 l 0 926 l 0 1042 l 347 1042 l 347 579 l 463 579 l 463 810 l 579 810 l 579 1042 l 810 1042 l 810 810 l 694 810 l 694 579 l 579 579 l 579 463 l 694 463 l 694 231 l 810 231 l 810 0 l 579 0 l 579 231 l 463 231 l 463 463 l 347 463 l 347 0 l 0 0 m 463 -116 l 463 -231 l 116 -231 l 116 -116 l 347 -116 l 347 0 l 579 0 l 579 -116 l 463 -116 z "},"ķ":{"ha":926,"x_min":0,"x_max":810,"o":"m 0 0 l 0 116 l 116 116 l 116 926 l 0 926 l 0 1042 l 347 1042 l 347 463 l 463 463 l 463 579 l 579 579 l 579 694 l 810 694 l 810 579 l 694 579 l 694 463 l 579 463 l 579 347 l 694 347 l 694 231 l 810 231 l 810 0 l 579 0 l 579 231 l 463 231 l 463 347 l 347 347 l 347 0 l 0 0 m 463 -116 l 463 -231 l 116 -231 l 116 -116 l 347 -116 l 347 0 l 579 0 l 579 -116 l 463 -116 z "},"ĸ":{"ha":926,"x_min":0,"x_max":810,"o":"m 0 0 l 0 116 l 116 116 l 116 579 l 0 579 l 0 694 l 347 694 l 347 463 l 463 463 l 463 579 l 579 579 l 579 694 l 810 694 l 810 579 l 694 579 l 694 463 l 579 463 l 579 347 l 694 347 l 694 231 l 810 231 l 810 0 l 579 0 l 579 231 l 463 231 l 463 347 l 347 347 l 347 0 l 0 0 z "},"Ĺ":{"ha":926,"x_min":0,"x_max":810,"o":"m 0 0 l 0 116 l 116 116 l 116 926 l 0 926 l 0 1042 l 463 1042 l 463 926 l 347 926 l 347 116 l 579 116 l 579 231 l 694 231 l 694 347 l 810 347 l 810 0 l 0 0 m 463 810 l 463 926 l 579 926 l 579 1042 l 810 1042 l 810 926 l 694 926 l 694 810 l 463 810 z "},"ĺ":{"ha":926,"x_min":0,"x_max":810,"o":"m 0 0 l 0 116 l 116 116 l 116 926 l 0 926 l 0 1042 l 347 1042 l 347 116 l 463 116 l 463 0 l 0 0 m 463 926 l 463 1042 l 579 1042 l 579 1157 l 810 1157 l 810 1042 l 694 1042 l 694 926 l 463 926 z "},"Ļ":{"ha":926,"x_min":0,"x_max":810,"o":"m 0 0 l 0 116 l 116 116 l 116 926 l 0 926 l 0 1042 l 463 1042 l 463 926 l 347 926 l 347 116 l 579 116 l 579 231 l 694 231 l 694 347 l 810 347 l 810 0 l 579 0 l 579 -116 l 463 -116 l 463 -231 l 116 -231 l 116 -116 l 347 -116 l 347 0 l 0 0 z "},"ļ":{"ha":926,"x_min":116,"x_max":694,"o":"m 116 -231 l 116 -116 l 347 -116 l 347 0 l 231 0 l 231 116 l 347 116 l 347 926 l 231 926 l 231 1042 l 579 1042 l 579 116 l 694 116 l 694 0 l 579 0 l 579 -116 l 463 -116 l 463 -231 l 116 -231 z "},"Ľ":{"ha":926,"x_min":0,"x_max":810,"o":"m 0 0 l 0 116 l 116 116 l 116 694 l 0 694 l 0 810 l 463 810 l 463 694 l 347 694 l 347 116 l 579 116 l 579 231 l 694 231 l 694 347 l 810 347 l 810 0 l 0 0 m 0 1042 l 0 1157 l 231 1157 l 231 1042 l 347 1042 l 347 1157 l 579 1157 l 579 1042 l 463 1042 l 463 926 l 116 926 l 116 1042 l 0 1042 z "},"ľ":{"ha":926,"x_min":0,"x_max":926,"o":"m 0 0 l 0 116 l 116 116 l 116 926 l 0 926 l 0 1042 l 347 1042 l 347 116 l 463 116 l 463 0 l 0 0 m 463 1042 l 347 1042 l 347 1157 l 579 1157 l 579 1042 l 694 1042 l 694 1157 l 926 1157 l 926 1042 l 810 1042 l 810 926 l 694 926 l 694 810 l 579 810 l 579 926 l 463 926 l 463 1042 z "},"Ŀ":{"ha":926,"x_min":0,"x_max":810,"o":"m 0 0 l 0 116 l 116 116 l 116 926 l 0 926 l 0 1042 l 463 1042 l 463 926 l 347 926 l 347 116 l 579 116 l 579 231 l 694 231 l 694 347 l 810 347 l 810 0 l 0 0 m 463 463 l 463 694 l 694 694 l 694 463 l 463 463 z "},"ŀ":{"ha":926,"x_min":116,"x_max":810,"o":"m 116 0 l 116 116 l 231 116 l 231 926 l 116 926 l 116 1042 l 463 1042 l 463 116 l 579 116 l 579 0 l 116 0 m 579 463 l 579 694 l 810 694 l 810 463 l 579 463 z "},"Ł":{"ha":926,"x_min":0,"x_max":810,"o":"m 0 231 l 0 347 l 116 347 l 116 463 l 231 463 l 231 926 l 116 926 l 116 1042 l 579 1042 l 579 926 l 463 926 l 463 810 l 694 810 l 694 694 l 579 694 l 579 579 l 463 579 l 463 116 l 579 116 l 579 231 l 694 231 l 694 347 l 810 347 l 810 0 l 116 0 l 116 116 l 231 116 l 231 231 l 0 231 z "},"ł":{"ha":926,"x_min":0,"x_max":810,"o":"m 0 231 l 0 347 l 116 347 l 116 463 l 231 463 l 231 579 l 347 579 l 347 926 l 231 926 l 231 1042 l 579 1042 l 579 926 l 810 926 l 810 810 l 694 810 l 694 694 l 579 694 l 579 116 l 694 116 l 694 0 l 231 0 l 231 116 l 347 116 l 347 347 l 231 347 l 231 231 l 0 231 z "},"Ń":{"ha":926,"x_min":0,"x_max":810,"o":"m 0 0 l 0 810 l 231 810 l 231 694 l 347 694 l 347 579 l 463 579 l 463 463 l 579 463 l 579 810 l 810 810 l 810 0 l 579 0 l 579 231 l 463 231 l 463 347 l 347 347 l 347 463 l 231 463 l 231 0 l 0 0 m 231 926 l 231 1042 l 347 1042 l 347 1157 l 579 1157 l 579 1042 l 463 1042 l 463 926 l 231 926 z "},"ń":{"ha":926,"x_min":0,"x_max":810,"o":"m 0 579 l 0 694 l 231 694 l 231 579 l 347 579 l 347 0 l 116 0 l 116 579 l 0 579 m 231 810 l 231 926 l 347 926 l 347 1042 l 579 1042 l 579 926 l 463 926 l 463 810 l 231 810 m 347 579 l 347 694 l 694 694 l 694 579 l 810 579 l 810 0 l 579 0 l 579 579 l 347 579 z "},"Ņ":{"ha":926,"x_min":0,"x_max":810,"o":"m 0 0 l 0 1042 l 231 1042 l 231 926 l 347 926 l 347 810 l 463 810 l 463 694 l 579 694 l 579 1042 l 810 1042 l 810 0 l 579 0 l 579 347 l 463 347 l 463 463 l 347 463 l 347 579 l 231 579 l 231 0 l 0 0 m 463 -116 l 463 -231 l 116 -231 l 116 -116 l 347 -116 l 347 0 l 579 0 l 579 -116 l 463 -116 z "},"ņ":{"ha":926,"x_min":0,"x_max":810,"o":"m 0 579 l 0 694 l 231 694 l 231 579 l 347 579 l 347 0 l 116 0 l 116 579 l 0 579 m 116 -231 l 116 -116 l 347 -116 l 347 0 l 579 0 l 579 -116 l 463 -116 l 463 -231 l 116 -231 m 347 579 l 347 694 l 694 694 l 694 579 l 810 579 l 810 0 l 579 0 l 579 579 l 347 579 z "},"Ň":{"ha":926,"x_min":0,"x_max":810,"o":"m 0 0 l 0 810 l 231 810 l 231 694 l 347 694 l 347 579 l 463 579 l 463 463 l 579 463 l 579 810 l 810 810 l 810 0 l 579 0 l 579 231 l 463 231 l 463 347 l 347 347 l 347 463 l 231 463 l 231 0 l 0 0 m 231 1042 l 116 1042 l 116 1157 l 347 1157 l 347 1042 l 463 1042 l 463 1157 l 694 1157 l 694 1042 l 579 1042 l 579 926 l 231 926 l 231 1042 z "},"ň":{"ha":926,"x_min":0,"x_max":810,"o":"m 0 579 l 0 694 l 231 694 l 231 579 l 347 579 l 347 0 l 116 0 l 116 579 l 0 579 m 231 810 l 231 926 l 116 926 l 116 1042 l 347 1042 l 347 926 l 463 926 l 463 1042 l 694 1042 l 694 926 l 579 926 l 579 810 l 231 810 m 694 579 l 810 579 l 810 0 l 579 0 l 579 579 l 347 579 l 347 694 l 694 694 l 694 579 z "},"ŉ":{"ha":926,"x_min":0,"x_max":810,"o":"m 0 579 l 0 694 l 231 694 l 231 579 l 347 579 l 347 0 l 116 0 l 116 579 l 0 579 m 0 810 l 0 926 l 116 926 l 116 1157 l 347 1157 l 347 926 l 231 926 l 231 810 l 0 810 m 347 579 l 347 694 l 694 694 l 694 579 l 810 579 l 810 0 l 579 0 l 579 579 l 347 579 z "},"Ŋ":{"ha":926,"x_min":0,"x_max":810,"o":"m 0 0 l 0 1042 l 231 1042 l 231 926 l 347 926 l 347 810 l 463 810 l 463 694 l 579 694 l 579 1042 l 810 1042 l 810 -116 l 694 -116 l 694 -231 l 347 -231 l 347 -116 l 579 -116 l 579 347 l 463 347 l 463 463 l 347 463 l 347 579 l 231 579 l 231 0 l 0 0 z "},"ŋ":{"ha":926,"x_min":0,"x_max":810,"o":"m 0 579 l 0 694 l 231 694 l 231 579 l 347 579 l 347 0 l 116 0 l 116 579 l 0 579 m 347 -231 l 347 -116 l 579 -116 l 579 579 l 347 579 l 347 694 l 694 694 l 694 579 l 810 579 l 810 -116 l 694 -116 l 694 -231 l 347 -231 z "},"Ō":{"ha":926,"x_min":0,"x_max":810,"o":"m 0 231 l 0 694 l 116 694 l 116 810 l 231 810 l 231 926 l 579 926 l 579 810 l 694 810 l 694 694 l 810 694 l 810 231 l 694 231 l 694 116 l 579 116 l 579 0 l 231 0 l 231 116 l 116 116 l 116 231 l 0 231 m 231 231 l 347 231 l 347 116 l 463 116 l 463 231 l 579 231 l 579 694 l 463 694 l 463 810 l 347 810 l 347 694 l 231 694 l 231 231 m 694 1157 l 694 1042 l 116 1042 l 116 1157 l 694 1157 z "},"ō":{"ha":926,"x_min":0,"x_max":810,"o":"m 0 116 l 0 579 l 116 579 l 116 694 l 694 694 l 694 579 l 810 579 l 810 116 l 694 116 l 694 0 l 116 0 l 116 116 l 0 116 m 116 810 l 116 926 l 694 926 l 694 810 l 116 810 m 231 116 l 579 116 l 579 579 l 231 579 l 231 116 z "},"Ŏ":{"ha":926,"x_min":0,"x_max":810,"o":"m 0 231 l 0 694 l 116 694 l 116 810 l 231 810 l 231 926 l 116 926 l 116 1042 l 0 1042 l 0 1157 l 231 1157 l 231 1042 l 579 1042 l 579 1157 l 810 1157 l 810 1042 l 694 1042 l 694 926 l 579 926 l 579 810 l 694 810 l 694 694 l 810 694 l 810 231 l 694 231 l 694 116 l 579 116 l 579 0 l 231 0 l 231 116 l 116 116 l 116 231 l 0 231 m 231 231 l 347 231 l 347 116 l 463 116 l 463 231 l 579 231 l 579 694 l 463 694 l 463 810 l 347 810 l 347 694 l 231 694 l 231 231 z "},"ŏ":{"ha":926,"x_min":0,"x_max":810,"o":"m 0 116 l 0 579 l 116 579 l 116 694 l 694 694 l 694 579 l 810 579 l 810 116 l 694 116 l 694 0 l 116 0 l 116 116 l 0 116 m 0 926 l 0 1042 l 231 1042 l 231 926 l 579 926 l 579 1042 l 810 1042 l 810 926 l 694 926 l 694 810 l 116 810 l 116 926 l 0 926 m 231 116 l 579 116 l 579 579 l 231 579 l 231 116 z "},"Ő":{"ha":926,"x_min":0,"x_max":926,"o":"m 0 231 l 0 694 l 116 694 l 116 810 l 231 810 l 231 926 l 579 926 l 579 810 l 694 810 l 694 694 l 810 694 l 810 231 l 694 231 l 694 116 l 579 116 l 579 0 l 231 0 l 231 116 l 116 116 l 116 231 l 0 231 m 0 926 l 0 1042 l 116 1042 l 116 1157 l 347 1157 l 347 1042 l 231 1042 l 231 926 l 0 926 m 231 231 l 347 231 l 347 116 l 463 116 l 463 231 l 579 231 l 579 694 l 463 694 l 463 810 l 347 810 l 347 694 l 231 694 l 231 231 m 694 1042 l 694 1157 l 926 1157 l 926 1042 l 810 1042 l 810 926 l 579 926 l 579 1042 l 694 1042 z "},"ő":{"ha":926,"x_min":0,"x_max":810,"o":"m 0 116 l 0 579 l 116 579 l 116 694 l 694 694 l 694 579 l 810 579 l 810 116 l 694 116 l 694 0 l 116 0 l 116 116 l 0 116 m 0 810 l 0 926 l 116 926 l 116 1042 l 347 1042 l 347 926 l 231 926 l 231 810 l 0 810 m 231 116 l 579 116 l 579 579 l 231 579 l 231 116 m 463 810 l 463 926 l 579 926 l 579 1042 l 810 1042 l 810 926 l 694 926 l 694 810 l 463 810 z "},"Œ":{"ha":926,"x_min":0,"x_max":810,"o":"m 0 231 l 0 810 l 116 810 l 116 926 l 231 926 l 231 1042 l 810 1042 l 810 926 l 694 926 l 694 579 l 810 579 l 810 463 l 694 463 l 694 116 l 810 116 l 810 0 l 231 0 l 231 116 l 116 116 l 116 231 l 0 231 m 231 231 l 347 231 l 347 116 l 463 116 l 463 926 l 347 926 l 347 810 l 231 810 l 231 231 z "},"œ":{"ha":926,"x_min":0,"x_max":810,"o":"m 0 116 l 0 579 l 116 579 l 116 694 l 347 694 l 347 579 l 231 579 l 231 116 l 347 116 l 347 0 l 116 0 l 116 116 l 0 116 m 463 116 l 347 116 l 347 579 l 463 579 l 463 463 l 579 463 l 579 579 l 463 579 l 463 694 l 694 694 l 694 579 l 810 579 l 810 347 l 579 347 l 579 116 l 810 116 l 810 0 l 463 0 l 463 116 z "},"Ŕ":{"ha":926,"x_min":0,"x_max":810,"o":"m 0 0 l 0 116 l 116 116 l 116 694 l 0 694 l 0 810 l 694 810 l 694 694 l 810 694 l 810 463 l 694 463 l 694 231 l 810 231 l 810 0 l 579 0 l 579 231 l 463 231 l 463 347 l 347 347 l 347 0 l 0 0 m 463 1042 l 463 1157 l 694 1157 l 694 1042 l 579 1042 l 579 926 l 347 926 l 347 1042 l 463 1042 m 347 463 l 579 463 l 579 694 l 347 694 l 347 463 z "},"ŕ":{"ha":926,"x_min":0,"x_max":810,"o":"m 0 0 l 0 116 l 116 116 l 116 579 l 0 579 l 0 694 l 231 694 l 231 579 l 347 579 l 347 694 l 694 694 l 694 579 l 810 579 l 810 347 l 579 347 l 579 579 l 463 579 l 463 463 l 347 463 l 347 116 l 463 116 l 463 0 l 0 0 m 231 810 l 231 926 l 347 926 l 347 1042 l 463 1042 l 463 1157 l 694 1157 l 694 1042 l 579 1042 l 579 926 l 463 926 l 463 810 l 231 810 z "},"Ŗ":{"ha":926,"x_min":0,"x_max":810,"o":"m 0 0 l 0 116 l 116 116 l 116 926 l 0 926 l 0 1042 l 694 1042 l 694 926 l 810 926 l 810 579 l 694 579 l 694 347 l 810 347 l 810 0 l 579 0 l 579 347 l 463 347 l 463 463 l 347 463 l 347 0 l 0 0 m 463 -116 l 463 -231 l 116 -231 l 116 -116 l 347 -116 l 347 0 l 579 0 l 579 -116 l 463 -116 m 347 579 l 579 579 l 579 926 l 347 926 l 347 579 z "},"ŗ":{"ha":926,"x_min":0,"x_max":810,"o":"m 0 0 l 0 116 l 116 116 l 116 579 l 0 579 l 0 694 l 231 694 l 231 579 l 347 579 l 347 694 l 694 694 l 694 579 l 810 579 l 810 347 l 579 347 l 579 579 l 463 579 l 463 463 l 347 463 l 347 116 l 463 116 l 463 0 l 579 0 l 579 -116 l 463 -116 l 463 -231 l 116 -231 l 116 -116 l 347 -116 l 347 0 l 0 0 z "},"Ř":{"ha":926,"x_min":0,"x_max":810,"o":"m 0 0 l 0 116 l 116 116 l 116 694 l 0 694 l 0 810 l 694 810 l 694 694 l 810 694 l 810 463 l 694 463 l 694 231 l 810 231 l 810 0 l 579 0 l 579 231 l 463 231 l 463 347 l 347 347 l 347 0 l 0 0 m 231 1042 l 116 1042 l 116 1157 l 347 1157 l 347 1042 l 463 1042 l 463 1157 l 694 1157 l 694 1042 l 579 1042 l 579 926 l 231 926 l 231 1042 m 347 463 l 579 463 l 579 694 l 347 694 l 347 463 z "},"ř":{"ha":926,"x_min":0,"x_max":810,"o":"m 0 0 l 0 116 l 116 116 l 116 579 l 0 579 l 0 694 l 231 694 l 231 579 l 347 579 l 347 694 l 694 694 l 694 579 l 810 579 l 810 347 l 579 347 l 579 579 l 463 579 l 463 463 l 347 463 l 347 116 l 463 116 l 463 0 l 0 0 m 231 810 l 231 926 l 116 926 l 116 1042 l 347 1042 l 347 926 l 463 926 l 463 1042 l 694 1042 l 694 926 l 579 926 l 579 810 l 231 810 z "},"Ś":{"ha":926,"x_min":0,"x_max":810,"o":"m 0 116 l 0 231 l 231 231 l 231 116 l 579 116 l 579 347 l 347 347 l 347 463 l 116 463 l 116 579 l 0 579 l 0 810 l 116 810 l 116 926 l 347 926 l 347 1042 l 463 1042 l 463 1157 l 694 1157 l 694 1042 l 579 1042 l 579 926 l 694 926 l 694 810 l 810 810 l 810 694 l 579 694 l 579 810 l 231 810 l 231 579 l 463 579 l 463 463 l 694 463 l 694 347 l 810 347 l 810 116 l 694 116 l 694 0 l 116 0 l 116 116 l 0 116 z "},"ś":{"ha":926,"x_min":0,"x_max":810,"o":"m 0 116 l 0 231 l 231 231 l 231 116 l 579 116 l 579 231 l 347 231 l 347 347 l 116 347 l 116 463 l 0 463 l 0 579 l 116 579 l 116 694 l 694 694 l 694 579 l 810 579 l 810 463 l 579 463 l 579 579 l 231 579 l 231 463 l 463 463 l 463 347 l 694 347 l 694 231 l 810 231 l 810 116 l 694 116 l 694 0 l 116 0 l 116 116 l 0 116 m 463 926 l 463 1042 l 694 1042 l 694 926 l 579 926 l 579 810 l 347 810 l 347 926 l 463 926 z "},"Ŝ":{"ha":926,"x_min":0,"x_max":810,"o":"m 0 116 l 0 231 l 231 231 l 231 116 l 579 116 l 579 347 l 347 347 l 347 463 l 116 463 l 116 579 l 0 579 l 0 810 l 116 810 l 116 1042 l 231 1042 l 231 1157 l 579 1157 l 579 1042 l 694 1042 l 694 810 l 810 810 l 810 694 l 579 694 l 579 810 l 231 810 l 231 579 l 463 579 l 463 463 l 694 463 l 694 347 l 810 347 l 810 116 l 694 116 l 694 0 l 116 0 l 116 116 l 0 116 m 463 1042 l 347 1042 l 347 926 l 463 926 l 463 1042 z "},"ŝ":{"ha":926,"x_min":0,"x_max":810,"o":"m 0 116 l 0 231 l 231 231 l 231 116 l 579 116 l 579 231 l 347 231 l 347 347 l 116 347 l 116 463 l 0 463 l 0 579 l 116 579 l 116 694 l 694 694 l 694 579 l 810 579 l 810 463 l 579 463 l 579 579 l 231 579 l 231 463 l 463 463 l 463 347 l 694 347 l 694 231 l 810 231 l 810 116 l 694 116 l 694 0 l 116 0 l 116 116 l 0 116 m 231 926 l 231 1042 l 347 1042 l 347 1157 l 463 1157 l 463 1042 l 579 1042 l 579 926 l 694 926 l 694 810 l 463 810 l 463 926 l 347 926 l 347 810 l 116 810 l 116 926 l 231 926 z "},"Ş":{"ha":926,"x_min":0,"x_max":810,"o":"m 0 116 l 0 347 l 231 347 l 231 116 l 579 116 l 579 347 l 463 347 l 463 463 l 231 463 l 231 579 l 116 579 l 116 694 l 0 694 l 0 926 l 116 926 l 116 1042 l 694 1042 l 694 926 l 810 926 l 810 694 l 579 694 l 579 926 l 231 926 l 231 694 l 347 694 l 347 579 l 579 579 l 579 463 l 694 463 l 694 347 l 810 347 l 810 116 l 694 116 l 694 0 l 579 0 l 579 -116 l 463 -116 l 463 -231 l 116 -231 l 116 -116 l 347 -116 l 347 0 l 116 0 l 116 116 l 0 116 z "},"ş":{"ha":926,"x_min":0,"x_max":810,"o":"m 0 116 l 0 231 l 231 231 l 231 116 l 579 116 l 579 231 l 347 231 l 347 347 l 116 347 l 116 463 l 0 463 l 0 579 l 116 579 l 116 694 l 694 694 l 694 579 l 810 579 l 810 463 l 579 463 l 579 579 l 231 579 l 231 463 l 463 463 l 463 347 l 694 347 l 694 231 l 810 231 l 810 116 l 694 116 l 694 0 l 579 0 l 579 -116 l 463 -116 l 463 -231 l 231 -231 l 231 -116 l 347 -116 l 347 0 l 116 0 l 116 116 l 0 116 z "},"Š":{"ha":926,"x_min":0,"x_max":810,"o":"m 0 116 l 0 231 l 231 231 l 231 116 l 579 116 l 579 347 l 347 347 l 347 463 l 116 463 l 116 579 l 0 579 l 0 810 l 116 810 l 116 926 l 231 926 l 231 1042 l 116 1042 l 116 1157 l 347 1157 l 347 1042 l 463 1042 l 463 1157 l 694 1157 l 694 1042 l 579 1042 l 579 926 l 694 926 l 694 810 l 810 810 l 810 694 l 579 694 l 579 810 l 231 810 l 231 579 l 463 579 l 463 463 l 694 463 l 694 347 l 810 347 l 810 116 l 694 116 l 694 0 l 116 0 l 116 116 l 0 116 z "},"š":{"ha":926,"x_min":0,"x_max":810,"o":"m 0 116 l 0 231 l 231 231 l 231 116 l 579 116 l 579 231 l 347 231 l 347 347 l 116 347 l 116 463 l 0 463 l 0 579 l 116 579 l 116 694 l 694 694 l 694 579 l 810 579 l 810 463 l 579 463 l 579 579 l 231 579 l 231 463 l 463 463 l 463 347 l 694 347 l 694 231 l 810 231 l 810 116 l 694 116 l 694 0 l 116 0 l 116 116 l 0 116 m 231 810 l 231 926 l 116 926 l 116 1042 l 347 1042 l 347 926 l 463 926 l 463 1042 l 694 1042 l 694 926 l 579 926 l 579 810 l 231 810 z "},"Ţ":{"ha":926,"x_min":116,"x_max":810,"o":"m 116 694 l 116 1042 l 810 1042 l 810 694 l 694 694 l 694 810 l 579 810 l 579 116 l 694 116 l 694 -116 l 579 -116 l 579 -231 l 231 -231 l 231 -116 l 463 -116 l 463 0 l 231 0 l 231 116 l 347 116 l 347 810 l 231 810 l 231 694 l 116 694 z "},"ţ":{"ha":926,"x_min":0,"x_max":810,"o":"m 0 579 l 0 694 l 231 694 l 231 926 l 347 926 l 347 1042 l 463 1042 l 463 694 l 694 694 l 694 579 l 463 579 l 463 116 l 579 116 l 579 231 l 810 231 l 810 116 l 694 116 l 694 -116 l 579 -116 l 579 -231 l 231 -231 l 231 -116 l 463 -116 l 463 0 l 347 0 l 347 116 l 231 116 l 231 579 l 0 579 z "},"Ť":{"ha":926,"x_min":116,"x_max":810,"o":"m 231 0 l 231 116 l 347 116 l 347 579 l 231 579 l 231 463 l 116 463 l 116 810 l 347 810 l 347 926 l 231 926 l 231 1042 l 116 1042 l 116 1157 l 347 1157 l 347 1042 l 579 1042 l 579 1157 l 810 1157 l 810 1042 l 694 1042 l 694 926 l 579 926 l 579 810 l 810 810 l 810 463 l 694 463 l 694 579 l 579 579 l 579 116 l 694 116 l 694 0 l 231 0 z "},"ť":{"ha":926,"x_min":0,"x_max":810,"o":"m 0 463 l 0 579 l 231 579 l 231 694 l 347 694 l 347 810 l 463 810 l 463 579 l 694 579 l 694 463 l 463 463 l 463 116 l 579 116 l 579 231 l 810 231 l 810 116 l 694 116 l 694 0 l 347 0 l 347 116 l 231 116 l 231 463 l 0 463 m 231 1042 l 116 1042 l 116 1157 l 347 1157 l 347 1042 l 463 1042 l 463 1157 l 694 1157 l 694 1042 l 579 1042 l 579 926 l 231 926 l 231 1042 z "},"Ŧ":{"ha":926,"x_min":116,"x_max":810,"o":"m 116 463 l 116 579 l 347 579 l 347 810 l 231 810 l 231 694 l 116 694 l 116 1042 l 810 1042 l 810 694 l 694 694 l 694 810 l 579 810 l 579 579 l 810 579 l 810 463 l 579 463 l 579 116 l 694 116 l 694 0 l 231 0 l 231 116 l 347 116 l 347 463 l 116 463 z "},"ŧ":{"ha":926,"x_min":0,"x_max":810,"o":"m 0 579 l 0 694 l 231 694 l 231 926 l 347 926 l 347 1042 l 463 1042 l 463 694 l 694 694 l 694 579 l 463 579 l 463 463 l 694 463 l 694 347 l 463 347 l 463 116 l 579 116 l 579 231 l 810 231 l 810 116 l 694 116 l 694 0 l 347 0 l 347 116 l 231 116 l 231 347 l 0 347 l 0 463 l 231 463 l 231 579 l 0 579 z "},"Ũ":{"ha":926,"x_min":0,"x_max":810,"o":"m 0 116 l 0 810 l 231 810 l 231 116 l 579 116 l 579 810 l 810 810 l 810 116 l 694 116 l 694 0 l 116 0 l 116 116 l 0 116 m 0 926 l 0 1042 l 116 1042 l 116 1157 l 463 1157 l 463 1042 l 579 1042 l 579 1157 l 810 1157 l 810 1042 l 694 1042 l 694 926 l 347 926 l 347 1042 l 231 1042 l 231 926 l 0 926 z "},"ũ":{"ha":926,"x_min":0,"x_max":810,"o":"m 0 116 l 0 694 l 231 694 l 231 116 l 463 116 l 463 0 l 116 0 l 116 116 l 0 116 m 0 810 l 0 926 l 116 926 l 116 1042 l 463 1042 l 463 926 l 579 926 l 579 1042 l 810 1042 l 810 926 l 694 926 l 694 810 l 347 810 l 347 926 l 231 926 l 231 810 l 0 810 m 463 116 l 463 694 l 694 694 l 694 116 l 810 116 l 810 0 l 579 0 l 579 116 l 463 116 z "},"Ū":{"ha":926,"x_min":0,"x_max":810,"o":"m 0 116 l 0 926 l 231 926 l 231 116 l 579 116 l 579 926 l 810 926 l 810 116 l 694 116 l 694 0 l 116 0 l 116 116 l 0 116 m 0 1042 l 0 1157 l 810 1157 l 810 1042 l 0 1042 z "},"ū":{"ha":926,"x_min":0,"x_max":810,"o":"m 0 116 l 0 694 l 231 694 l 231 116 l 463 116 l 463 0 l 116 0 l 116 116 l 0 116 m 0 810 l 0 926 l 694 926 l 694 810 l 0 810 m 463 116 l 463 694 l 694 694 l 694 116 l 810 116 l 810 0 l 579 0 l 579 116 l 463 116 z "},"Ŭ":{"ha":926,"x_min":0,"x_max":810,"o":"m 0 116 l 0 810 l 231 810 l 231 116 l 579 116 l 579 810 l 810 810 l 810 116 l 694 116 l 694 0 l 116 0 l 116 116 l 0 116 m 0 1042 l 0 1157 l 231 1157 l 231 1042 l 579 1042 l 579 1157 l 810 1157 l 810 1042 l 694 1042 l 694 926 l 116 926 l 116 1042 l 0 1042 z "},"ŭ":{"ha":926,"x_min":0,"x_max":810,"o":"m 0 116 l 0 694 l 231 694 l 231 116 l 463 116 l 463 0 l 116 0 l 116 116 l 0 116 m 0 926 l 0 1042 l 231 1042 l 231 926 l 463 926 l 463 1042 l 694 1042 l 694 926 l 579 926 l 579 810 l 116 810 l 116 926 l 0 926 m 463 116 l 463 694 l 694 694 l 694 116 l 810 116 l 810 0 l 579 0 l 579 116 l 463 116 z "},"Ů":{"ha":926,"x_min":0,"x_max":810,"o":"m 0 116 l 0 810 l 231 810 l 231 116 l 579 116 l 579 810 l 810 810 l 810 116 l 694 116 l 694 0 l 116 0 l 116 116 l 0 116 m 231 810 l 231 926 l 116 926 l 116 1042 l 231 1042 l 231 1157 l 579 1157 l 579 1042 l 694 1042 l 694 926 l 579 926 l 579 810 l 231 810 m 463 1042 l 347 1042 l 347 926 l 463 926 l 463 1042 z "},"ů":{"ha":926,"x_min":0,"x_max":810,"o":"m 0 116 l 0 694 l 231 694 l 231 116 l 463 116 l 463 0 l 116 0 l 116 116 l 0 116 m 0 926 l 0 1042 l 116 1042 l 116 1157 l 579 1157 l 579 1042 l 694 1042 l 694 926 l 579 926 l 579 810 l 116 810 l 116 926 l 0 926 m 231 1042 l 231 926 l 463 926 l 463 1042 l 231 1042 m 463 116 l 463 694 l 694 694 l 694 116 l 810 116 l 810 0 l 579 0 l 579 116 l 463 116 z "},"Ű":{"ha":926,"x_min":0,"x_max":810,"o":"m 0 116 l 0 810 l 231 810 l 231 116 l 579 116 l 579 810 l 810 810 l 810 116 l 694 116 l 694 0 l 116 0 l 116 116 l 0 116 m 0 926 l 0 1042 l 116 1042 l 116 1157 l 347 1157 l 347 1042 l 231 1042 l 231 926 l 0 926 m 463 926 l 463 1042 l 579 1042 l 579 1157 l 810 1157 l 810 1042 l 694 1042 l 694 926 l 463 926 z "},"ű":{"ha":926,"x_min":0,"x_max":810,"o":"m 0 116 l 0 694 l 231 694 l 231 116 l 463 116 l 463 0 l 116 0 l 116 116 l 0 116 m 0 810 l 0 926 l 116 926 l 116 1042 l 347 1042 l 347 926 l 231 926 l 231 810 l 0 810 m 463 116 l 463 694 l 694 694 l 694 116 l 810 116 l 810 0 l 579 0 l 579 116 l 463 116 m 463 810 l 463 926 l 579 926 l 579 1042 l 810 1042 l 810 926 l 694 926 l 694 810 l 463 810 z "},"Ų":{"ha":926,"x_min":0,"x_max":810,"o":"m 0 116 l 0 1042 l 231 1042 l 231 116 l 579 116 l 579 1042 l 810 1042 l 810 116 l 694 116 l 694 0 l 579 0 l 579 -116 l 694 -116 l 694 -231 l 347 -231 l 347 0 l 116 0 l 116 116 l 0 116 z "},"ų":{"ha":926,"x_min":0,"x_max":810,"o":"m 0 116 l 0 694 l 231 694 l 231 116 l 463 116 l 463 0 l 116 0 l 116 116 l 0 116 m 463 116 l 463 694 l 694 694 l 694 116 l 810 116 l 810 0 l 694 0 l 694 -116 l 810 -116 l 810 -231 l 463 -231 l 463 0 l 579 0 l 579 116 l 463 116 z "},"Ŵ":{"ha":926,"x_min":0,"x_max":810,"o":"m 0 231 l 0 810 l 231 810 l 231 347 l 347 347 l 347 579 l 463 579 l 463 347 l 579 347 l 579 810 l 810 810 l 810 231 l 694 231 l 694 0 l 463 0 l 463 116 l 347 116 l 347 0 l 116 0 l 116 231 l 0 231 m 231 1042 l 231 1157 l 579 1157 l 579 1042 l 694 1042 l 694 926 l 463 926 l 463 1042 l 347 1042 l 347 926 l 116 926 l 116 1042 l 231 1042 z "},"ŵ":{"ha":926,"x_min":0,"x_max":810,"o":"m 0 116 l 0 694 l 231 694 l 231 231 l 347 231 l 347 463 l 463 463 l 463 231 l 579 231 l 579 694 l 810 694 l 810 116 l 694 116 l 694 0 l 463 0 l 463 116 l 347 116 l 347 0 l 116 0 l 116 116 l 0 116 m 231 926 l 231 1042 l 347 1042 l 347 1157 l 463 1157 l 463 1042 l 579 1042 l 579 926 l 694 926 l 694 810 l 463 810 l 463 926 l 347 926 l 347 810 l 116 810 l 116 926 l 231 926 z "},"Ŷ":{"ha":926,"x_min":116,"x_max":810,"o":"m 231 0 l 231 116 l 347 116 l 347 347 l 231 347 l 231 463 l 116 463 l 116 810 l 347 810 l 347 463 l 579 463 l 579 810 l 810 810 l 810 463 l 694 463 l 694 347 l 579 347 l 579 116 l 694 116 l 694 0 l 231 0 m 231 1042 l 231 1157 l 694 1157 l 694 1042 l 810 1042 l 810 926 l 579 926 l 579 1042 l 347 1042 l 347 926 l 116 926 l 116 1042 l 231 1042 z "},"ŷ":{"ha":926,"x_min":0,"x_max":810,"o":"m 0 -231 l 0 -116 l 463 -116 l 463 0 l 579 0 l 579 116 l 116 116 l 116 231 l 0 231 l 0 694 l 231 694 l 231 231 l 579 231 l 579 694 l 810 694 l 810 0 l 694 0 l 694 -116 l 579 -116 l 579 -231 l 0 -231 m 231 926 l 231 1042 l 347 1042 l 347 1157 l 463 1157 l 463 1042 l 579 1042 l 579 926 l 694 926 l 694 810 l 463 810 l 463 926 l 347 926 l 347 810 l 116 810 l 116 926 l 231 926 z "},"Ÿ":{"ha":926,"x_min":116,"x_max":810,"o":"m 231 0 l 231 116 l 347 116 l 347 347 l 231 347 l 231 463 l 116 463 l 116 810 l 347 810 l 347 463 l 579 463 l 579 810 l 810 810 l 810 463 l 694 463 l 694 347 l 579 347 l 579 116 l 694 116 l 694 0 l 231 0 m 116 1157 l 347 1157 l 347 926 l 116 926 l 116 1157 m 579 1157 l 810 1157 l 810 926 l 579 926 l 579 1157 z "},"Ź":{"ha":926,"x_min":0,"x_max":810,"o":"m 0 231 l 116 231 l 116 347 l 231 347 l 231 463 l 347 463 l 347 579 l 463 579 l 463 694 l 579 694 l 579 810 l 116 810 l 116 694 l 0 694 l 0 926 l 231 926 l 231 1042 l 347 1042 l 347 1157 l 579 1157 l 579 1042 l 463 1042 l 463 926 l 810 926 l 810 694 l 694 694 l 694 579 l 579 579 l 579 463 l 463 463 l 463 347 l 347 347 l 347 231 l 231 231 l 231 116 l 694 116 l 694 231 l 810 231 l 810 0 l 0 0 l 0 231 z "},"ź":{"ha":926,"x_min":0,"x_max":810,"o":"m 0 0 l 0 116 l 116 116 l 116 231 l 231 231 l 231 347 l 347 347 l 347 463 l 463 463 l 463 579 l 231 579 l 231 463 l 0 463 l 0 694 l 810 694 l 810 579 l 694 579 l 694 463 l 579 463 l 579 347 l 463 347 l 463 231 l 347 231 l 347 116 l 579 116 l 579 231 l 810 231 l 810 0 l 0 0 m 231 810 l 231 926 l 347 926 l 347 1042 l 579 1042 l 579 926 l 463 926 l 463 810 l 231 810 z "},"Ż":{"ha":926,"x_min":0,"x_max":810,"o":"m 0 231 l 116 231 l 116 347 l 231 347 l 231 463 l 347 463 l 347 579 l 463 579 l 463 694 l 231 694 l 231 579 l 0 579 l 0 810 l 347 810 l 347 926 l 231 926 l 231 1042 l 347 1042 l 347 1157 l 463 1157 l 463 1042 l 579 1042 l 579 926 l 463 926 l 463 810 l 810 810 l 810 694 l 694 694 l 694 579 l 579 579 l 579 463 l 463 463 l 463 347 l 347 347 l 347 231 l 231 231 l 231 116 l 694 116 l 694 231 l 810 231 l 810 0 l 0 0 l 0 231 z "},"ż":{"ha":926,"x_min":0,"x_max":810,"o":"m 0 0 l 0 116 l 116 116 l 116 231 l 231 231 l 231 347 l 347 347 l 347 463 l 463 463 l 463 579 l 231 579 l 231 463 l 0 463 l 0 694 l 347 694 l 347 810 l 231 810 l 231 926 l 347 926 l 347 1042 l 463 1042 l 463 926 l 579 926 l 579 810 l 463 810 l 463 694 l 810 694 l 810 579 l 694 579 l 694 463 l 579 463 l 579 347 l 463 347 l 463 231 l 347 231 l 347 116 l 579 116 l 579 231 l 810 231 l 810 0 l 0 0 z "},"Ž":{"ha":926,"x_min":0,"x_max":810,"o":"m 0 231 l 116 231 l 116 347 l 231 347 l 231 463 l 347 463 l 347 579 l 463 579 l 463 694 l 579 694 l 579 810 l 116 810 l 116 694 l 0 694 l 0 926 l 231 926 l 231 1042 l 116 1042 l 116 1157 l 347 1157 l 347 1042 l 579 1042 l 579 1157 l 810 1157 l 810 1042 l 694 1042 l 694 926 l 810 926 l 810 694 l 694 694 l 694 579 l 579 579 l 579 463 l 463 463 l 463 347 l 347 347 l 347 231 l 231 231 l 231 116 l 694 116 l 694 231 l 810 231 l 810 0 l 0 0 l 0 231 z "},"ž":{"ha":926,"x_min":0,"x_max":810,"o":"m 0 0 l 0 116 l 116 116 l 116 231 l 231 231 l 231 347 l 347 347 l 347 463 l 463 463 l 463 579 l 231 579 l 231 463 l 0 463 l 0 694 l 810 694 l 810 579 l 694 579 l 694 463 l 579 463 l 579 347 l 463 347 l 463 231 l 347 231 l 347 116 l 579 116 l 579 231 l 810 231 l 810 0 l 0 0 m 231 810 l 231 926 l 116 926 l 116 1042 l 347 1042 l 347 926 l 463 926 l 463 1042 l 694 1042 l 694 926 l 579 926 l 579 810 l 231 810 z "},"ſ":{"ha":926,"x_min":116,"x_max":810,"o":"m 116 0 l 116 116 l 231 116 l 231 926 l 347 926 l 347 1042 l 694 1042 l 694 926 l 810 926 l 810 694 l 694 694 l 694 810 l 579 810 l 579 926 l 463 926 l 463 116 l 579 116 l 579 0 l 116 0 z "},"ƒ":{"ha":926,"x_min":0,"x_max":926,"o":"m 0 0 l 0 116 l 231 116 l 231 0 l 347 0 l 347 579 l 116 579 l 116 694 l 347 694 l 347 1042 l 463 1042 l 463 1157 l 810 1157 l 810 1042 l 926 1042 l 926 926 l 694 926 l 694 1042 l 579 1042 l 579 694 l 810 694 l 810 579 l 579 579 l 579 0 l 463 0 l 463 -116 l 116 -116 l 116 0 l 0 0 z "},"ơ":{"ha":926,"x_min":0,"x_max":810,"o":"m 0 116 l 0 579 l 116 579 l 116 694 l 810 694 l 810 579 l 579 579 l 579 116 l 463 116 l 463 0 l 116 0 l 116 116 l 0 116 m 231 116 l 347 116 l 347 579 l 231 579 l 231 116 z "},"Ʒ":{"ha":926,"x_min":0,"x_max":810,"o":"m 0 116 l 0 231 l 231 231 l 231 116 l 579 116 l 579 463 l 231 463 l 231 579 l 347 579 l 347 694 l 463 694 l 463 810 l 579 810 l 579 926 l 231 926 l 231 810 l 0 810 l 0 1042 l 810 1042 l 810 810 l 694 810 l 694 694 l 579 694 l 579 579 l 694 579 l 694 463 l 810 463 l 810 116 l 694 116 l 694 0 l 116 0 l 116 116 l 0 116 z "},"Ǻ":{"ha":926,"x_min":0,"x_max":810,"o":"m 0 0 l 0 579 l 116 579 l 116 694 l 231 694 l 231 926 l 116 926 l 116 1042 l 231 1042 l 231 1157 l 579 1157 l 579 1042 l 694 1042 l 694 926 l 579 926 l 579 694 l 694 694 l 694 579 l 810 579 l 810 0 l 579 0 l 579 231 l 231 231 l 231 0 l 0 0 m 231 579 l 231 347 l 579 347 l 579 579 l 463 579 l 463 694 l 347 694 l 347 579 l 231 579 m 463 1042 l 347 1042 l 347 926 l 463 926 l 463 1042 m 694 1042 l 694 1157 l 810 1157 l 810 1042 l 694 1042 z "},"ǻ":{"ha":926,"x_min":0,"x_max":810,"o":"m 0 116 l 0 347 l 116 347 l 116 463 l 463 463 l 463 579 l 116 579 l 116 694 l 231 694 l 231 810 l 116 810 l 116 926 l 231 926 l 231 1042 l 463 1042 l 463 1157 l 694 1157 l 694 1042 l 579 1042 l 579 926 l 694 926 l 694 810 l 579 810 l 579 579 l 694 579 l 694 116 l 810 116 l 810 0 l 579 0 l 579 116 l 463 116 l 463 347 l 231 347 l 231 116 l 463 116 l 463 0 l 116 0 l 116 116 l 0 116 m 463 810 l 463 926 l 347 926 l 347 810 l 463 810 z "},"Ǽ":{"ha":926,"x_min":0,"x_max":810,"o":"m 0 0 l 0 579 l 116 579 l 116 694 l 231 694 l 231 810 l 810 810 l 810 694 l 694 694 l 694 463 l 810 463 l 810 347 l 694 347 l 694 116 l 810 116 l 810 0 l 463 0 l 463 347 l 231 347 l 231 0 l 0 0 m 231 579 l 231 463 l 463 463 l 463 694 l 347 694 l 347 579 l 231 579 m 463 1042 l 463 1157 l 694 1157 l 694 1042 l 579 1042 l 579 926 l 347 926 l 347 1042 l 463 1042 z "},"ǽ":{"ha":926,"x_min":0,"x_max":810,"o":"m 0 116 l 0 347 l 116 347 l 116 463 l 231 463 l 231 579 l 0 579 l 0 694 l 347 694 l 347 579 l 463 579 l 463 463 l 579 463 l 579 579 l 463 579 l 463 694 l 694 694 l 694 579 l 810 579 l 810 347 l 579 347 l 579 116 l 810 116 l 810 0 l 463 0 l 463 116 l 347 116 l 347 347 l 231 347 l 231 116 l 347 116 l 347 0 l 116 0 l 116 116 l 0 116 m 231 926 l 231 1042 l 347 1042 l 347 1157 l 579 1157 l 579 1042 l 463 1042 l 463 926 l 347 926 l 347 810 l 116 810 l 116 926 l 231 926 z "},"Ǿ":{"ha":926,"x_min":0,"x_max":810,"o":"m 0 -116 l 0 0 l 116 0 l 116 -116 l 0 -116 m 0 231 l 0 579 l 116 579 l 116 694 l 231 694 l 231 810 l 694 810 l 694 579 l 810 579 l 810 231 l 694 231 l 694 116 l 579 116 l 579 0 l 116 0 l 116 231 l 0 231 m 231 347 l 347 347 l 347 116 l 463 116 l 463 231 l 579 231 l 579 463 l 463 463 l 463 694 l 347 694 l 347 579 l 231 579 l 231 347 m 231 926 l 231 1042 l 347 1042 l 347 1157 l 579 1157 l 579 1042 l 463 1042 l 463 926 l 231 926 m 463 463 l 463 347 l 347 347 l 347 463 l 463 463 m 694 810 l 694 926 l 810 926 l 810 810 l 694 810 z "},"ǿ":{"ha":926,"x_min":0,"x_max":810,"o":"m 0 -116 l 0 0 l 116 0 l 116 116 l 0 116 l 0 579 l 116 579 l 116 694 l 579 694 l 579 810 l 810 810 l 810 694 l 694 694 l 694 579 l 810 579 l 810 116 l 694 116 l 694 0 l 231 0 l 231 -116 l 0 -116 m 231 231 l 347 231 l 347 116 l 579 116 l 579 463 l 463 463 l 463 579 l 231 579 l 231 231 m 231 926 l 231 1042 l 347 1042 l 347 1157 l 579 1157 l 579 1042 l 463 1042 l 463 926 l 347 926 l 347 810 l 116 810 l 116 926 l 231 926 m 463 231 l 347 231 l 347 463 l 463 463 l 463 231 z "},"Ș":{"ha":926,"x_min":0,"x_max":810,"o":"m 0 116 l 0 347 l 231 347 l 231 116 l 579 116 l 579 347 l 463 347 l 463 463 l 231 463 l 231 579 l 116 579 l 116 694 l 0 694 l 0 926 l 116 926 l 116 1042 l 694 1042 l 694 926 l 810 926 l 810 694 l 579 694 l 579 926 l 231 926 l 231 694 l 347 694 l 347 579 l 579 579 l 579 463 l 694 463 l 694 347 l 810 347 l 810 116 l 694 116 l 694 0 l 579 0 l 579 -116 l 463 -116 l 463 -231 l 231 -231 l 231 -116 l 347 -116 l 347 0 l 116 0 l 116 116 l 0 116 z "},"ș":{"ha":926,"x_min":0,"x_max":810,"o":"m 0 116 l 0 231 l 231 231 l 231 116 l 579 116 l 579 231 l 347 231 l 347 347 l 116 347 l 116 463 l 0 463 l 0 579 l 116 579 l 116 694 l 694 694 l 694 579 l 810 579 l 810 463 l 579 463 l 579 579 l 231 579 l 231 463 l 463 463 l 463 347 l 694 347 l 694 231 l 810 231 l 810 116 l 694 116 l 694 0 l 579 0 l 579 -116 l 463 -116 l 463 -231 l 231 -231 l 231 -116 l 347 -116 l 347 0 l 116 0 l 116 116 l 0 116 z "},"Ț":{"ha":926,"x_min":116,"x_max":810,"o":"m 116 694 l 116 1042 l 810 1042 l 810 694 l 694 694 l 694 810 l 579 810 l 579 116 l 694 116 l 694 0 l 579 0 l 579 -116 l 463 -116 l 463 -231 l 231 -231 l 231 -116 l 347 -116 l 347 0 l 231 0 l 231 116 l 347 116 l 347 810 l 231 810 l 231 694 l 116 694 z "},"ț":{"ha":926,"x_min":0,"x_max":810,"o":"m 0 579 l 0 694 l 231 694 l 231 926 l 347 926 l 347 1042 l 463 1042 l 463 694 l 694 694 l 694 579 l 463 579 l 463 116 l 579 116 l 579 231 l 810 231 l 810 116 l 694 116 l 694 -116 l 579 -116 l 579 -231 l 347 -231 l 347 -116 l 463 -116 l 463 0 l 347 0 l 347 116 l 231 116 l 231 579 l 0 579 z "},"ɑ":{"ha":926,"x_min":0,"x_max":810,"o":"m 0 116 l 0 579 l 116 579 l 116 694 l 463 694 l 463 579 l 579 579 l 579 694 l 810 694 l 810 579 l 694 579 l 694 463 l 579 463 l 579 231 l 694 231 l 694 116 l 810 116 l 810 0 l 579 0 l 579 116 l 463 116 l 463 0 l 116 0 l 116 116 l 0 116 m 231 116 l 347 116 l 347 579 l 231 579 l 231 116 z "},"ɸ":{"ha":926,"x_min":116,"x_max":810,"o":"m 231 231 l 231 347 l 116 347 l 116 694 l 231 694 l 231 810 l 347 810 l 347 926 l 116 926 l 116 1042 l 810 1042 l 810 926 l 579 926 l 579 810 l 694 810 l 694 694 l 810 694 l 810 347 l 694 347 l 694 231 l 579 231 l 579 116 l 810 116 l 810 0 l 116 0 l 116 116 l 347 116 l 347 231 l 231 231 m 347 347 l 579 347 l 579 694 l 347 694 l 347 347 z "},"ˆ":{"ha":926,"x_min":0,"x_max":810,"o":"m 0 694 l 0 810 l 116 810 l 116 926 l 231 926 l 231 1042 l 347 1042 l 347 1157 l 463 1157 l 463 1042 l 579 1042 l 579 926 l 694 926 l 694 810 l 810 810 l 810 694 l 579 694 l 579 810 l 463 810 l 463 926 l 347 926 l 347 810 l 231 810 l 231 694 l 0 694 z "},"ˇ":{"ha":926,"x_min":0,"x_max":810,"o":"m 0 1042 l 0 1157 l 231 1157 l 231 1042 l 347 1042 l 347 926 l 463 926 l 463 1042 l 579 1042 l 579 1157 l 810 1157 l 810 1042 l 694 1042 l 694 926 l 579 926 l 579 810 l 463 810 l 463 694 l 347 694 l 347 810 l 231 810 l 231 926 l 116 926 l 116 1042 l 0 1042 z "},"ˉ":{"ha":926,"x_min":116,"x_max":694,"o":"m 116 1042 l 116 1157 l 694 1157 l 694 1042 l 116 1042 z "},"˘":{"ha":926,"x_min":0,"x_max":810,"o":"m 0 1042 l 0 1157 l 231 1157 l 231 1042 l 579 1042 l 579 1157 l 810 1157 l 810 1042 l 694 1042 l 694 926 l 116 926 l 116 1042 l 0 1042 z "},"˙":{"ha":926,"x_min":347,"x_max":579,"o":"m 579 1157 l 579 926 l 347 926 l 347 1157 l 579 1157 z "},"˚":{"ha":926,"x_min":116,"x_max":694,"o":"m 116 810 l 116 1042 l 231 1042 l 231 1157 l 579 1157 l 579 1042 l 694 1042 l 694 810 l 579 810 l 579 694 l 231 694 l 231 810 l 116 810 m 347 810 l 463 810 l 463 1042 l 347 1042 l 347 810 z "},"˛":{"ha":926,"x_min":231,"x_max":694,"o":"m 463 116 l 463 -116 l 694 -116 l 694 -231 l 347 -231 l 347 -116 l 231 -116 l 231 116 l 463 116 z "},"˜":{"ha":926,"x_min":0,"x_max":810,"o":"m 0 810 l 0 926 l 116 926 l 116 1042 l 463 1042 l 463 926 l 579 926 l 579 1042 l 810 1042 l 810 926 l 694 926 l 694 810 l 347 810 l 347 926 l 231 926 l 231 810 l 0 810 z "},"˝":{"ha":926,"x_min":0,"x_max":810,"o":"m 0 810 l 0 926 l 116 926 l 116 1042 l 231 1042 l 231 1157 l 463 1157 l 463 1042 l 347 1042 l 347 926 l 231 926 l 231 810 l 0 810 m 347 810 l 347 926 l 463 926 l 463 1042 l 579 1042 l 579 1157 l 810 1157 l 810 1042 l 694 1042 l 694 926 l 579 926 l 579 810 l 347 810 z "},";":{"ha":926,"x_min":231,"x_max":579,"o":"m 463 116 l 463 0 l 231 0 l 231 116 l 347 116 l 347 347 l 579 347 l 579 116 l 463 116 m 579 579 l 347 579 l 347 810 l 579 810 l 579 579 z "},"΄":{"ha":926,"x_min":347,"x_max":694,"o":"m 463 810 l 347 810 l 347 1042 l 463 1042 l 463 1157 l 694 1157 l 694 1042 l 579 1042 l 579 926 l 463 926 l 463 810 z "},"΅":{"ha":926,"x_min":116,"x_max":810,"o":"m 116 694 l 116 926 l 347 926 l 347 694 l 116 694 m 463 926 l 463 1042 l 579 1042 l 579 926 l 463 926 m 579 694 l 579 926 l 810 926 l 810 694 l 579 694 m 579 1042 l 579 1157 l 694 1157 l 694 1042 l 579 1042 z "},"Ά":{"ha":926,"x_min":0,"x_max":810,"o":"m 0 0 l 0 694 l 116 694 l 116 810 l 231 810 l 231 926 l 347 926 l 347 1042 l 463 1042 l 463 926 l 579 926 l 579 810 l 694 810 l 694 694 l 810 694 l 810 0 l 579 0 l 579 347 l 231 347 l 231 0 l 0 0 m 0 810 l 0 1157 l 116 1157 l 116 810 l 0 810 m 231 463 l 579 463 l 579 694 l 463 694 l 463 810 l 347 810 l 347 694 l 231 694 l 231 463 z "},"·":{"ha":926,"x_min":347,"x_max":579,"o":"m 579 463 l 347 463 l 347 694 l 579 694 l 579 463 z "},"Έ":{"ha":926,"x_min":0,"x_max":810,"o":"m 0 810 l 0 1157 l 116 1157 l 116 1042 l 810 1042 l 810 810 l 694 810 l 694 926 l 463 926 l 463 579 l 579 579 l 579 694 l 694 694 l 694 347 l 579 347 l 579 463 l 463 463 l 463 116 l 694 116 l 694 231 l 810 231 l 810 0 l 116 0 l 116 116 l 231 116 l 231 926 l 116 926 l 116 810 l 0 810 z "},"Ή":{"ha":926,"x_min":0,"x_max":926,"o":"m 926 0 l 694 0 l 694 463 l 463 463 l 463 0 l 231 0 l 231 1042 l 463 1042 l 463 579 l 694 579 l 694 1042 l 926 1042 l 926 0 m 0 810 l 0 1157 l 116 1157 l 116 810 l 0 810 z "},"Ί":{"ha":926,"x_min":0,"x_max":694,"o":"m 0 810 l 0 1157 l 116 1157 l 116 810 l 0 810 m 231 0 l 231 116 l 347 116 l 347 926 l 231 926 l 231 1042 l 694 1042 l 694 926 l 579 926 l 579 116 l 694 116 l 694 0 l 231 0 z "},"Ό":{"ha":926,"x_min":0,"x_max":810,"o":"m 0 231 l 0 810 l 116 810 l 116 926 l 231 926 l 231 1042 l 579 1042 l 579 926 l 694 926 l 694 810 l 810 810 l 810 231 l 694 231 l 694 116 l 579 116 l 579 0 l 231 0 l 231 116 l 116 116 l 116 231 l 0 231 m 0 1157 l 116 1157 l 116 926 l 0 926 l 0 1157 m 231 231 l 347 231 l 347 116 l 463 116 l 463 231 l 579 231 l 579 810 l 463 810 l 463 926 l 347 926 l 347 810 l 231 810 l 231 231 z "},"Ύ":{"ha":926,"x_min":0,"x_max":926,"o":"m 926 579 l 810 579 l 810 463 l 694 463 l 694 116 l 810 116 l 810 0 l 347 0 l 347 116 l 463 116 l 463 463 l 347 463 l 347 579 l 231 579 l 231 1042 l 463 1042 l 463 579 l 694 579 l 694 1042 l 926 1042 l 926 579 m 0 810 l 0 1157 l 116 1157 l 116 810 l 0 810 z "},"Ώ":{"ha":926,"x_min":0,"x_max":810,"o":"m 0 0 l 0 116 l 116 116 l 116 347 l 0 347 l 0 810 l 116 810 l 116 926 l 231 926 l 231 1042 l 579 1042 l 579 926 l 694 926 l 694 810 l 810 810 l 810 347 l 694 347 l 694 116 l 810 116 l 810 0 l 463 0 l 463 347 l 579 347 l 579 810 l 463 810 l 463 926 l 347 926 l 347 810 l 231 810 l 231 347 l 347 347 l 347 0 l 0 0 m 0 1157 l 116 1157 l 116 926 l 0 926 l 0 1157 z "},"ΐ":{"ha":926,"x_min":0,"x_max":694,"o":"m 0 694 l 0 926 l 231 926 l 231 694 l 0 694 m 231 116 l 231 579 l 463 579 l 463 116 l 579 116 l 579 0 l 347 0 l 347 116 l 231 116 m 463 694 l 463 926 l 694 926 l 694 694 l 463 694 m 463 1042 l 463 1157 l 579 1157 l 579 1042 l 463 1042 m 463 926 l 347 926 l 347 1042 l 463 1042 l 463 926 m 694 231 l 694 116 l 579 116 l 579 231 l 694 231 z "},"Α":{"ha":926,"x_min":0,"x_max":810,"o":"m 0 0 l 0 694 l 116 694 l 116 810 l 231 810 l 231 926 l 347 926 l 347 1042 l 463 1042 l 463 926 l 579 926 l 579 810 l 694 810 l 694 694 l 810 694 l 810 0 l 579 0 l 579 347 l 231 347 l 231 0 l 0 0 m 231 463 l 579 463 l 579 694 l 463 694 l 463 810 l 347 810 l 347 694 l 231 694 l 231 463 z "},"Β":{"ha":926,"x_min":0,"x_max":810,"o":"m 0 0 l 0 116 l 116 116 l 116 926 l 0 926 l 0 1042 l 694 1042 l 694 926 l 810 926 l 810 579 l 694 579 l 694 463 l 810 463 l 810 116 l 694 116 l 694 0 l 0 0 m 347 116 l 579 116 l 579 463 l 347 463 l 347 116 m 347 579 l 579 579 l 579 926 l 347 926 l 347 579 z "},"Γ":{"ha":926,"x_min":0,"x_max":810,"o":"m 0 0 l 0 116 l 116 116 l 116 926 l 0 926 l 0 1042 l 810 1042 l 810 694 l 694 694 l 694 810 l 579 810 l 579 926 l 347 926 l 347 116 l 463 116 l 463 0 l 0 0 z "},"Δ":{"ha":926,"x_min":0,"x_max":810,"o":"m 0 0 l 0 694 l 116 694 l 116 810 l 231 810 l 231 926 l 347 926 l 347 1042 l 463 1042 l 463 926 l 579 926 l 579 810 l 694 810 l 694 694 l 810 694 l 810 0 l 0 0 m 231 116 l 579 116 l 579 694 l 463 694 l 463 810 l 347 810 l 347 694 l 231 694 l 231 116 z "},"Ε":{"ha":926,"x_min":0,"x_max":810,"o":"m 0 0 l 0 116 l 116 116 l 116 926 l 0 926 l 0 1042 l 810 1042 l 810 694 l 694 694 l 694 810 l 579 810 l 579 926 l 347 926 l 347 579 l 463 579 l 463 694 l 579 694 l 579 347 l 463 347 l 463 463 l 347 463 l 347 116 l 579 116 l 579 231 l 694 231 l 694 347 l 810 347 l 810 0 l 0 0 z "},"Ζ":{"ha":926,"x_min":0,"x_max":810,"o":"m 0 0 l 0 347 l 116 347 l 116 463 l 231 463 l 231 579 l 347 579 l 347 694 l 463 694 l 463 810 l 579 810 l 579 926 l 231 926 l 231 810 l 116 810 l 116 694 l 0 694 l 0 1042 l 810 1042 l 810 810 l 694 810 l 694 694 l 579 694 l 579 579 l 463 579 l 463 463 l 347 463 l 347 347 l 231 347 l 231 116 l 579 116 l 579 231 l 694 231 l 694 347 l 810 347 l 810 0 l 0 0 z "},"Η":{"ha":926,"x_min":0,"x_max":810,"o":"m 0 0 l 0 1042 l 231 1042 l 231 579 l 579 579 l 579 1042 l 810 1042 l 810 0 l 579 0 l 579 463 l 231 463 l 231 0 l 0 0 z "},"Θ":{"ha":926,"x_min":0,"x_max":810,"o":"m 0 231 l 0 810 l 116 810 l 116 926 l 231 926 l 231 1042 l 579 1042 l 579 926 l 694 926 l 694 810 l 810 810 l 810 231 l 694 231 l 694 116 l 579 116 l 579 0 l 231 0 l 231 116 l 116 116 l 116 231 l 0 231 m 231 231 l 347 231 l 347 116 l 463 116 l 463 231 l 579 231 l 579 463 l 231 463 l 231 231 m 231 579 l 579 579 l 579 810 l 463 810 l 463 926 l 347 926 l 347 810 l 231 810 l 231 579 z "},"Ι":{"ha":926,"x_min":231,"x_max":694,"o":"m 579 116 l 694 116 l 694 0 l 231 0 l 231 116 l 347 116 l 347 926 l 231 926 l 231 1042 l 694 1042 l 694 926 l 579 926 l 579 116 z "},"Κ":{"ha":926,"x_min":0,"x_max":810,"o":"m 0 0 l 0 116 l 116 116 l 116 926 l 0 926 l 0 1042 l 347 1042 l 347 579 l 463 579 l 463 810 l 579 810 l 579 1042 l 810 1042 l 810 810 l 694 810 l 694 579 l 579 579 l 579 463 l 694 463 l 694 231 l 810 231 l 810 0 l 579 0 l 579 231 l 463 231 l 463 463 l 347 463 l 347 0 l 0 0 z "},"Λ":{"ha":926,"x_min":0,"x_max":810,"o":"m 0 0 l 0 694 l 116 694 l 116 810 l 231 810 l 231 926 l 347 926 l 347 1042 l 463 1042 l 463 926 l 579 926 l 579 810 l 694 810 l 694 694 l 810 694 l 810 0 l 579 0 l 579 694 l 463 694 l 463 810 l 347 810 l 347 694 l 231 694 l 231 0 l 0 0 z "},"Μ":{"ha":926,"x_min":0,"x_max":810,"o":"m 0 0 l 0 1042 l 231 1042 l 231 926 l 347 926 l 347 810 l 463 810 l 463 926 l 579 926 l 579 1042 l 810 1042 l 810 0 l 579 0 l 579 579 l 463 579 l 463 463 l 347 463 l 347 579 l 231 579 l 231 0 l 0 0 z "},"Ν":{"ha":926,"x_min":0,"x_max":810,"o":"m 0 0 l 0 1042 l 231 1042 l 231 926 l 347 926 l 347 810 l 463 810 l 463 694 l 579 694 l 579 1042 l 810 1042 l 810 0 l 579 0 l 579 347 l 463 347 l 463 463 l 347 463 l 347 579 l 231 579 l 231 0 l 0 0 z "},"Ξ":{"ha":926,"x_min":0,"x_max":810,"o":"m 0 231 l 231 231 l 231 116 l 579 116 l 579 231 l 810 231 l 810 0 l 0 0 l 0 231 m 0 810 l 0 1042 l 810 1042 l 810 810 l 579 810 l 579 926 l 231 926 l 231 810 l 0 810 m 116 463 l 116 579 l 694 579 l 694 463 l 116 463 z "},"Ο":{"ha":926,"x_min":0,"x_max":810,"o":"m 0 231 l 0 810 l 116 810 l 116 926 l 231 926 l 231 1042 l 579 1042 l 579 926 l 694 926 l 694 810 l 810 810 l 810 231 l 694 231 l 694 116 l 579 116 l 579 0 l 231 0 l 231 116 l 116 116 l 116 231 l 0 231 m 231 231 l 347 231 l 347 116 l 463 116 l 463 231 l 579 231 l 579 810 l 463 810 l 463 926 l 347 926 l 347 810 l 231 810 l 231 231 z "},"Π":{"ha":926,"x_min":0,"x_max":810,"o":"m 0 0 l 0 1042 l 810 1042 l 810 0 l 579 0 l 579 926 l 231 926 l 231 0 l 0 0 z "},"Ρ":{"ha":926,"x_min":0,"x_max":810,"o":"m 0 0 l 0 116 l 116 116 l 116 926 l 0 926 l 0 1042 l 694 1042 l 694 926 l 810 926 l 810 579 l 694 579 l 694 463 l 347 463 l 347 116 l 463 116 l 463 0 l 0 0 m 347 579 l 579 579 l 579 926 l 347 926 l 347 579 z "},"Σ":{"ha":926,"x_min":0,"x_max":810,"o":"m 0 231 l 116 231 l 116 347 l 231 347 l 231 463 l 347 463 l 347 579 l 231 579 l 231 694 l 116 694 l 116 810 l 0 810 l 0 1042 l 810 1042 l 810 694 l 694 694 l 694 810 l 579 810 l 579 926 l 231 926 l 231 810 l 347 810 l 347 694 l 463 694 l 463 579 l 579 579 l 579 463 l 463 463 l 463 347 l 347 347 l 347 231 l 231 231 l 231 116 l 579 116 l 579 231 l 694 231 l 694 347 l 810 347 l 810 0 l 0 0 l 0 231 z "},"Τ":{"ha":926,"x_min":116,"x_max":810,"o":"m 116 694 l 116 1042 l 810 1042 l 810 694 l 694 694 l 694 810 l 579 810 l 579 116 l 694 116 l 694 0 l 231 0 l 231 116 l 347 116 l 347 810 l 231 810 l 231 694 l 116 694 z "},"Υ":{"ha":926,"x_min":116,"x_max":810,"o":"m 116 579 l 116 1042 l 347 1042 l 347 579 l 579 579 l 579 1042 l 810 1042 l 810 579 l 694 579 l 694 463 l 579 463 l 579 116 l 694 116 l 694 0 l 231 0 l 231 116 l 347 116 l 347 463 l 231 463 l 231 579 l 116 579 z "},"Φ":{"ha":926,"x_min":0,"x_max":810,"o":"m 0 463 l 0 926 l 116 926 l 116 1042 l 694 1042 l 694 926 l 810 926 l 810 463 l 694 463 l 694 347 l 463 347 l 463 116 l 579 116 l 579 0 l 231 0 l 231 116 l 347 116 l 347 347 l 116 347 l 116 463 l 0 463 m 231 463 l 347 463 l 347 926 l 231 926 l 231 463 m 463 463 l 579 463 l 579 926 l 463 926 l 463 463 z "},"Χ":{"ha":926,"x_min":0,"x_max":810,"o":"m 0 231 l 116 231 l 116 347 l 231 347 l 231 694 l 116 694 l 116 810 l 0 810 l 0 1042 l 231 1042 l 231 810 l 347 810 l 347 694 l 463 694 l 463 810 l 579 810 l 579 1042 l 810 1042 l 810 810 l 694 810 l 694 694 l 579 694 l 579 347 l 694 347 l 694 231 l 810 231 l 810 0 l 579 0 l 579 231 l 463 231 l 463 347 l 347 347 l 347 231 l 231 231 l 231 0 l 0 0 l 0 231 z "},"Ψ":{"ha":926,"x_min":0,"x_max":810,"o":"m 0 463 l 0 1042 l 231 1042 l 231 463 l 347 463 l 347 1042 l 463 1042 l 463 463 l 579 463 l 579 1042 l 810 1042 l 810 463 l 694 463 l 694 347 l 463 347 l 463 116 l 579 116 l 579 0 l 231 0 l 231 116 l 347 116 l 347 347 l 116 347 l 116 463 l 0 463 z "},"Ω":{"ha":926,"x_min":0,"x_max":810,"o":"m 0 0 l 0 116 l 116 116 l 116 347 l 0 347 l 0 810 l 116 810 l 116 926 l 231 926 l 231 1042 l 579 1042 l 579 926 l 694 926 l 694 810 l 810 810 l 810 347 l 694 347 l 694 116 l 810 116 l 810 0 l 463 0 l 463 347 l 579 347 l 579 810 l 463 810 l 463 926 l 347 926 l 347 810 l 231 810 l 231 347 l 347 347 l 347 0 l 0 0 z "},"Ϊ":{"ha":926,"x_min":116,"x_max":810,"o":"m 116 1157 l 347 1157 l 347 926 l 116 926 l 116 1157 m 231 0 l 231 116 l 347 116 l 347 694 l 231 694 l 231 810 l 694 810 l 694 694 l 579 694 l 579 116 l 694 116 l 694 0 l 231 0 m 579 1157 l 810 1157 l 810 926 l 579 926 l 579 1157 z "},"Ϋ":{"ha":926,"x_min":116,"x_max":810,"o":"m 231 0 l 231 116 l 347 116 l 347 347 l 231 347 l 231 463 l 116 463 l 116 810 l 347 810 l 347 463 l 579 463 l 579 810 l 810 810 l 810 463 l 694 463 l 694 347 l 579 347 l 579 116 l 694 116 l 694 0 l 231 0 m 116 1157 l 347 1157 l 347 926 l 116 926 l 116 1157 m 579 1157 l 810 1157 l 810 926 l 579 926 l 579 1157 z "},"ά":{"ha":926,"x_min":0,"x_max":810,"o":"m 0 116 l 0 579 l 116 579 l 116 694 l 463 694 l 463 579 l 231 579 l 231 116 l 463 116 l 463 0 l 116 0 l 116 116 l 0 116 m 463 116 l 463 579 l 579 579 l 579 694 l 694 694 l 694 116 l 810 116 l 810 0 l 579 0 l 579 116 l 463 116 m 463 926 l 463 1042 l 694 1042 l 694 926 l 579 926 l 579 810 l 347 810 l 347 926 l 463 926 z "},"έ":{"ha":926,"x_min":116,"x_max":810,"o":"m 231 116 l 116 116 l 116 347 l 231 347 l 231 463 l 116 463 l 116 579 l 231 579 l 231 694 l 810 694 l 810 579 l 347 579 l 347 463 l 579 463 l 579 347 l 347 347 l 347 116 l 810 116 l 810 0 l 231 0 l 231 116 m 463 810 l 463 926 l 579 926 l 579 1042 l 810 1042 l 810 926 l 694 926 l 694 810 l 463 810 z "},"ή":{"ha":926,"x_min":0,"x_max":810,"o":"m 0 579 l 0 694 l 231 694 l 231 579 l 347 579 l 347 0 l 116 0 l 116 579 l 0 579 m 347 579 l 347 694 l 694 694 l 694 579 l 810 579 l 810 -231 l 579 -231 l 579 579 l 347 579 m 347 810 l 347 926 l 463 926 l 463 1042 l 694 1042 l 694 926 l 579 926 l 579 810 l 347 810 z "},"ί":{"ha":926,"x_min":231,"x_max":694,"o":"m 231 116 l 231 694 l 463 694 l 463 116 l 579 116 l 579 0 l 347 0 l 347 116 l 231 116 m 347 810 l 347 926 l 463 926 l 463 1042 l 694 1042 l 694 926 l 579 926 l 579 810 l 347 810 m 579 116 l 579 231 l 694 231 l 694 116 l 579 116 z "},"ΰ":{"ha":926,"x_min":0,"x_max":810,"o":"m 0 116 l 0 579 l 231 579 l 231 116 l 463 116 l 463 579 l 810 579 l 810 463 l 694 463 l 694 116 l 579 116 l 579 0 l 116 0 l 116 116 l 0 116 m 0 694 l 0 926 l 231 926 l 231 694 l 0 694 m 463 694 l 463 926 l 694 926 l 694 694 l 463 694 m 463 1042 l 463 1157 l 579 1157 l 579 1042 l 463 1042 m 463 926 l 347 926 l 347 1042 l 463 1042 l 463 926 z "},"α":{"ha":926,"x_min":0,"x_max":810,"o":"m 0 116 l 0 579 l 116 579 l 116 694 l 463 694 l 463 579 l 231 579 l 231 116 l 463 116 l 463 0 l 116 0 l 116 116 l 0 116 m 463 116 l 463 579 l 579 579 l 579 694 l 694 694 l 694 116 l 810 116 l 810 0 l 579 0 l 579 116 l 463 116 z "},"β":{"ha":926,"x_min":0,"x_max":810,"o":"m 0 -231 l 0 926 l 116 926 l 116 1042 l 579 1042 l 579 926 l 694 926 l 694 579 l 579 579 l 579 463 l 694 463 l 694 347 l 810 347 l 810 116 l 694 116 l 694 0 l 231 0 l 231 -116 l 116 -116 l 116 -231 l 0 -231 m 231 116 l 579 116 l 579 347 l 231 347 l 231 116 m 231 463 l 347 463 l 347 579 l 463 579 l 463 926 l 231 926 l 231 463 z "},"γ":{"ha":926,"x_min":0,"x_max":810,"o":"m 0 579 l 0 694 l 231 694 l 231 579 l 347 579 l 347 463 l 463 463 l 463 579 l 579 579 l 579 694 l 810 694 l 810 579 l 694 579 l 694 463 l 579 463 l 579 231 l 694 231 l 694 -116 l 579 -116 l 579 -231 l 231 -231 l 231 -116 l 116 -116 l 116 231 l 231 231 l 231 463 l 116 463 l 116 579 l 0 579 m 463 231 l 347 231 l 347 -116 l 463 -116 l 463 231 z "},"δ":{"ha":926,"x_min":116,"x_max":810,"o":"m 231 116 l 116 116 l 116 463 l 231 463 l 231 579 l 463 579 l 463 694 l 347 694 l 347 810 l 231 810 l 231 926 l 347 926 l 347 1042 l 810 1042 l 810 926 l 463 926 l 463 810 l 579 810 l 579 694 l 694 694 l 694 579 l 810 579 l 810 116 l 694 116 l 694 0 l 231 0 l 231 116 m 347 116 l 579 116 l 579 463 l 347 463 l 347 116 z "},"ε":{"ha":926,"x_min":116,"x_max":810,"o":"m 116 116 l 116 347 l 231 347 l 231 463 l 116 463 l 116 579 l 231 579 l 231 694 l 810 694 l 810 579 l 347 579 l 347 463 l 579 463 l 579 347 l 347 347 l 347 116 l 810 116 l 810 0 l 231 0 l 231 116 l 116 116 z "},"ζ":{"ha":926,"x_min":0,"x_max":810,"o":"m 0 231 l 0 579 l 116 579 l 116 694 l 231 694 l 231 810 l 116 810 l 116 926 l 0 926 l 0 1042 l 231 1042 l 231 926 l 694 926 l 694 810 l 463 810 l 463 694 l 347 694 l 347 579 l 231 579 l 231 231 l 347 231 l 347 116 l 694 116 l 694 0 l 810 0 l 810 -116 l 694 -116 l 694 -231 l 347 -231 l 347 -116 l 579 -116 l 579 0 l 231 0 l 231 116 l 116 116 l 116 231 l 0 231 z "},"η":{"ha":926,"x_min":0,"x_max":810,"o":"m 0 579 l 0 694 l 231 694 l 231 579 l 347 579 l 347 0 l 116 0 l 116 579 l 0 579 m 347 579 l 347 694 l 694 694 l 694 579 l 810 579 l 810 -231 l 579 -231 l 579 579 l 347 579 z "},"θ":{"ha":926,"x_min":0,"x_max":810,"o":"m 0 347 l 0 463 l 231 463 l 231 347 l 347 347 l 347 116 l 579 116 l 579 463 l 347 463 l 347 579 l 231 579 l 231 694 l 116 694 l 116 926 l 231 926 l 231 1042 l 694 1042 l 694 926 l 810 926 l 810 116 l 694 116 l 694 0 l 231 0 l 231 116 l 116 116 l 116 347 l 0 347 m 463 579 l 579 579 l 579 926 l 347 926 l 347 694 l 463 694 l 463 579 z "},"ι":{"ha":926,"x_min":231,"x_max":694,"o":"m 463 116 l 579 116 l 579 0 l 347 0 l 347 116 l 231 116 l 231 694 l 463 694 l 463 116 m 579 116 l 579 231 l 694 231 l 694 116 l 579 116 z "},"κ":{"ha":926,"x_min":0,"x_max":810,"o":"m 0 0 l 0 694 l 231 694 l 231 347 l 347 347 l 347 463 l 463 463 l 463 579 l 579 579 l 579 694 l 810 694 l 810 579 l 694 579 l 694 463 l 579 463 l 579 231 l 694 231 l 694 116 l 810 116 l 810 0 l 579 0 l 579 116 l 463 116 l 463 231 l 347 231 l 347 116 l 231 116 l 231 0 l 0 0 z "},"λ":{"ha":926,"x_min":116,"x_max":810,"o":"m 116 0 l 116 463 l 231 463 l 231 579 l 579 579 l 579 926 l 347 926 l 347 810 l 116 810 l 116 926 l 231 926 l 231 1042 l 694 1042 l 694 926 l 810 926 l 810 0 l 579 0 l 579 463 l 347 463 l 347 0 l 116 0 z "},"μ":{"ha":926,"x_min":0,"x_max":810,"o":"m 0 -231 l 0 694 l 231 694 l 231 231 l 347 231 l 347 116 l 231 116 l 231 -231 l 0 -231 m 347 116 l 463 116 l 463 694 l 694 694 l 694 116 l 579 116 l 579 0 l 347 0 l 347 116 m 694 116 l 810 116 l 810 0 l 694 0 l 694 116 z "},"ν":{"ha":926,"x_min":0,"x_max":810,"o":"m 0 579 l 0 694 l 347 694 l 347 231 l 463 231 l 463 347 l 579 347 l 579 694 l 810 694 l 810 347 l 694 347 l 694 231 l 579 231 l 579 116 l 463 116 l 463 0 l 231 0 l 231 116 l 116 116 l 116 579 l 0 579 z "},"ξ":{"ha":926,"x_min":0,"x_max":810,"o":"m 0 116 l 0 347 l 116 347 l 116 579 l 0 579 l 0 694 l 116 694 l 116 926 l 0 926 l 0 1042 l 231 1042 l 231 926 l 694 926 l 694 810 l 347 810 l 347 694 l 231 694 l 231 579 l 694 579 l 694 463 l 347 463 l 347 347 l 231 347 l 231 116 l 694 116 l 694 0 l 810 0 l 810 -116 l 694 -116 l 694 -231 l 231 -231 l 231 -116 l 579 -116 l 579 0 l 116 0 l 116 116 l 0 116 z "},"ο":{"ha":926,"x_min":0,"x_max":810,"o":"m 0 116 l 0 579 l 116 579 l 116 694 l 694 694 l 694 579 l 810 579 l 810 116 l 694 116 l 694 0 l 116 0 l 116 116 l 0 116 m 231 116 l 579 116 l 579 579 l 231 579 l 231 116 z "},"π":{"ha":926,"x_min":0,"x_max":926,"o":"m 0 579 l 0 694 l 926 694 l 926 579 l 810 579 l 810 0 l 579 0 l 579 579 l 347 579 l 347 0 l 116 0 l 116 579 l 0 579 z "},"ρ":{"ha":926,"x_min":0,"x_max":810,"o":"m 0 -231 l 0 579 l 116 579 l 116 694 l 694 694 l 694 579 l 810 579 l 810 116 l 694 116 l 694 0 l 347 0 l 347 116 l 579 116 l 579 579 l 231 579 l 231 231 l 347 231 l 347 116 l 231 116 l 231 -231 l 0 -231 z "},"ς":{"ha":926,"x_min":0,"x_max":810,"o":"m 0 579 l 116 579 l 116 694 l 694 694 l 694 579 l 810 579 l 810 463 l 579 463 l 579 579 l 231 579 l 231 347 l 347 347 l 347 231 l 694 231 l 694 116 l 810 116 l 810 -116 l 694 -116 l 694 -231 l 116 -231 l 116 -116 l 579 -116 l 579 116 l 231 116 l 231 231 l 116 231 l 116 347 l 0 347 l 0 579 z "},"σ":{"ha":926,"x_min":0,"x_max":810,"o":"m 0 116 l 0 579 l 116 579 l 116 694 l 810 694 l 810 579 l 579 579 l 579 463 l 694 463 l 694 116 l 579 116 l 579 0 l 116 0 l 116 116 l 0 116 m 231 116 l 463 116 l 463 579 l 231 579 l 231 116 z "},"τ":{"ha":926,"x_min":116,"x_max":810,"o":"m 116 579 l 116 694 l 810 694 l 810 579 l 579 579 l 579 116 l 694 116 l 694 0 l 463 0 l 463 116 l 347 116 l 347 579 l 116 579 m 694 116 l 694 231 l 810 231 l 810 116 l 694 116 z "},"υ":{"ha":926,"x_min":0,"x_max":810,"o":"m 0 116 l 0 694 l 231 694 l 231 116 l 463 116 l 463 694 l 810 694 l 810 579 l 694 579 l 694 116 l 579 116 l 579 0 l 116 0 l 116 116 l 0 116 z "},"φ":{"ha":926,"x_min":0,"x_max":810,"o":"m 0 116 l 0 463 l 116 463 l 116 579 l 231 579 l 231 116 l 347 116 l 347 694 l 694 694 l 694 579 l 810 579 l 810 116 l 694 116 l 694 0 l 463 0 l 463 -231 l 347 -231 l 347 0 l 116 0 l 116 116 l 0 116 m 463 116 l 579 116 l 579 579 l 463 579 l 463 116 z "},"χ":{"ha":926,"x_min":0,"x_max":810,"o":"m 0 0 l 0 116 l 116 116 l 116 0 l 0 0 m 0 579 l 0 694 l 231 694 l 231 579 l 347 579 l 347 463 l 463 463 l 463 579 l 694 579 l 694 463 l 579 463 l 579 231 l 694 231 l 694 116 l 810 116 l 810 0 l 579 0 l 579 116 l 463 116 l 463 231 l 347 231 l 347 116 l 116 116 l 116 231 l 231 231 l 231 463 l 116 463 l 116 579 l 0 579 m 694 579 l 694 694 l 810 694 l 810 579 l 694 579 z "},"ψ":{"ha":926,"x_min":0,"x_max":810,"o":"m 0 231 l 0 694 l 231 694 l 231 231 l 347 231 l 347 579 l 463 579 l 463 231 l 579 231 l 579 694 l 810 694 l 810 231 l 694 231 l 694 116 l 463 116 l 463 -231 l 347 -231 l 347 116 l 116 116 l 116 231 l 0 231 z "},"ω":{"ha":926,"x_min":0,"x_max":810,"o":"m 0 116 l 0 579 l 116 579 l 116 694 l 231 694 l 231 116 l 347 116 l 347 0 l 116 0 l 116 116 l 0 116 m 347 116 l 347 347 l 463 347 l 463 116 l 347 116 m 463 116 l 579 116 l 579 694 l 694 694 l 694 579 l 810 579 l 810 116 l 694 116 l 694 0 l 463 0 l 463 116 z "},"ϊ":{"ha":926,"x_min":0,"x_max":694,"o":"m 0 810 l 0 1042 l 231 1042 l 231 810 l 0 810 m 231 116 l 231 694 l 463 694 l 463 116 l 579 116 l 579 0 l 347 0 l 347 116 l 231 116 m 463 810 l 463 1042 l 694 1042 l 694 810 l 463 810 m 579 116 l 579 231 l 694 231 l 694 116 l 579 116 z "},"ϋ":{"ha":926,"x_min":0,"x_max":810,"o":"m 0 116 l 0 694 l 231 694 l 231 116 l 463 116 l 463 694 l 810 694 l 810 579 l 694 579 l 694 116 l 579 116 l 579 0 l 116 0 l 116 116 l 0 116 m 0 810 l 0 1042 l 231 1042 l 231 810 l 0 810 m 463 810 l 463 1042 l 694 1042 l 694 810 l 463 810 z "},"ό":{"ha":926,"x_min":0,"x_max":810,"o":"m 0 116 l 0 579 l 116 579 l 116 694 l 694 694 l 694 579 l 810 579 l 810 116 l 694 116 l 694 0 l 116 0 l 116 116 l 0 116 m 231 116 l 579 116 l 579 579 l 231 579 l 231 116 m 347 810 l 347 926 l 463 926 l 463 1042 l 694 1042 l 694 926 l 579 926 l 579 810 l 347 810 z "},"ύ":{"ha":926,"x_min":0,"x_max":810,"o":"m 0 116 l 0 694 l 231 694 l 231 116 l 463 116 l 463 694 l 810 694 l 810 579 l 694 579 l 694 116 l 579 116 l 579 0 l 116 0 l 116 116 l 0 116 m 347 810 l 347 926 l 463 926 l 463 1042 l 694 1042 l 694 926 l 579 926 l 579 810 l 347 810 z "},"ώ":{"ha":926,"x_min":0,"x_max":810,"o":"m 0 116 l 0 579 l 116 579 l 116 694 l 231 694 l 231 116 l 347 116 l 347 0 l 116 0 l 116 116 l 0 116 m 463 116 l 579 116 l 579 694 l 694 694 l 694 579 l 810 579 l 810 116 l 694 116 l 694 0 l 463 0 l 463 116 m 463 347 l 463 116 l 347 116 l 347 347 l 463 347 m 463 926 l 463 1042 l 694 1042 l 694 926 l 579 926 l 579 810 l 347 810 l 347 926 l 463 926 z "},"ϐ":{"ha":926,"x_min":0,"x_max":810,"o":"m 0 -116 l 0 694 l 116 694 l 116 810 l 694 810 l 694 694 l 810 694 l 810 579 l 694 579 l 694 463 l 810 463 l 810 231 l 694 231 l 694 116 l 231 116 l 231 -231 l 116 -231 l 116 -116 l 0 -116 m 231 231 l 579 231 l 579 463 l 231 463 l 231 231 m 231 579 l 579 579 l 579 694 l 231 694 l 231 579 z "},"ϴ":{"ha":926,"x_min":0,"x_max":810,"o":"m 0 231 l 0 810 l 116 810 l 116 926 l 231 926 l 231 1042 l 579 1042 l 579 926 l 694 926 l 694 810 l 810 810 l 810 231 l 694 231 l 694 116 l 579 116 l 579 0 l 231 0 l 231 116 l 116 116 l 116 231 l 0 231 m 231 231 l 347 231 l 347 116 l 463 116 l 463 231 l 579 231 l 579 463 l 231 463 l 231 231 m 231 579 l 579 579 l 579 810 l 463 810 l 463 926 l 347 926 l 347 810 l 231 810 l 231 579 z "},"Ѐ":{"ha":926,"x_min":0,"x_max":810,"o":"m 0 0 l 0 116 l 116 116 l 116 810 l 0 810 l 0 926 l 347 926 l 347 1042 l 231 1042 l 231 1157 l 463 1157 l 463 1042 l 579 1042 l 579 926 l 810 926 l 810 579 l 694 579 l 694 694 l 579 694 l 579 810 l 347 810 l 347 579 l 579 579 l 579 463 l 347 463 l 347 116 l 579 116 l 579 231 l 694 231 l 694 347 l 810 347 l 810 0 l 0 0 z "},"Ё":{"ha":926,"x_min":0,"x_max":810,"o":"m 0 0 l 0 116 l 116 116 l 116 810 l 0 810 l 0 926 l 810 926 l 810 579 l 694 579 l 694 694 l 579 694 l 579 810 l 347 810 l 347 579 l 579 579 l 579 463 l 347 463 l 347 116 l 579 116 l 579 231 l 694 231 l 694 347 l 810 347 l 810 0 l 0 0 m 463 1042 l 463 1157 l 694 1157 l 694 1042 l 463 1042 m 116 1042 l 116 1157 l 347 1157 l 347 1042 l 116 1042 z "},"Ђ":{"ha":926,"x_min":0,"x_max":810,"o":"m 0 0 l 0 116 l 116 116 l 116 926 l 0 926 l 0 1042 l 579 1042 l 579 926 l 347 926 l 347 579 l 463 579 l 463 463 l 347 463 l 347 0 l 0 0 m 463 0 l 463 116 l 579 116 l 579 579 l 463 579 l 463 694 l 694 694 l 694 579 l 810 579 l 810 116 l 694 116 l 694 0 l 463 0 z "},"Ѓ":{"ha":926,"x_min":0,"x_max":810,"o":"m 0 0 l 0 116 l 116 116 l 116 694 l 0 694 l 0 810 l 810 810 l 810 463 l 694 463 l 694 579 l 579 579 l 579 694 l 347 694 l 347 116 l 463 116 l 463 0 l 0 0 m 347 926 l 347 1042 l 463 1042 l 463 1157 l 694 1157 l 694 1042 l 579 1042 l 579 926 l 347 926 z "},"Є":{"ha":926,"x_min":0,"x_max":810,"o":"m 0 231 l 0 810 l 116 810 l 116 926 l 231 926 l 231 1042 l 694 1042 l 694 926 l 810 926 l 810 810 l 579 810 l 579 926 l 347 926 l 347 810 l 231 810 l 231 579 l 579 579 l 579 694 l 694 694 l 694 347 l 579 347 l 579 463 l 231 463 l 231 231 l 347 231 l 347 116 l 579 116 l 579 231 l 810 231 l 810 116 l 694 116 l 694 0 l 231 0 l 231 116 l 116 116 l 116 231 l 0 231 z "},"Ѕ":{"ha":926,"x_min":0,"x_max":810,"o":"m 0 116 l 0 347 l 231 347 l 231 116 l 579 116 l 579 347 l 463 347 l 463 463 l 231 463 l 231 579 l 116 579 l 116 694 l 0 694 l 0 926 l 116 926 l 116 1042 l 694 1042 l 694 926 l 810 926 l 810 694 l 579 694 l 579 926 l 231 926 l 231 694 l 347 694 l 347 579 l 579 579 l 579 463 l 694 463 l 694 347 l 810 347 l 810 116 l 694 116 l 694 0 l 116 0 l 116 116 l 0 116 z "},"І":{"ha":926,"x_min":231,"x_max":694,"o":"m 579 116 l 694 116 l 694 0 l 231 0 l 231 116 l 347 116 l 347 926 l 231 926 l 231 1042 l 694 1042 l 694 926 l 579 926 l 579 116 z "},"Ї":{"ha":926,"x_min":116,"x_max":810,"o":"m 116 1042 l 116 1157 l 347 1157 l 347 1042 l 116 1042 m 231 0 l 231 116 l 347 116 l 347 810 l 231 810 l 231 926 l 694 926 l 694 810 l 579 810 l 579 116 l 694 116 l 694 0 l 231 0 m 579 1042 l 579 1157 l 810 1157 l 810 1042 l 579 1042 z "},"Ј":{"ha":926,"x_min":0,"x_max":810,"o":"m 0 116 l 0 347 l 231 347 l 231 116 l 463 116 l 463 926 l 347 926 l 347 1042 l 810 1042 l 810 926 l 694 926 l 694 116 l 579 116 l 579 0 l 116 0 l 116 116 l 0 116 z "},"Љ":{"ha":926,"x_min":0,"x_max":810,"o":"m 0 0 l 0 116 l 116 116 l 116 926 l 0 926 l 0 1042 l 694 1042 l 694 926 l 579 926 l 579 579 l 694 579 l 694 463 l 579 463 l 579 116 l 694 116 l 694 0 l 347 0 l 347 926 l 231 926 l 231 0 l 0 0 m 694 116 l 694 463 l 810 463 l 810 116 l 694 116 z "},"Њ":{"ha":926,"x_min":0,"x_max":810,"o":"m 0 0 l 0 1042 l 231 1042 l 231 579 l 347 579 l 347 1042 l 579 1042 l 579 579 l 694 579 l 694 463 l 579 463 l 579 116 l 694 116 l 694 0 l 347 0 l 347 463 l 231 463 l 231 0 l 0 0 m 694 116 l 694 463 l 810 463 l 810 116 l 694 116 z "},"Ћ":{"ha":926,"x_min":0,"x_max":810,"o":"m 0 0 l 0 116 l 116 116 l 116 926 l 0 926 l 0 1042 l 694 1042 l 694 926 l 347 926 l 347 579 l 694 579 l 694 463 l 810 463 l 810 0 l 579 0 l 579 463 l 347 463 l 347 0 l 0 0 z "},"Ќ":{"ha":926,"x_min":0,"x_max":810,"o":"m 0 0 l 0 810 l 231 810 l 231 463 l 347 463 l 347 579 l 463 579 l 463 694 l 579 694 l 579 810 l 810 810 l 810 579 l 579 579 l 579 463 l 463 463 l 463 347 l 579 347 l 579 231 l 810 231 l 810 0 l 579 0 l 579 116 l 463 116 l 463 231 l 347 231 l 347 347 l 231 347 l 231 0 l 0 0 m 463 1042 l 463 1157 l 694 1157 l 694 1042 l 579 1042 l 579 926 l 347 926 l 347 1042 l 463 1042 z "},"Ѝ":{"ha":926,"x_min":0,"x_max":810,"o":"m 0 0 l 0 926 l 231 926 l 231 463 l 347 463 l 347 579 l 463 579 l 463 694 l 579 694 l 579 926 l 810 926 l 810 0 l 579 0 l 579 463 l 463 463 l 463 347 l 347 347 l 347 231 l 231 231 l 231 0 l 0 0 m 231 1042 l 231 1157 l 463 1157 l 463 1042 l 579 1042 l 579 926 l 347 926 l 347 1042 l 231 1042 z "},"Ў":{"ha":926,"x_min":0,"x_max":810,"o":"m 0 116 l 0 231 l 231 231 l 231 116 l 579 116 l 579 347 l 116 347 l 116 463 l 0 463 l 0 810 l 231 810 l 231 463 l 579 463 l 579 810 l 810 810 l 810 116 l 694 116 l 694 0 l 116 0 l 116 116 l 0 116 m 231 1042 l 116 1042 l 116 1157 l 347 1157 l 347 1042 l 463 1042 l 463 1157 l 694 1157 l 694 1042 l 579 1042 l 579 926 l 231 926 l 231 1042 z "},"Џ":{"ha":926,"x_min":0,"x_max":810,"o":"m 0 0 l 0 116 l 116 116 l 116 926 l 0 926 l 0 1042 l 347 1042 l 347 116 l 463 116 l 463 1042 l 810 1042 l 810 926 l 694 926 l 694 116 l 810 116 l 810 0 l 463 0 l 463 -116 l 347 -116 l 347 0 l 0 0 z "},"А":{"ha":926,"x_min":0,"x_max":810,"o":"m 0 0 l 0 694 l 116 694 l 116 810 l 231 810 l 231 926 l 347 926 l 347 1042 l 810 1042 l 810 0 l 579 0 l 579 347 l 231 347 l 231 0 l 0 0 m 231 463 l 579 463 l 579 926 l 463 926 l 463 810 l 347 810 l 347 694 l 231 694 l 231 463 z "},"Б":{"ha":926,"x_min":0,"x_max":810,"o":"m 0 0 l 0 116 l 116 116 l 116 926 l 0 926 l 0 1042 l 810 1042 l 810 694 l 694 694 l 694 810 l 579 810 l 579 926 l 347 926 l 347 579 l 694 579 l 694 463 l 810 463 l 810 116 l 694 116 l 694 0 l 0 0 m 347 116 l 579 116 l 579 463 l 347 463 l 347 116 z "},"В":{"ha":926,"x_min":0,"x_max":810,"o":"m 0 0 l 0 116 l 116 116 l 116 926 l 0 926 l 0 1042 l 694 1042 l 694 926 l 810 926 l 810 579 l 694 579 l 694 463 l 810 463 l 810 116 l 694 116 l 694 0 l 0 0 m 347 116 l 579 116 l 579 463 l 347 463 l 347 116 m 347 579 l 579 579 l 579 926 l 347 926 l 347 579 z "},"Г":{"ha":926,"x_min":0,"x_max":810,"o":"m 0 0 l 0 116 l 116 116 l 116 926 l 0 926 l 0 1042 l 810 1042 l 810 694 l 694 694 l 694 810 l 579 810 l 579 926 l 347 926 l 347 116 l 463 116 l 463 0 l 0 0 z "},"Д":{"ha":926,"x_min":0,"x_max":926,"o":"m 0 116 l 116 116 l 116 810 l 231 810 l 231 926 l 347 926 l 347 1042 l 810 1042 l 810 116 l 926 116 l 926 -231 l 810 -231 l 810 -116 l 694 -116 l 694 0 l 231 0 l 231 -116 l 116 -116 l 116 -231 l 0 -231 l 0 116 m 463 810 l 347 810 l 347 116 l 579 116 l 579 926 l 463 926 l 463 810 z "},"Е":{"ha":926,"x_min":0,"x_max":810,"o":"m 0 0 l 0 116 l 116 116 l 116 926 l 0 926 l 0 1042 l 810 1042 l 810 694 l 694 694 l 694 810 l 579 810 l 579 926 l 347 926 l 347 579 l 463 579 l 463 694 l 579 694 l 579 347 l 463 347 l 463 463 l 347 463 l 347 116 l 579 116 l 579 231 l 694 231 l 694 347 l 810 347 l 810 0 l 0 0 z "},"Ж":{"ha":926,"x_min":0,"x_max":810,"o":"m 0 0 l 0 347 l 116 347 l 116 810 l 0 810 l 0 1042 l 231 1042 l 231 694 l 347 694 l 347 1042 l 463 1042 l 463 694 l 579 694 l 579 1042 l 810 1042 l 810 810 l 694 810 l 694 347 l 810 347 l 810 0 l 579 0 l 579 463 l 463 463 l 463 0 l 347 0 l 347 463 l 231 463 l 231 0 l 0 0 z "},"З":{"ha":926,"x_min":0,"x_max":810,"o":"m 0 116 l 0 347 l 116 347 l 116 231 l 231 231 l 231 116 l 579 116 l 579 463 l 231 463 l 231 579 l 579 579 l 579 926 l 231 926 l 231 810 l 116 810 l 116 694 l 0 694 l 0 926 l 116 926 l 116 1042 l 694 1042 l 694 926 l 810 926 l 810 579 l 694 579 l 694 463 l 810 463 l 810 116 l 694 116 l 694 0 l 116 0 l 116 116 l 0 116 z "},"И":{"ha":926,"x_min":0,"x_max":810,"o":"m 0 0 l 0 1042 l 231 1042 l 231 463 l 347 463 l 347 579 l 463 579 l 463 694 l 579 694 l 579 1042 l 810 1042 l 810 0 l 579 0 l 579 463 l 463 463 l 463 347 l 347 347 l 347 231 l 231 231 l 231 0 l 0 0 z "},"Й":{"ha":926,"x_min":0,"x_max":810,"o":"m 0 0 l 0 926 l 231 926 l 231 463 l 347 463 l 347 579 l 463 579 l 463 694 l 579 694 l 579 926 l 810 926 l 810 0 l 579 0 l 579 463 l 463 463 l 463 347 l 347 347 l 347 231 l 231 231 l 231 0 l 0 0 m 231 1042 l 116 1042 l 116 1157 l 347 1157 l 347 1042 l 463 1042 l 463 1157 l 694 1157 l 694 1042 l 579 1042 l 579 926 l 231 926 l 231 1042 z "},"К":{"ha":926,"x_min":0,"x_max":810,"o":"m 0 0 l 0 116 l 116 116 l 116 926 l 0 926 l 0 1042 l 347 1042 l 347 579 l 463 579 l 463 810 l 579 810 l 579 1042 l 810 1042 l 810 810 l 694 810 l 694 579 l 579 579 l 579 463 l 694 463 l 694 231 l 810 231 l 810 0 l 579 0 l 579 231 l 463 231 l 463 463 l 347 463 l 347 0 l 0 0 z "},"Л":{"ha":926,"x_min":0,"x_max":810,"o":"m 0 0 l 0 116 l 116 116 l 116 810 l 231 810 l 231 926 l 347 926 l 347 1042 l 810 1042 l 810 0 l 579 0 l 579 926 l 463 926 l 463 810 l 347 810 l 347 116 l 231 116 l 231 0 l 0 0 z "},"М":{"ha":926,"x_min":0,"x_max":810,"o":"m 0 0 l 0 1042 l 231 1042 l 231 926 l 347 926 l 347 810 l 463 810 l 463 926 l 579 926 l 579 1042 l 810 1042 l 810 0 l 579 0 l 579 579 l 463 579 l 463 463 l 347 463 l 347 579 l 231 579 l 231 0 l 0 0 z "},"Н":{"ha":926,"x_min":0,"x_max":810,"o":"m 0 0 l 0 1042 l 231 1042 l 231 579 l 579 579 l 579 1042 l 810 1042 l 810 0 l 579 0 l 579 463 l 231 463 l 231 0 l 0 0 z "},"О":{"ha":926,"x_min":0,"x_max":810,"o":"m 0 231 l 0 810 l 116 810 l 116 926 l 231 926 l 231 1042 l 579 1042 l 579 926 l 694 926 l 694 810 l 810 810 l 810 231 l 694 231 l 694 116 l 579 116 l 579 0 l 231 0 l 231 116 l 116 116 l 116 231 l 0 231 m 231 231 l 347 231 l 347 116 l 463 116 l 463 231 l 579 231 l 579 810 l 463 810 l 463 926 l 347 926 l 347 810 l 231 810 l 231 231 z "},"П":{"ha":926,"x_min":0,"x_max":810,"o":"m 0 0 l 0 1042 l 810 1042 l 810 0 l 579 0 l 579 926 l 231 926 l 231 0 l 0 0 z "},"Р":{"ha":926,"x_min":0,"x_max":810,"o":"m 0 0 l 0 116 l 116 116 l 116 926 l 0 926 l 0 1042 l 694 1042 l 694 926 l 810 926 l 810 579 l 694 579 l 694 463 l 347 463 l 347 116 l 463 116 l 463 0 l 0 0 m 347 579 l 579 579 l 579 926 l 347 926 l 347 579 z "},"С":{"ha":926,"x_min":0,"x_max":810,"o":"m 0 116 l 0 926 l 116 926 l 116 1042 l 694 1042 l 694 926 l 810 926 l 810 694 l 579 694 l 579 926 l 231 926 l 231 116 l 579 116 l 579 231 l 694 231 l 694 347 l 810 347 l 810 116 l 694 116 l 694 0 l 116 0 l 116 116 l 0 116 z "},"Т":{"ha":926,"x_min":116,"x_max":810,"o":"m 116 694 l 116 1042 l 810 1042 l 810 694 l 694 694 l 694 810 l 579 810 l 579 116 l 694 116 l 694 0 l 231 0 l 231 116 l 347 116 l 347 810 l 231 810 l 231 694 l 116 694 z "},"У":{"ha":926,"x_min":0,"x_max":810,"o":"m 0 116 l 0 231 l 231 231 l 231 116 l 579 116 l 579 463 l 116 463 l 116 579 l 0 579 l 0 1042 l 231 1042 l 231 579 l 579 579 l 579 1042 l 810 1042 l 810 116 l 694 116 l 694 0 l 116 0 l 116 116 l 0 116 z "},"Ф":{"ha":926,"x_min":0,"x_max":926,"o":"m 0 347 l 0 694 l 116 694 l 116 810 l 347 810 l 347 926 l 231 926 l 231 1042 l 694 1042 l 694 926 l 579 926 l 579 810 l 810 810 l 810 694 l 926 694 l 926 347 l 810 347 l 810 231 l 579 231 l 579 116 l 694 116 l 694 0 l 231 0 l 231 116 l 347 116 l 347 231 l 116 231 l 116 347 l 0 347 m 231 347 l 347 347 l 347 694 l 231 694 l 231 347 m 694 347 l 694 694 l 579 694 l 579 347 l 694 347 z "},"Х":{"ha":926,"x_min":0,"x_max":810,"o":"m 0 231 l 116 231 l 116 347 l 231 347 l 231 694 l 116 694 l 116 810 l 0 810 l 0 1042 l 231 1042 l 231 810 l 347 810 l 347 694 l 463 694 l 463 810 l 579 810 l 579 1042 l 810 1042 l 810 810 l 694 810 l 694 694 l 579 694 l 579 347 l 694 347 l 694 231 l 810 231 l 810 0 l 579 0 l 579 231 l 463 231 l 463 347 l 347 347 l 347 231 l 231 231 l 231 0 l 0 0 l 0 231 z "},"Ц":{"ha":926,"x_min":0,"x_max":810,"o":"m 0 0 l 0 1042 l 231 1042 l 231 116 l 463 116 l 463 1042 l 694 1042 l 694 116 l 810 116 l 810 -116 l 694 -116 l 694 -231 l 463 -231 l 463 -116 l 579 -116 l 579 0 l 0 0 z "},"Ч":{"ha":926,"x_min":0,"x_max":810,"o":"m 0 463 l 0 1042 l 231 1042 l 231 463 l 579 463 l 579 1042 l 810 1042 l 810 0 l 579 0 l 579 347 l 116 347 l 116 463 l 0 463 z "},"Ш":{"ha":926,"x_min":0,"x_max":810,"o":"m 0 0 l 0 1042 l 231 1042 l 231 116 l 347 116 l 347 1042 l 463 1042 l 463 116 l 579 116 l 579 1042 l 810 1042 l 810 0 l 0 0 z "},"Щ":{"ha":926,"x_min":0,"x_max":926,"o":"m 0 0 l 0 1042 l 231 1042 l 231 116 l 347 116 l 347 1042 l 463 1042 l 463 116 l 579 116 l 579 1042 l 810 1042 l 810 116 l 926 116 l 926 -116 l 810 -116 l 810 -231 l 579 -231 l 579 -116 l 694 -116 l 694 0 l 0 0 z "},"Ъ":{"ha":926,"x_min":0,"x_max":810,"o":"m 0 694 l 0 1042 l 463 1042 l 463 694 l 694 694 l 694 579 l 810 579 l 810 116 l 694 116 l 694 0 l 116 0 l 116 116 l 231 116 l 231 810 l 116 810 l 116 694 l 0 694 m 463 116 l 579 116 l 579 579 l 463 579 l 463 116 z "},"Ы":{"ha":926,"x_min":0,"x_max":810,"o":"m 0 0 l 0 1042 l 231 1042 l 231 694 l 463 694 l 463 579 l 579 579 l 579 116 l 463 116 l 463 0 l 0 0 m 231 116 l 347 116 l 347 579 l 231 579 l 231 116 m 579 116 l 694 116 l 694 579 l 579 579 l 579 1042 l 810 1042 l 810 0 l 579 0 l 579 116 z "},"Ь":{"ha":926,"x_min":0,"x_max":810,"o":"m 0 0 l 0 116 l 116 116 l 116 926 l 0 926 l 0 1042 l 463 1042 l 463 926 l 347 926 l 347 694 l 694 694 l 694 579 l 810 579 l 810 116 l 694 116 l 694 0 l 0 0 m 347 116 l 579 116 l 579 579 l 347 579 l 347 116 z "},"Э":{"ha":926,"x_min":0,"x_max":810,"o":"m 0 116 l 0 231 l 231 231 l 231 116 l 463 116 l 463 231 l 579 231 l 579 463 l 231 463 l 231 347 l 116 347 l 116 694 l 231 694 l 231 579 l 579 579 l 579 810 l 463 810 l 463 926 l 231 926 l 231 810 l 0 810 l 0 926 l 116 926 l 116 1042 l 579 1042 l 579 926 l 694 926 l 694 810 l 810 810 l 810 231 l 694 231 l 694 116 l 579 116 l 579 0 l 116 0 l 116 116 l 0 116 z "},"Ю":{"ha":926,"x_min":0,"x_max":926,"o":"m 0 0 l 0 1042 l 231 1042 l 231 579 l 347 579 l 347 926 l 463 926 l 463 1042 l 810 1042 l 810 926 l 926 926 l 926 116 l 810 116 l 810 0 l 463 0 l 463 116 l 347 116 l 347 463 l 231 463 l 231 0 l 0 0 m 579 116 l 694 116 l 694 926 l 579 926 l 579 116 z "},"Я":{"ha":926,"x_min":0,"x_max":810,"o":"m 0 0 l 0 116 l 116 116 l 116 463 l 231 463 l 231 579 l 116 579 l 116 926 l 231 926 l 231 1042 l 810 1042 l 810 926 l 694 926 l 694 116 l 810 116 l 810 0 l 463 0 l 463 463 l 347 463 l 347 0 l 0 0 m 347 579 l 463 579 l 463 926 l 347 926 l 347 579 z "},"а":{"ha":926,"x_min":0,"x_max":810,"o":"m 0 116 l 0 347 l 116 347 l 116 463 l 463 463 l 463 579 l 116 579 l 116 694 l 579 694 l 579 579 l 694 579 l 694 116 l 810 116 l 810 0 l 579 0 l 579 116 l 463 116 l 463 347 l 231 347 l 231 116 l 463 116 l 463 0 l 116 0 l 116 116 l 0 116 z "},"б":{"ha":926,"x_min":0,"x_max":810,"o":"m 0 116 l 0 694 l 116 694 l 116 810 l 463 810 l 463 926 l 694 926 l 694 810 l 579 810 l 579 694 l 231 694 l 231 463 l 694 463 l 694 347 l 810 347 l 810 116 l 694 116 l 694 0 l 116 0 l 116 116 l 0 116 m 231 116 l 579 116 l 579 347 l 231 347 l 231 116 z "},"в":{"ha":926,"x_min":0,"x_max":810,"o":"m 0 0 l 0 116 l 116 116 l 116 579 l 0 579 l 0 694 l 694 694 l 694 579 l 810 579 l 810 463 l 694 463 l 694 347 l 810 347 l 810 116 l 694 116 l 694 0 l 0 0 m 347 116 l 579 116 l 579 347 l 347 347 l 347 116 m 347 579 l 347 463 l 579 463 l 579 579 l 347 579 z "},"г":{"ha":926,"x_min":0,"x_max":810,"o":"m 0 0 l 0 116 l 116 116 l 116 579 l 0 579 l 0 694 l 810 694 l 810 347 l 694 347 l 694 463 l 579 463 l 579 579 l 347 579 l 347 116 l 463 116 l 463 0 l 0 0 z "},"д":{"ha":926,"x_min":0,"x_max":810,"o":"m 0 -116 l 0 347 l 116 347 l 116 463 l 231 463 l 231 694 l 694 694 l 694 116 l 810 116 l 810 -116 l 579 -116 l 579 0 l 231 0 l 231 -116 l 0 -116 m 231 116 l 463 116 l 463 463 l 347 463 l 347 347 l 231 347 l 231 116 z "},"е":{"ha":926,"x_min":0,"x_max":810,"o":"m 0 116 l 0 579 l 116 579 l 116 694 l 694 694 l 694 579 l 810 579 l 810 347 l 231 347 l 231 116 l 579 116 l 579 231 l 810 231 l 810 116 l 694 116 l 694 0 l 116 0 l 116 116 l 0 116 m 231 579 l 231 463 l 579 463 l 579 579 l 231 579 z "},"ж":{"ha":926,"x_min":0,"x_max":810,"o":"m 0 0 l 0 116 l 116 116 l 116 579 l 0 579 l 0 694 l 231 694 l 231 463 l 347 463 l 347 694 l 463 694 l 463 463 l 579 463 l 579 694 l 810 694 l 810 579 l 694 579 l 694 116 l 810 116 l 810 0 l 579 0 l 579 347 l 463 347 l 463 0 l 347 0 l 347 347 l 231 347 l 231 0 l 0 0 z "},"з":{"ha":926,"x_min":0,"x_max":810,"o":"m 0 116 l 0 231 l 231 231 l 231 116 l 579 116 l 579 347 l 347 347 l 347 463 l 579 463 l 579 579 l 231 579 l 231 463 l 0 463 l 0 579 l 116 579 l 116 694 l 694 694 l 694 579 l 810 579 l 810 463 l 694 463 l 694 347 l 810 347 l 810 116 l 694 116 l 694 0 l 116 0 l 116 116 l 0 116 z "},"и":{"ha":926,"x_min":0,"x_max":810,"o":"m 0 0 l 0 694 l 231 694 l 231 347 l 347 347 l 347 463 l 463 463 l 463 579 l 579 579 l 579 694 l 810 694 l 810 0 l 579 0 l 579 347 l 463 347 l 463 231 l 347 231 l 347 116 l 231 116 l 231 0 l 0 0 z "},"й":{"ha":926,"x_min":0,"x_max":810,"o":"m 0 0 l 0 694 l 231 694 l 231 347 l 347 347 l 347 463 l 463 463 l 463 579 l 579 579 l 579 694 l 810 694 l 810 0 l 579 0 l 579 347 l 463 347 l 463 231 l 347 231 l 347 116 l 231 116 l 231 0 l 0 0 m 231 810 l 116 810 l 116 926 l 347 926 l 347 810 l 463 810 l 463 926 l 694 926 l 694 810 l 579 810 l 579 694 l 231 694 l 231 810 z "},"к":{"ha":926,"x_min":0,"x_max":810,"o":"m 0 0 l 0 116 l 116 116 l 116 579 l 0 579 l 0 694 l 347 694 l 347 463 l 463 463 l 463 579 l 579 579 l 579 694 l 810 694 l 810 579 l 694 579 l 694 463 l 579 463 l 579 347 l 694 347 l 694 231 l 810 231 l 810 0 l 579 0 l 579 231 l 463 231 l 463 347 l 347 347 l 347 0 l 0 0 z "},"л":{"ha":926,"x_min":0,"x_max":810,"o":"m 0 0 l 0 116 l 116 116 l 116 463 l 231 463 l 231 579 l 347 579 l 347 694 l 810 694 l 810 0 l 579 0 l 579 579 l 463 579 l 463 463 l 347 463 l 347 0 l 0 0 z "},"м":{"ha":926,"x_min":0,"x_max":810,"o":"m 0 0 l 0 694 l 231 694 l 231 579 l 347 579 l 347 463 l 463 463 l 463 579 l 579 579 l 579 694 l 810 694 l 810 0 l 579 0 l 579 347 l 463 347 l 463 116 l 347 116 l 347 347 l 231 347 l 231 0 l 0 0 z "},"н":{"ha":926,"x_min":0,"x_max":810,"o":"m 0 0 l 0 694 l 231 694 l 231 463 l 579 463 l 579 694 l 810 694 l 810 0 l 579 0 l 579 347 l 231 347 l 231 0 l 0 0 z "},"о":{"ha":926,"x_min":0,"x_max":810,"o":"m 0 116 l 0 579 l 116 579 l 116 694 l 694 694 l 694 579 l 810 579 l 810 116 l 694 116 l 694 0 l 116 0 l 116 116 l 0 116 m 231 116 l 579 116 l 579 579 l 231 579 l 231 116 z "},"п":{"ha":926,"x_min":0,"x_max":810,"o":"m 0 0 l 0 694 l 810 694 l 810 0 l 579 0 l 579 579 l 231 579 l 231 0 l 0 0 z "},"р":{"ha":926,"x_min":0,"x_max":810,"o":"m 0 -231 l 0 -116 l 116 -116 l 116 579 l 0 579 l 0 694 l 231 694 l 231 579 l 347 579 l 347 231 l 579 231 l 579 579 l 347 579 l 347 694 l 694 694 l 694 579 l 810 579 l 810 231 l 694 231 l 694 116 l 347 116 l 347 -116 l 463 -116 l 463 -231 l 0 -231 z "},"с":{"ha":926,"x_min":0,"x_max":810,"o":"m 0 116 l 0 579 l 116 579 l 116 694 l 694 694 l 694 579 l 810 579 l 810 463 l 579 463 l 579 579 l 231 579 l 231 116 l 579 116 l 579 231 l 810 231 l 810 116 l 694 116 l 694 0 l 116 0 l 116 116 l 0 116 z "},"т":{"ha":926,"x_min":116,"x_max":810,"o":"m 116 463 l 116 694 l 810 694 l 810 463 l 694 463 l 694 579 l 579 579 l 579 116 l 694 116 l 694 0 l 231 0 l 231 116 l 347 116 l 347 579 l 231 579 l 231 463 l 116 463 z "},"у":{"ha":926,"x_min":0,"x_max":810,"o":"m 0 231 l 0 694 l 231 694 l 231 231 l 579 231 l 579 694 l 810 694 l 810 0 l 694 0 l 694 -116 l 579 -116 l 579 -231 l 116 -231 l 116 -116 l 463 -116 l 463 0 l 579 0 l 579 116 l 116 116 l 116 231 l 0 231 z "},"ф":{"ha":926,"x_min":0,"x_max":926,"o":"m 0 231 l 0 579 l 116 579 l 116 694 l 347 694 l 347 1042 l 579 1042 l 579 694 l 810 694 l 810 579 l 926 579 l 926 231 l 810 231 l 810 116 l 579 116 l 579 -231 l 347 -231 l 347 116 l 116 116 l 116 231 l 0 231 m 231 231 l 347 231 l 347 579 l 231 579 l 231 231 m 694 231 l 694 579 l 579 579 l 579 231 l 694 231 z "},"х":{"ha":926,"x_min":0,"x_max":810,"o":"m 0 0 l 0 116 l 116 116 l 116 231 l 231 231 l 231 463 l 116 463 l 116 579 l 0 579 l 0 694 l 231 694 l 231 579 l 347 579 l 347 463 l 463 463 l 463 579 l 579 579 l 579 694 l 810 694 l 810 579 l 694 579 l 694 463 l 579 463 l 579 231 l 694 231 l 694 116 l 810 116 l 810 0 l 579 0 l 579 116 l 463 116 l 463 231 l 347 231 l 347 116 l 231 116 l 231 0 l 0 0 z "},"ц":{"ha":926,"x_min":0,"x_max":810,"o":"m 0 0 l 0 694 l 231 694 l 231 116 l 463 116 l 463 694 l 694 694 l 694 116 l 810 116 l 810 -116 l 694 -116 l 694 -231 l 463 -231 l 463 -116 l 579 -116 l 579 0 l 0 0 z "},"ч":{"ha":926,"x_min":0,"x_max":810,"o":"m 0 347 l 0 694 l 231 694 l 231 347 l 579 347 l 579 694 l 810 694 l 810 0 l 579 0 l 579 231 l 116 231 l 116 347 l 0 347 z "},"ш":{"ha":926,"x_min":0,"x_max":810,"o":"m 0 0 l 0 694 l 231 694 l 231 116 l 347 116 l 347 694 l 463 694 l 463 116 l 579 116 l 579 694 l 810 694 l 810 0 l 0 0 z "},"щ":{"ha":926,"x_min":0,"x_max":926,"o":"m 0 0 l 0 694 l 231 694 l 231 116 l 347 116 l 347 694 l 463 694 l 463 116 l 579 116 l 579 694 l 810 694 l 810 116 l 926 116 l 926 -116 l 810 -116 l 810 -231 l 579 -231 l 579 -116 l 694 -116 l 694 0 l 0 0 z "},"ъ":{"ha":926,"x_min":0,"x_max":810,"o":"m 0 463 l 0 694 l 463 694 l 463 463 l 694 463 l 694 347 l 810 347 l 810 116 l 694 116 l 694 0 l 116 0 l 116 116 l 231 116 l 231 579 l 116 579 l 116 463 l 0 463 m 463 116 l 579 116 l 579 347 l 463 347 l 463 116 z "},"ы":{"ha":926,"x_min":0,"x_max":926,"o":"m 0 0 l 0 694 l 231 694 l 231 463 l 463 463 l 463 347 l 579 347 l 579 116 l 463 116 l 463 0 l 0 0 m 926 0 l 694 0 l 694 694 l 926 694 l 926 0 m 231 116 l 347 116 l 347 347 l 231 347 l 231 116 z "},"ь":{"ha":926,"x_min":116,"x_max":810,"o":"m 116 0 l 116 116 l 231 116 l 231 579 l 116 579 l 116 694 l 463 694 l 463 463 l 694 463 l 694 347 l 810 347 l 810 116 l 694 116 l 694 0 l 116 0 m 463 116 l 579 116 l 579 347 l 463 347 l 463 116 z "},"э":{"ha":926,"x_min":0,"x_max":810,"o":"m 0 116 l 0 231 l 231 231 l 231 116 l 579 116 l 579 347 l 347 347 l 347 463 l 579 463 l 579 579 l 231 579 l 231 463 l 0 463 l 0 579 l 116 579 l 116 694 l 694 694 l 694 579 l 810 579 l 810 116 l 694 116 l 694 0 l 116 0 l 116 116 l 0 116 z "},"ю":{"ha":926,"x_min":0,"x_max":926,"o":"m 0 0 l 0 694 l 231 694 l 231 463 l 347 463 l 347 579 l 463 579 l 463 694 l 810 694 l 810 579 l 926 579 l 926 116 l 810 116 l 810 0 l 463 0 l 463 116 l 347 116 l 347 347 l 231 347 l 231 0 l 0 0 m 579 116 l 694 116 l 694 579 l 579 579 l 579 116 z "},"я":{"ha":926,"x_min":0,"x_max":810,"o":"m 0 0 l 0 116 l 116 116 l 116 231 l 231 231 l 231 347 l 116 347 l 116 579 l 231 579 l 231 694 l 810 694 l 810 579 l 694 579 l 694 116 l 810 116 l 810 0 l 463 0 l 463 231 l 347 231 l 347 0 l 0 0 m 347 347 l 463 347 l 463 579 l 347 579 l 347 347 z "},"ѐ":{"ha":926,"x_min":0,"x_max":810,"o":"m 0 116 l 0 579 l 116 579 l 116 694 l 694 694 l 694 579 l 810 579 l 810 347 l 231 347 l 231 116 l 579 116 l 579 231 l 810 231 l 810 116 l 694 116 l 694 0 l 116 0 l 116 116 l 0 116 m 231 579 l 231 463 l 579 463 l 579 579 l 231 579 m 231 1042 l 116 1042 l 116 1157 l 347 1157 l 347 1042 l 463 1042 l 463 926 l 579 926 l 579 810 l 347 810 l 347 926 l 231 926 l 231 1042 z "},"ё":{"ha":926,"x_min":0,"x_max":810,"o":"m 0 116 l 0 579 l 116 579 l 116 694 l 694 694 l 694 579 l 810 579 l 810 347 l 231 347 l 231 116 l 579 116 l 579 231 l 810 231 l 810 116 l 694 116 l 694 0 l 116 0 l 116 116 l 0 116 m 231 579 l 231 463 l 579 463 l 579 579 l 231 579 m 463 810 l 463 926 l 694 926 l 694 810 l 463 810 m 116 810 l 116 926 l 347 926 l 347 810 l 116 810 z "},"ђ":{"ha":926,"x_min":0,"x_max":810,"o":"m 0 0 l 0 116 l 116 116 l 116 810 l 0 810 l 0 926 l 116 926 l 116 1042 l 347 1042 l 347 926 l 579 926 l 579 810 l 347 810 l 347 579 l 694 579 l 694 463 l 810 463 l 810 -116 l 694 -116 l 694 -231 l 579 -231 l 579 463 l 347 463 l 347 0 l 0 0 z "},"ѓ":{"ha":926,"x_min":0,"x_max":810,"o":"m 0 0 l 0 116 l 116 116 l 116 579 l 0 579 l 0 694 l 810 694 l 810 463 l 694 463 l 694 579 l 347 579 l 347 116 l 463 116 l 463 0 l 0 0 m 347 810 l 347 926 l 463 926 l 463 1042 l 694 1042 l 694 926 l 579 926 l 579 810 l 347 810 z "},"є":{"ha":926,"x_min":0,"x_max":810,"o":"m 0 116 l 0 579 l 116 579 l 116 694 l 694 694 l 694 579 l 810 579 l 810 463 l 579 463 l 579 579 l 231 579 l 231 463 l 463 463 l 463 347 l 231 347 l 231 116 l 579 116 l 579 231 l 810 231 l 810 116 l 694 116 l 694 0 l 116 0 l 116 116 l 0 116 z "},"ѕ":{"ha":926,"x_min":0,"x_max":810,"o":"m 0 116 l 0 231 l 231 231 l 231 116 l 579 116 l 579 231 l 347 231 l 347 347 l 116 347 l 116 463 l 0 463 l 0 579 l 116 579 l 116 694 l 694 694 l 694 579 l 810 579 l 810 463 l 579 463 l 579 579 l 231 579 l 231 463 l 463 463 l 463 347 l 694 347 l 694 231 l 810 231 l 810 116 l 694 116 l 694 0 l 116 0 l 116 116 l 0 116 z "},"і":{"ha":926,"x_min":231,"x_max":694,"o":"m 231 0 l 231 116 l 347 116 l 347 579 l 231 579 l 231 694 l 579 694 l 579 116 l 694 116 l 694 0 l 231 0 m 347 810 l 347 1042 l 579 1042 l 579 810 l 347 810 z "},"ї":{"ha":926,"x_min":116,"x_max":810,"o":"m 116 810 l 116 926 l 347 926 l 347 810 l 116 810 m 231 0 l 231 116 l 347 116 l 347 579 l 231 579 l 231 694 l 579 694 l 579 116 l 694 116 l 694 0 l 231 0 m 579 810 l 579 926 l 810 926 l 810 810 l 579 810 z "},"ј":{"ha":926,"x_min":116,"x_max":810,"o":"m 116 116 l 347 116 l 347 -116 l 579 -116 l 579 579 l 463 579 l 463 694 l 810 694 l 810 -116 l 694 -116 l 694 -231 l 231 -231 l 231 -116 l 116 -116 l 116 116 m 579 810 l 579 1042 l 810 1042 l 810 810 l 579 810 z "},"љ":{"ha":926,"x_min":0,"x_max":810,"o":"m 0 0 l 0 116 l 116 116 l 116 579 l 0 579 l 0 694 l 694 694 l 694 579 l 579 579 l 579 463 l 694 463 l 694 347 l 579 347 l 579 116 l 694 116 l 694 0 l 347 0 l 347 579 l 231 579 l 231 0 l 0 0 m 694 116 l 694 347 l 810 347 l 810 116 l 694 116 z "},"њ":{"ha":926,"x_min":0,"x_max":810,"o":"m 0 0 l 0 694 l 231 694 l 231 463 l 347 463 l 347 694 l 579 694 l 579 463 l 694 463 l 694 347 l 579 347 l 579 116 l 694 116 l 694 0 l 347 0 l 347 347 l 231 347 l 231 0 l 0 0 m 694 116 l 694 347 l 810 347 l 810 116 l 694 116 z "},"ћ":{"ha":926,"x_min":0,"x_max":810,"o":"m 0 0 l 0 116 l 116 116 l 116 810 l 0 810 l 0 926 l 116 926 l 116 1042 l 347 1042 l 347 926 l 579 926 l 579 810 l 347 810 l 347 579 l 694 579 l 694 463 l 810 463 l 810 0 l 579 0 l 579 463 l 347 463 l 347 0 l 0 0 z "},"ќ":{"ha":926,"x_min":0,"x_max":810,"o":"m 0 0 l 0 116 l 116 116 l 116 579 l 0 579 l 0 694 l 347 694 l 347 463 l 463 463 l 463 579 l 579 579 l 579 694 l 810 694 l 810 579 l 694 579 l 694 463 l 579 463 l 579 347 l 694 347 l 694 231 l 810 231 l 810 0 l 579 0 l 579 231 l 463 231 l 463 347 l 347 347 l 347 0 l 0 0 m 231 810 l 231 926 l 347 926 l 347 1042 l 579 1042 l 579 926 l 463 926 l 463 810 l 231 810 z "},"ѝ":{"ha":926,"x_min":0,"x_max":810,"o":"m 0 0 l 0 694 l 231 694 l 231 347 l 347 347 l 347 463 l 463 463 l 463 579 l 579 579 l 579 694 l 810 694 l 810 0 l 579 0 l 579 347 l 463 347 l 463 231 l 347 231 l 347 116 l 231 116 l 231 0 l 0 0 m 231 1042 l 116 1042 l 116 1157 l 347 1157 l 347 1042 l 463 1042 l 463 926 l 579 926 l 579 810 l 347 810 l 347 926 l 231 926 l 231 1042 z "},"ў":{"ha":926,"x_min":0,"x_max":810,"o":"m 0 231 l 0 694 l 231 694 l 231 231 l 579 231 l 579 694 l 810 694 l 810 0 l 694 0 l 694 -116 l 579 -116 l 579 -231 l 116 -231 l 116 -116 l 463 -116 l 463 0 l 579 0 l 579 116 l 116 116 l 116 231 l 0 231 m 231 810 l 231 926 l 116 926 l 116 1042 l 347 1042 l 347 926 l 463 926 l 463 1042 l 694 1042 l 694 926 l 579 926 l 579 810 l 231 810 z "},"џ":{"ha":926,"x_min":0,"x_max":810,"o":"m 0 0 l 0 116 l 116 116 l 116 579 l 0 579 l 0 694 l 347 694 l 347 116 l 463 116 l 463 694 l 810 694 l 810 579 l 694 579 l 694 116 l 810 116 l 810 0 l 463 0 l 463 -116 l 347 -116 l 347 0 l 0 0 z "},"Ґ":{"ha":926,"x_min":0,"x_max":810,"o":"m 0 0 l 0 116 l 116 116 l 116 810 l 0 810 l 0 926 l 579 926 l 579 1042 l 694 1042 l 694 1157 l 810 1157 l 810 810 l 347 810 l 347 116 l 463 116 l 463 0 l 0 0 z "},"ґ":{"ha":926,"x_min":0,"x_max":810,"o":"m 0 0 l 0 116 l 116 116 l 116 579 l 0 579 l 0 694 l 579 694 l 579 810 l 694 810 l 694 926 l 810 926 l 810 579 l 347 579 l 347 116 l 463 116 l 463 0 l 0 0 z "},"־":{"ha":926,"x_min":116,"x_max":810,"o":"m 116 810 l 116 926 l 810 926 l 810 810 l 116 810 z "},"א":{"ha":926,"x_min":0,"x_max":810,"o":"m 0 0 l 0 463 l 116 463 l 116 694 l 0 694 l 0 926 l 231 926 l 231 694 l 347 694 l 347 579 l 463 579 l 463 463 l 579 463 l 579 926 l 810 926 l 810 463 l 694 463 l 694 231 l 810 231 l 810 0 l 579 0 l 579 231 l 463 231 l 463 347 l 347 347 l 347 463 l 231 463 l 231 0 l 0 0 z "},"ב":{"ha":926,"x_min":0,"x_max":810,"o":"m 0 0 l 0 116 l 463 116 l 463 810 l 0 810 l 0 926 l 579 926 l 579 810 l 694 810 l 694 116 l 810 116 l 810 0 l 0 0 z "},"ג":{"ha":926,"x_min":0,"x_max":810,"o":"m 0 0 l 0 116 l 116 116 l 116 231 l 231 231 l 231 347 l 463 347 l 463 810 l 231 810 l 231 926 l 579 926 l 579 810 l 694 810 l 694 116 l 810 116 l 810 0 l 579 0 l 579 116 l 463 116 l 463 231 l 347 231 l 347 116 l 231 116 l 231 0 l 0 0 z "},"ד":{"ha":926,"x_min":0,"x_max":810,"o":"m 463 0 l 463 810 l 0 810 l 0 926 l 810 926 l 810 810 l 694 810 l 694 0 l 463 0 z "},"ה":{"ha":926,"x_min":0,"x_max":810,"o":"m 0 0 l 0 463 l 231 463 l 231 0 l 0 0 m 0 810 l 0 926 l 694 926 l 694 810 l 810 810 l 810 0 l 579 0 l 579 810 l 0 810 z "},"ו":{"ha":926,"x_min":116,"x_max":579,"o":"m 463 810 l 579 810 l 579 0 l 347 0 l 347 810 l 116 810 l 116 926 l 463 926 l 463 810 z "},"ז":{"ha":926,"x_min":0,"x_max":694,"o":"m 0 810 l 0 926 l 694 926 l 694 810 l 463 810 l 463 463 l 579 463 l 579 231 l 463 231 l 463 116 l 347 116 l 347 0 l 116 0 l 116 116 l 231 116 l 231 231 l 347 231 l 347 463 l 231 463 l 231 810 l 0 810 z "},"ח":{"ha":926,"x_min":0,"x_max":810,"o":"m 0 0 l 0 694 l 116 694 l 116 810 l 0 810 l 0 926 l 694 926 l 694 810 l 810 810 l 810 0 l 579 0 l 579 810 l 347 810 l 347 694 l 231 694 l 231 0 l 0 0 z "},"ט":{"ha":926,"x_min":0,"x_max":810,"o":"m 0 116 l 0 926 l 231 926 l 231 116 l 463 116 l 463 231 l 579 231 l 579 810 l 463 810 l 463 926 l 694 926 l 694 810 l 810 810 l 810 231 l 694 231 l 694 116 l 579 116 l 579 0 l 116 0 l 116 116 l 0 116 m 347 579 l 347 810 l 463 810 l 463 579 l 347 579 z "},"י":{"ha":926,"x_min":116,"x_max":694,"o":"m 463 463 l 463 810 l 116 810 l 116 926 l 579 926 l 579 810 l 694 810 l 694 463 l 579 463 l 579 347 l 347 347 l 347 463 l 463 463 z "},"ך":{"ha":926,"x_min":0,"x_max":810,"o":"m 0 810 l 0 926 l 694 926 l 694 810 l 810 810 l 810 579 l 694 579 l 694 -116 l 810 -116 l 810 -231 l 463 -231 l 463 579 l 579 579 l 579 810 l 0 810 z "},"כ":{"ha":926,"x_min":0,"x_max":810,"o":"m 0 0 l 0 116 l 463 116 l 463 231 l 579 231 l 579 810 l 0 810 l 0 926 l 694 926 l 694 810 l 810 810 l 810 231 l 694 231 l 694 116 l 579 116 l 579 0 l 0 0 z "},"ל":{"ha":926,"x_min":0,"x_max":810,"o":"m 0 810 l 0 1157 l 231 1157 l 231 926 l 694 926 l 694 810 l 810 810 l 810 463 l 694 463 l 694 347 l 579 347 l 579 231 l 463 231 l 463 0 l 231 0 l 231 231 l 347 231 l 347 347 l 463 347 l 463 463 l 579 463 l 579 810 l 0 810 z "},"ם":{"ha":926,"x_min":0,"x_max":810,"o":"m 0 0 l 0 926 l 694 926 l 694 810 l 810 810 l 810 0 l 0 0 m 579 116 l 579 810 l 231 810 l 231 116 l 579 116 z "},"מ":{"ha":926,"x_min":0,"x_max":810,"o":"m 0 0 l 0 579 l 116 579 l 116 694 l 0 694 l 0 926 l 231 926 l 231 810 l 347 810 l 347 926 l 694 926 l 694 810 l 810 810 l 810 0 l 347 0 l 347 116 l 579 116 l 579 810 l 463 810 l 463 694 l 347 694 l 347 579 l 231 579 l 231 0 l 0 0 z "},"ן":{"ha":926,"x_min":231,"x_max":694,"o":"m 231 810 l 231 926 l 579 926 l 579 810 l 694 810 l 694 579 l 579 579 l 579 -116 l 694 -116 l 694 -231 l 347 -231 l 347 579 l 463 579 l 463 810 l 231 810 z "},"נ":{"ha":926,"x_min":116,"x_max":694,"o":"m 463 116 l 463 810 l 231 810 l 231 926 l 579 926 l 579 810 l 694 810 l 694 0 l 116 0 l 116 116 l 463 116 z "},"ס":{"ha":926,"x_min":0,"x_max":810,"o":"m 0 116 l 0 694 l 116 694 l 116 810 l 0 810 l 0 926 l 694 926 l 694 810 l 810 810 l 810 231 l 694 231 l 694 116 l 579 116 l 579 0 l 116 0 l 116 116 l 0 116 m 231 116 l 463 116 l 463 231 l 579 231 l 579 810 l 347 810 l 347 694 l 231 694 l 231 116 z "},"ע":{"ha":926,"x_min":0,"x_max":810,"o":"m 0 0 l 0 116 l 347 116 l 347 231 l 231 231 l 231 347 l 116 347 l 116 926 l 347 926 l 347 347 l 463 347 l 463 231 l 579 231 l 579 926 l 810 926 l 810 231 l 694 231 l 694 116 l 579 116 l 579 0 l 0 0 z "},"ף":{"ha":926,"x_min":0,"x_max":810,"o":"m 0 463 l 0 694 l 116 694 l 116 810 l 0 810 l 0 926 l 579 926 l 579 810 l 694 810 l 694 -116 l 810 -116 l 810 -231 l 463 -231 l 463 810 l 231 810 l 231 579 l 347 579 l 347 463 l 0 463 z "},"פ":{"ha":926,"x_min":0,"x_max":810,"o":"m 0 0 l 0 116 l 579 116 l 579 810 l 231 810 l 231 579 l 347 579 l 347 463 l 0 463 l 0 694 l 116 694 l 116 810 l 0 810 l 0 926 l 694 926 l 694 810 l 810 810 l 810 0 l 0 0 z "},"ץ":{"ha":926,"x_min":0,"x_max":694,"o":"m 0 -231 l 0 926 l 231 926 l 231 347 l 347 347 l 347 463 l 463 463 l 463 926 l 694 926 l 694 463 l 579 463 l 579 347 l 463 347 l 463 231 l 231 231 l 231 -116 l 347 -116 l 347 -231 l 0 -231 z "},"צ":{"ha":926,"x_min":0,"x_max":810,"o":"m 0 0 l 0 116 l 579 116 l 579 231 l 463 231 l 463 347 l 347 347 l 347 463 l 231 463 l 231 579 l 116 579 l 116 694 l 0 694 l 0 926 l 231 926 l 231 694 l 347 694 l 347 579 l 579 579 l 579 926 l 810 926 l 810 579 l 694 579 l 694 463 l 579 463 l 579 347 l 694 347 l 694 231 l 810 231 l 810 0 l 0 0 z "},"ק":{"ha":926,"x_min":0,"x_max":810,"o":"m 0 810 l 0 926 l 694 926 l 694 810 l 810 810 l 810 463 l 694 463 l 694 231 l 810 231 l 810 116 l 463 116 l 463 463 l 579 463 l 579 810 l 0 810 m 116 -231 l 116 579 l 347 579 l 347 -231 l 116 -231 z "},"ר":{"ha":926,"x_min":0,"x_max":810,"o":"m 0 810 l 0 926 l 694 926 l 694 810 l 810 810 l 810 0 l 579 0 l 579 810 l 0 810 z "},"ש":{"ha":926,"x_min":0,"x_max":810,"o":"m 0 116 l 0 926 l 231 926 l 231 347 l 347 347 l 347 926 l 463 926 l 463 231 l 231 231 l 231 116 l 579 116 l 579 926 l 810 926 l 810 116 l 694 116 l 694 0 l 116 0 l 116 116 l 0 116 z "},"ת":{"ha":926,"x_min":0,"x_max":810,"o":"m 0 0 l 0 116 l 116 116 l 116 810 l 0 810 l 0 926 l 694 926 l 694 810 l 810 810 l 810 0 l 579 0 l 579 810 l 347 810 l 347 0 l 0 0 z "},"װ":{"ha":926,"x_min":0,"x_max":810,"o":"m 0 810 l 0 926 l 231 926 l 231 810 l 347 810 l 347 0 l 116 0 l 116 810 l 0 810 m 463 810 l 463 926 l 694 926 l 694 810 l 810 810 l 810 0 l 579 0 l 579 810 l 463 810 z "},"ױ":{"ha":926,"x_min":0,"x_max":810,"o":"m 0 810 l 0 926 l 231 926 l 231 810 l 347 810 l 347 347 l 116 347 l 116 810 l 0 810 m 463 810 l 463 926 l 694 926 l 694 810 l 810 810 l 810 0 l 579 0 l 579 810 l 463 810 z "},"ײ":{"ha":926,"x_min":0,"x_max":810,"o":"m 0 810 l 0 926 l 231 926 l 231 810 l 347 810 l 347 347 l 116 347 l 116 810 l 0 810 m 463 810 l 463 926 l 694 926 l 694 810 l 810 810 l 810 347 l 579 347 l 579 810 l 463 810 z "},"׳":{"ha":926,"x_min":231,"x_max":579,"o":"m 463 810 l 463 694 l 231 694 l 231 810 l 347 810 l 347 1042 l 579 1042 l 579 810 l 463 810 z "},"״":{"ha":926,"x_min":0,"x_max":810,"o":"m 0 694 l 0 810 l 116 810 l 116 1042 l 347 1042 l 347 810 l 231 810 l 231 694 l 0 694 m 463 694 l 463 810 l 579 810 l 579 1042 l 810 1042 l 810 810 l 694 810 l 694 694 l 463 694 z "},"ᴛ":{"ha":926,"x_min":0,"x_max":810,"o":"m 0 579 l 0 694 l 116 694 l 116 810 l 463 810 l 463 694 l 579 694 l 579 810 l 810 810 l 810 694 l 694 694 l 694 579 l 579 579 l 579 0 l 347 0 l 347 694 l 231 694 l 231 579 l 0 579 z "},"ᴦ":{"ha":926,"x_min":0,"x_max":810,"o":"m 0 0 l 0 1042 l 810 1042 l 810 694 l 579 694 l 579 926 l 231 926 l 231 0 l 0 0 z "},"ᴨ":{"ha":926,"x_min":0,"x_max":810,"o":"m 463 0 l 463 694 l 347 694 l 347 0 l 116 0 l 116 694 l 0 694 l 0 810 l 810 810 l 810 694 l 694 694 l 694 0 l 463 0 z "},"Ẁ":{"ha":926,"x_min":0,"x_max":810,"o":"m 0 231 l 0 926 l 231 926 l 231 347 l 347 347 l 347 579 l 463 579 l 463 347 l 579 347 l 579 926 l 810 926 l 810 231 l 694 231 l 694 0 l 463 0 l 463 116 l 347 116 l 347 0 l 116 0 l 116 231 l 0 231 m 231 1042 l 116 1042 l 116 1157 l 347 1157 l 347 1042 l 463 1042 l 463 926 l 231 926 l 231 1042 z "},"ẁ":{"ha":926,"x_min":0,"x_max":810,"o":"m 0 116 l 0 694 l 231 694 l 231 231 l 347 231 l 347 463 l 463 463 l 463 231 l 579 231 l 579 694 l 810 694 l 810 116 l 694 116 l 694 0 l 463 0 l 463 116 l 347 116 l 347 0 l 116 0 l 116 116 l 0 116 m 231 1042 l 116 1042 l 116 1157 l 347 1157 l 347 1042 l 463 1042 l 463 926 l 579 926 l 579 810 l 347 810 l 347 926 l 231 926 l 231 1042 z "},"Ẃ":{"ha":926,"x_min":0,"x_max":810,"o":"m 0 231 l 0 926 l 231 926 l 231 347 l 347 347 l 347 579 l 463 579 l 463 347 l 579 347 l 579 926 l 810 926 l 810 231 l 694 231 l 694 0 l 463 0 l 463 116 l 347 116 l 347 0 l 116 0 l 116 231 l 0 231 m 463 1042 l 463 1157 l 694 1157 l 694 1042 l 579 1042 l 579 926 l 347 926 l 347 1042 l 463 1042 z "},"ẃ":{"ha":926,"x_min":0,"x_max":810,"o":"m 0 116 l 0 694 l 231 694 l 231 231 l 347 231 l 347 463 l 463 463 l 463 231 l 579 231 l 579 694 l 810 694 l 810 116 l 694 116 l 694 0 l 463 0 l 463 116 l 347 116 l 347 0 l 116 0 l 116 116 l 0 116 m 231 810 l 231 926 l 347 926 l 347 1042 l 463 1042 l 463 1157 l 694 1157 l 694 1042 l 579 1042 l 579 926 l 463 926 l 463 810 l 231 810 z "},"Ẅ":{"ha":926,"x_min":0,"x_max":810,"o":"m 0 231 l 0 810 l 231 810 l 231 347 l 347 347 l 347 579 l 463 579 l 463 347 l 579 347 l 579 810 l 810 810 l 810 231 l 694 231 l 694 0 l 463 0 l 463 116 l 347 116 l 347 0 l 116 0 l 116 231 l 0 231 m 0 1157 l 231 1157 l 231 926 l 0 926 l 0 1157 m 579 1157 l 810 1157 l 810 926 l 579 926 l 579 1157 z "},"ẅ":{"ha":926,"x_min":0,"x_max":810,"o":"m 0 116 l 0 694 l 231 694 l 231 231 l 347 231 l 347 463 l 463 463 l 463 231 l 579 231 l 579 694 l 810 694 l 810 116 l 694 116 l 694 0 l 463 0 l 463 116 l 347 116 l 347 0 l 116 0 l 116 116 l 0 116 m 0 810 l 0 1042 l 231 1042 l 231 810 l 0 810 m 579 810 l 579 1042 l 810 1042 l 810 810 l 579 810 z "},"ẟ":{"ha":926,"x_min":116,"x_max":810,"o":"m 231 116 l 116 116 l 116 463 l 231 463 l 231 579 l 463 579 l 463 694 l 347 694 l 347 810 l 231 810 l 231 926 l 347 926 l 347 1042 l 810 1042 l 810 926 l 463 926 l 463 810 l 579 810 l 579 694 l 694 694 l 694 579 l 810 579 l 810 116 l 694 116 l 694 0 l 231 0 l 231 116 m 347 116 l 579 116 l 579 463 l 347 463 l 347 116 z "},"Ỳ":{"ha":926,"x_min":116,"x_max":810,"o":"m 231 0 l 231 116 l 347 116 l 347 463 l 231 463 l 231 579 l 116 579 l 116 926 l 347 926 l 347 579 l 579 579 l 579 926 l 810 926 l 810 579 l 694 579 l 694 463 l 579 463 l 579 116 l 694 116 l 694 0 l 231 0 m 231 1042 l 231 1157 l 463 1157 l 463 1042 l 579 1042 l 579 926 l 347 926 l 347 1042 l 231 1042 z "},"ỳ":{"ha":926,"x_min":0,"x_max":810,"o":"m 0 -231 l 0 -116 l 463 -116 l 463 0 l 579 0 l 579 116 l 116 116 l 116 231 l 0 231 l 0 694 l 231 694 l 231 231 l 579 231 l 579 694 l 810 694 l 810 0 l 694 0 l 694 -116 l 579 -116 l 579 -231 l 0 -231 m 231 1042 l 116 1042 l 116 1157 l 347 1157 l 347 1042 l 463 1042 l 463 926 l 579 926 l 579 810 l 347 810 l 347 926 l 231 926 l 231 1042 z "},"‐":{"ha":926,"x_min":116,"x_max":810,"o":"m 116 463 l 116 579 l 810 579 l 810 463 l 116 463 z "},"‒":{"ha":926,"x_min":116,"x_max":694,"o":"m 116 463 l 116 579 l 694 579 l 694 463 l 116 463 z "},"–":{"ha":926,"x_min":116,"x_max":694,"o":"m 116 463 l 116 579 l 694 579 l 694 463 l 116 463 z "},"—":{"ha":926,"x_min":0,"x_max":926,"o":"m 0 463 l 0 579 l 926 579 l 926 463 l 0 463 z "},"―":{"ha":926,"x_min":0,"x_max":926,"o":"m 0 463 l 0 579 l 926 579 l 926 463 l 0 463 z "},"‗":{"ha":926,"x_min":0,"x_max":926,"o":"m 0 0 l 0 116 l 926 116 l 926 0 l 0 0 m 0 -231 l 0 -116 l 926 -116 l 926 -231 l 0 -231 z "},"‘":{"ha":926,"x_min":231,"x_max":579,"o":"m 463 810 l 231 810 l 231 1042 l 347 1042 l 347 1157 l 579 1157 l 579 1042 l 463 1042 l 463 810 z "},"’":{"ha":926,"x_min":231,"x_max":579,"o":"m 463 810 l 231 810 l 231 926 l 347 926 l 347 1157 l 579 1157 l 579 926 l 463 926 l 463 810 z "},"‚":{"ha":926,"x_min":231,"x_max":579,"o":"m 463 0 l 463 -116 l 231 -116 l 231 0 l 347 0 l 347 231 l 579 231 l 579 0 l 463 0 z "},"‛":{"ha":926,"x_min":231,"x_max":579,"o":"m 463 926 l 579 926 l 579 810 l 347 810 l 347 926 l 231 926 l 231 1157 l 463 1157 l 463 926 z "},"“":{"ha":926,"x_min":0,"x_max":810,"o":"m 0 810 l 0 1042 l 116 1042 l 116 1157 l 347 1157 l 347 1042 l 231 1042 l 231 810 l 0 810 m 463 810 l 463 1042 l 579 1042 l 579 1157 l 810 1157 l 810 1042 l 694 1042 l 694 810 l 463 810 z "},"”":{"ha":926,"x_min":0,"x_max":810,"o":"m 0 810 l 0 926 l 116 926 l 116 1157 l 347 1157 l 347 926 l 231 926 l 231 810 l 0 810 m 463 810 l 463 926 l 579 926 l 579 1157 l 810 1157 l 810 926 l 694 926 l 694 810 l 463 810 z "},"„":{"ha":926,"x_min":0,"x_max":810,"o":"m 0 -116 l 0 0 l 116 0 l 116 231 l 347 231 l 347 0 l 231 0 l 231 -116 l 0 -116 m 463 -116 l 463 0 l 579 0 l 579 231 l 810 231 l 810 0 l 694 0 l 694 -116 l 463 -116 z "},"‟":{"ha":926,"x_min":0,"x_max":810,"o":"m 0 1157 l 231 1157 l 231 926 l 347 926 l 347 810 l 116 810 l 116 926 l 0 926 l 0 1157 m 463 1157 l 694 1157 l 694 926 l 810 926 l 810 810 l 579 810 l 579 926 l 463 926 l 463 1157 z "},"†":{"ha":926,"x_min":116,"x_max":810,"o":"m 579 -116 l 347 -116 l 347 694 l 116 694 l 116 810 l 347 810 l 347 1157 l 579 1157 l 579 810 l 810 810 l 810 694 l 579 694 l 579 -116 z "},"‡":{"ha":926,"x_min":116,"x_max":810,"o":"m 116 231 l 116 347 l 347 347 l 347 694 l 116 694 l 116 810 l 347 810 l 347 1157 l 579 1157 l 579 810 l 810 810 l 810 694 l 579 694 l 579 347 l 810 347 l 810 231 l 579 231 l 579 -116 l 347 -116 l 347 231 l 116 231 z "},"•":{"ha":926,"x_min":231,"x_max":694,"o":"m 579 231 l 347 231 l 347 347 l 231 347 l 231 579 l 347 579 l 347 694 l 579 694 l 579 579 l 694 579 l 694 347 l 579 347 l 579 231 z "},"…":{"ha":926,"x_min":0,"x_max":926,"o":"m 0 231 l 231 231 l 231 0 l 0 0 l 0 231 m 926 231 l 926 0 l 694 0 l 694 231 l 926 231 m 579 231 l 579 0 l 347 0 l 347 231 l 579 231 z "},"‧":{"ha":926,"x_min":347,"x_max":579,"o":"m 579 579 l 579 347 l 347 347 l 347 579 l 579 579 z "},"‰":{"ha":926,"x_min":0,"x_max":926,"o":"m 0 116 l 0 231 l 116 231 l 116 347 l 231 347 l 231 463 l 347 463 l 347 579 l 463 579 l 463 694 l 579 694 l 579 810 l 810 810 l 810 694 l 694 694 l 694 579 l 579 579 l 579 463 l 463 463 l 463 347 l 347 347 l 347 231 l 231 231 l 231 116 l 0 116 m 0 579 l 0 810 l 231 810 l 231 579 l 0 579 m 694 231 l 926 231 l 926 0 l 694 0 l 694 231 m 347 231 l 579 231 l 579 0 l 347 0 l 347 231 z "},"′":{"ha":926,"x_min":231,"x_max":694,"o":"m 463 810 l 231 810 l 231 926 l 347 926 l 347 1042 l 463 1042 l 463 1157 l 694 1157 l 694 1042 l 579 1042 l 579 926 l 463 926 l 463 810 z "},"″":{"ha":926,"x_min":0,"x_max":810,"o":"m 0 810 l 0 926 l 116 926 l 116 1042 l 231 1042 l 231 1157 l 463 1157 l 463 1042 l 347 1042 l 347 926 l 231 926 l 231 810 l 0 810 m 347 810 l 347 926 l 463 926 l 463 1042 l 579 1042 l 579 1157 l 810 1157 l 810 1042 l 694 1042 l 694 926 l 579 926 l 579 810 l 347 810 z "},"‵":{"ha":926,"x_min":231,"x_max":694,"o":"m 463 810 l 463 926 l 347 926 l 347 1042 l 231 1042 l 231 1157 l 463 1157 l 463 1042 l 579 1042 l 579 926 l 694 926 l 694 810 l 463 810 z "},"‹":{"ha":926,"x_min":231,"x_max":694,"o":"m 231 463 l 231 579 l 347 579 l 347 694 l 463 694 l 463 810 l 694 810 l 694 694 l 579 694 l 579 579 l 463 579 l 463 463 l 579 463 l 579 347 l 694 347 l 694 231 l 463 231 l 463 347 l 347 347 l 347 463 l 231 463 z "},"›":{"ha":926,"x_min":231,"x_max":694,"o":"m 231 231 l 231 347 l 347 347 l 347 463 l 463 463 l 463 579 l 347 579 l 347 694 l 231 694 l 231 810 l 463 810 l 463 694 l 579 694 l 579 579 l 694 579 l 694 463 l 579 463 l 579 347 l 463 347 l 463 231 l 231 231 z "},"‼":{"ha":926,"x_min":116,"x_max":810,"o":"m 116 231 l 347 231 l 347 0 l 116 0 l 116 231 m 116 347 l 116 1042 l 347 1042 l 347 347 l 116 347 m 579 231 l 810 231 l 810 0 l 579 0 l 579 231 m 579 347 l 579 1042 l 810 1042 l 810 347 l 579 347 z "},"‾":{"ha":926,"x_min":116,"x_max":810,"o":"m 116 926 l 116 1042 l 810 1042 l 810 926 l 116 926 z "},"‿":{"ha":926,"x_min":0,"x_max":810,"o":"m 0 0 l 0 116 l 231 116 l 231 0 l 579 0 l 579 116 l 810 116 l 810 0 l 694 0 l 694 -116 l 116 -116 l 116 0 l 0 0 z "},"⁀":{"ha":926,"x_min":0,"x_max":810,"o":"m 0 926 l 0 1042 l 116 1042 l 116 1157 l 694 1157 l 694 1042 l 810 1042 l 810 926 l 579 926 l 579 1042 l 231 1042 l 231 926 l 0 926 z "},"⁄":{"ha":926,"x_min":0,"x_max":810,"o":"m 0 116 l 0 347 l 116 347 l 116 463 l 231 463 l 231 579 l 347 579 l 347 694 l 463 694 l 463 810 l 579 810 l 579 926 l 694 926 l 694 1042 l 810 1042 l 810 810 l 694 810 l 694 694 l 579 694 l 579 579 l 463 579 l 463 463 l 347 463 l 347 347 l 231 347 l 231 231 l 116 231 l 116 116 l 0 116 z "},"⁔":{"ha":926,"x_min":0,"x_max":810,"o":"m 0 -116 l 0 0 l 116 0 l 116 116 l 694 116 l 694 0 l 810 0 l 810 -116 l 579 -116 l 579 0 l 231 0 l 231 -116 l 0 -116 z "},"⁴":{"ha":926,"x_min":0,"x_max":579,"o":"m 0 694 l 0 810 l 116 810 l 116 926 l 231 926 l 231 810 l 347 810 l 347 926 l 231 926 l 231 1042 l 347 1042 l 347 1157 l 579 1157 l 579 463 l 347 463 l 347 694 l 0 694 z "},"⁵":{"ha":926,"x_min":0,"x_max":579,"o":"m 0 463 l 0 579 l 347 579 l 347 810 l 0 810 l 0 1157 l 579 1157 l 579 1042 l 231 1042 l 231 926 l 463 926 l 463 810 l 579 810 l 579 579 l 463 579 l 463 463 l 0 463 z "},"⁶":{"ha":926,"x_min":0,"x_max":579,"o":"m 0 579 l 0 1042 l 116 1042 l 116 1157 l 463 1157 l 463 1042 l 231 1042 l 231 926 l 463 926 l 463 810 l 579 810 l 579 579 l 463 579 l 463 463 l 116 463 l 116 579 l 0 579 m 231 579 l 347 579 l 347 810 l 231 810 l 231 579 z "},"⁷":{"ha":926,"x_min":0,"x_max":579,"o":"m 0 1157 l 579 1157 l 579 926 l 463 926 l 463 810 l 347 810 l 347 463 l 116 463 l 116 810 l 231 810 l 231 926 l 347 926 l 347 1042 l 116 1042 l 116 926 l 0 926 l 0 1157 z "},"⁸":{"ha":926,"x_min":0,"x_max":579,"o":"m 0 579 l 0 810 l 116 810 l 116 926 l 0 926 l 0 1042 l 116 1042 l 116 1157 l 463 1157 l 463 1042 l 579 1042 l 579 926 l 463 926 l 463 810 l 579 810 l 579 579 l 463 579 l 463 463 l 116 463 l 116 579 l 0 579 m 231 579 l 347 579 l 347 810 l 231 810 l 231 579 m 231 1042 l 231 926 l 347 926 l 347 1042 l 231 1042 z "},"⁹":{"ha":926,"x_min":0,"x_max":579,"o":"m 0 810 l 0 1042 l 116 1042 l 116 1157 l 463 1157 l 463 1042 l 579 1042 l 579 579 l 463 579 l 463 463 l 116 463 l 116 579 l 347 579 l 347 694 l 116 694 l 116 810 l 0 810 m 231 810 l 347 810 l 347 1042 l 231 1042 l 231 810 z "},"⁺":{"ha":926,"x_min":0,"x_max":694,"o":"m 463 579 l 231 579 l 231 810 l 0 810 l 0 926 l 231 926 l 231 1157 l 463 1157 l 463 926 l 694 926 l 694 810 l 463 810 l 463 579 z "},"⁻":{"ha":926,"x_min":116,"x_max":694,"o":"m 116 810 l 116 926 l 694 926 l 694 810 l 116 810 z "},"ⁿ":{"ha":926,"x_min":0,"x_max":694,"o":"m 0 1042 l 0 1157 l 231 1157 l 231 1042 l 347 1042 l 347 463 l 116 463 l 116 1042 l 0 1042 m 347 1042 l 347 1157 l 579 1157 l 579 1042 l 694 1042 l 694 463 l 463 463 l 463 1042 l 347 1042 z "},"₁":{"ha":926,"x_min":116,"x_max":579,"o":"m 463 0 l 579 0 l 579 -116 l 116 -116 l 116 0 l 231 0 l 231 347 l 116 347 l 116 463 l 231 463 l 231 579 l 463 579 l 463 0 z "},"₂":{"ha":926,"x_min":0,"x_max":579,"o":"m 0 116 l 116 116 l 116 231 l 231 231 l 231 347 l 347 347 l 347 463 l 231 463 l 231 347 l 0 347 l 0 463 l 116 463 l 116 579 l 463 579 l 463 463 l 579 463 l 579 347 l 463 347 l 463 231 l 347 231 l 347 116 l 231 116 l 231 0 l 463 0 l 463 116 l 579 116 l 579 -116 l 0 -116 l 0 116 z "},"₃":{"ha":926,"x_min":0,"x_max":579,"o":"m 0 -116 l 0 0 l 347 0 l 347 231 l 116 231 l 116 347 l 347 347 l 347 463 l 0 463 l 0 579 l 463 579 l 463 463 l 579 463 l 579 347 l 463 347 l 463 231 l 579 231 l 579 0 l 463 0 l 463 -116 l 0 -116 z "},"₄":{"ha":926,"x_min":0,"x_max":579,"o":"m 0 116 l 0 231 l 116 231 l 116 347 l 231 347 l 231 231 l 347 231 l 347 347 l 231 347 l 231 463 l 347 463 l 347 579 l 579 579 l 579 -116 l 347 -116 l 347 116 l 0 116 z "},"₅":{"ha":926,"x_min":0,"x_max":579,"o":"m 0 -116 l 0 0 l 347 0 l 347 231 l 0 231 l 0 579 l 579 579 l 579 463 l 231 463 l 231 347 l 463 347 l 463 231 l 579 231 l 579 0 l 463 0 l 463 -116 l 0 -116 z "},"₆":{"ha":926,"x_min":0,"x_max":579,"o":"m 0 0 l 0 463 l 116 463 l 116 579 l 463 579 l 463 463 l 231 463 l 231 347 l 463 347 l 463 231 l 579 231 l 579 0 l 463 0 l 463 -116 l 116 -116 l 116 0 l 0 0 m 231 0 l 347 0 l 347 231 l 231 231 l 231 0 z "},"₇":{"ha":926,"x_min":0,"x_max":579,"o":"m 0 579 l 579 579 l 579 347 l 463 347 l 463 231 l 347 231 l 347 -116 l 116 -116 l 116 231 l 231 231 l 231 347 l 347 347 l 347 463 l 116 463 l 116 347 l 0 347 l 0 579 z "},"₈":{"ha":926,"x_min":0,"x_max":579,"o":"m 0 231 l 116 231 l 116 347 l 0 347 l 0 463 l 116 463 l 116 579 l 463 579 l 463 463 l 579 463 l 579 347 l 463 347 l 463 231 l 579 231 l 579 0 l 463 0 l 463 -116 l 116 -116 l 116 0 l 0 0 l 0 231 m 231 0 l 347 0 l 347 231 l 231 231 l 231 0 m 231 463 l 231 347 l 347 347 l 347 463 l 231 463 z "},"₉":{"ha":926,"x_min":0,"x_max":579,"o":"m 0 231 l 0 463 l 116 463 l 116 579 l 463 579 l 463 463 l 579 463 l 579 0 l 463 0 l 463 -116 l 116 -116 l 116 0 l 347 0 l 347 116 l 116 116 l 116 231 l 0 231 m 231 231 l 347 231 l 347 463 l 231 463 l 231 231 z "},"₊":{"ha":926,"x_min":0,"x_max":694,"o":"m 0 116 l 0 231 l 231 231 l 231 463 l 463 463 l 463 231 l 694 231 l 694 116 l 463 116 l 463 -116 l 231 -116 l 231 116 l 0 116 z "},"₋":{"ha":926,"x_min":116,"x_max":694,"o":"m 116 116 l 116 231 l 694 231 l 694 116 l 116 116 z "},"₣":{"ha":926,"x_min":0,"x_max":810,"o":"m 0 116 l 0 231 l 116 231 l 116 926 l 0 926 l 0 1042 l 810 1042 l 810 694 l 694 694 l 694 810 l 579 810 l 579 926 l 347 926 l 347 579 l 463 579 l 463 694 l 579 694 l 579 347 l 463 347 l 463 463 l 347 463 l 347 231 l 463 231 l 463 116 l 347 116 l 347 -116 l 116 -116 l 116 116 l 0 116 z "},"₤":{"ha":926,"x_min":0,"x_max":810,"o":"m 0 231 l 116 231 l 116 347 l 0 347 l 0 463 l 116 463 l 116 579 l 0 579 l 0 694 l 116 694 l 116 1042 l 231 1042 l 231 1157 l 579 1157 l 579 1042 l 694 1042 l 694 810 l 579 810 l 579 926 l 463 926 l 463 1042 l 347 1042 l 347 694 l 463 694 l 463 579 l 347 579 l 347 463 l 463 463 l 463 347 l 347 347 l 347 116 l 579 116 l 579 231 l 810 231 l 810 116 l 694 116 l 694 0 l 0 0 l 0 231 z "},"₧":{"ha":926,"x_min":0,"x_max":810,"o":"m 0 0 l 0 1157 l 579 1157 l 579 1042 l 694 1042 l 694 810 l 579 810 l 579 694 l 231 694 l 231 0 l 0 0 m 231 810 l 463 810 l 463 1042 l 231 1042 l 231 810 m 463 116 l 463 347 l 347 347 l 347 463 l 463 463 l 463 579 l 579 579 l 579 694 l 694 694 l 694 463 l 810 463 l 810 347 l 694 347 l 694 116 l 810 116 l 810 0 l 579 0 l 579 116 l 463 116 z "},"₪":{"ha":926,"x_min":0,"x_max":810,"o":"m 0 116 l 0 810 l 579 810 l 579 347 l 463 347 l 463 694 l 116 694 l 116 116 l 0 116 m 231 116 l 231 579 l 347 579 l 347 231 l 694 231 l 694 810 l 810 810 l 810 116 l 231 116 z "},"€":{"ha":926,"x_min":0,"x_max":926,"o":"m 0 579 l 0 694 l 116 694 l 116 810 l 231 810 l 231 926 l 347 926 l 347 1042 l 810 1042 l 810 926 l 926 926 l 926 810 l 694 810 l 694 926 l 463 926 l 463 810 l 347 810 l 347 694 l 810 694 l 810 579 l 347 579 l 347 463 l 694 463 l 694 347 l 347 347 l 347 231 l 463 231 l 463 116 l 694 116 l 694 231 l 926 231 l 926 116 l 810 116 l 810 0 l 347 0 l 347 116 l 231 116 l 231 231 l 116 231 l 116 347 l 0 347 l 0 463 l 116 463 l 116 579 l 0 579 z "},"℅":{"ha":926,"x_min":0,"x_max":926,"o":"m 0 694 l 0 1042 l 116 1042 l 116 1157 l 347 1157 l 347 1042 l 231 1042 l 231 694 l 347 694 l 347 579 l 116 579 l 116 694 l 0 694 m 463 231 l 463 347 l 810 347 l 810 231 l 926 231 l 926 -116 l 810 -116 l 810 -231 l 463 -231 l 463 -116 l 347 -116 l 347 231 l 463 231 m 463 579 l 463 694 l 579 694 l 579 810 l 694 810 l 694 926 l 926 926 l 926 810 l 810 810 l 810 694 l 694 694 l 694 579 l 579 579 l 579 463 l 463 463 l 463 347 l 347 347 l 347 231 l 231 231 l 231 116 l 116 116 l 116 347 l 231 347 l 231 463 l 347 463 l 347 579 l 463 579 m 463 810 l 463 694 l 347 694 l 347 810 l 463 810 m 463 1042 l 463 926 l 347 926 l 347 1042 l 463 1042 m 694 231 l 579 231 l 579 -116 l 694 -116 l 694 231 z "},"ℓ":{"ha":926,"x_min":116,"x_max":810,"o":"m 231 231 l 231 116 l 116 116 l 116 231 l 231 231 m 231 463 l 116 463 l 116 810 l 231 810 l 231 926 l 347 926 l 347 1042 l 463 1042 l 463 926 l 579 926 l 579 810 l 694 810 l 694 463 l 579 463 l 579 347 l 463 347 l 463 231 l 579 231 l 579 116 l 694 116 l 694 0 l 463 0 l 463 116 l 347 116 l 347 231 l 231 231 l 231 463 m 463 463 l 463 810 l 347 810 l 347 463 l 463 463 m 694 116 l 694 231 l 810 231 l 810 116 l 694 116 z "},"№":{"ha":926,"x_min":0,"x_max":926,"o":"m 0 0 l 0 1042 l 231 1042 l 231 810 l 347 810 l 347 694 l 463 694 l 463 1042 l 926 1042 l 926 579 l 694 579 l 694 463 l 926 463 l 926 347 l 694 347 l 694 0 l 463 0 l 463 463 l 347 463 l 347 579 l 231 579 l 231 0 l 0 0 m 694 694 l 810 694 l 810 926 l 694 926 l 694 694 z "},"™":{"ha":926,"x_min":0,"x_max":926,"o":"m 926 579 l 810 579 l 810 926 l 694 926 l 694 1042 l 810 1042 l 810 1157 l 926 1157 l 926 579 m 0 1042 l 0 1157 l 463 1157 l 463 1042 l 579 1042 l 579 926 l 463 926 l 463 579 l 347 579 l 347 1042 l 231 1042 l 231 579 l 116 579 l 116 1042 l 0 1042 m 579 810 l 579 926 l 694 926 l 694 810 l 579 810 z "},"Ω":{"ha":926,"x_min":0,"x_max":810,"o":"m 0 0 l 0 116 l 116 116 l 116 463 l 0 463 l 0 810 l 116 810 l 116 926 l 231 926 l 231 1042 l 579 1042 l 579 926 l 694 926 l 694 810 l 810 810 l 810 463 l 694 463 l 694 116 l 810 116 l 810 0 l 463 0 l 463 463 l 579 463 l 579 810 l 463 810 l 463 926 l 347 926 l 347 810 l 231 810 l 231 463 l 347 463 l 347 0 l 0 0 z "},"℮":{"ha":926,"x_min":0,"x_max":810,"o":"m 0 116 l 0 579 l 116 579 l 116 694 l 694 694 l 694 579 l 810 579 l 810 347 l 231 347 l 231 116 l 579 116 l 579 231 l 810 231 l 810 116 l 694 116 l 694 0 l 116 0 l 116 116 l 0 116 m 231 579 l 231 463 l 579 463 l 579 579 l 231 579 z "},"⅐":{"ha":926,"x_min":0,"x_max":810,"o":"m 0 116 l 0 347 l 116 347 l 116 463 l 231 463 l 231 579 l 347 579 l 347 694 l 463 694 l 463 810 l 579 810 l 579 926 l 810 926 l 810 810 l 694 810 l 694 694 l 579 694 l 579 579 l 463 579 l 463 463 l 347 463 l 347 347 l 231 347 l 231 231 l 116 231 l 116 116 l 0 116 m 0 579 l 0 926 l 116 926 l 116 1042 l 231 1042 l 231 579 l 0 579 m 463 0 l 463 116 l 579 116 l 579 231 l 347 231 l 347 347 l 810 347 l 810 116 l 694 116 l 694 0 l 579 0 l 579 -231 l 347 -231 l 347 0 l 463 0 z "},"⅑":{"ha":926,"x_min":0,"x_max":810,"o":"m 0 116 l 0 347 l 116 347 l 116 463 l 231 463 l 231 579 l 347 579 l 347 694 l 463 694 l 463 810 l 579 810 l 579 926 l 810 926 l 810 810 l 694 810 l 694 694 l 579 694 l 579 579 l 463 579 l 463 463 l 347 463 l 347 347 l 231 347 l 231 231 l 116 231 l 116 116 l 0 116 m 0 579 l 0 926 l 116 926 l 116 1042 l 231 1042 l 231 579 l 0 579 m 463 231 l 463 116 l 579 116 l 579 231 l 463 231 m 347 231 l 347 347 l 694 347 l 694 231 l 810 231 l 810 -116 l 694 -116 l 694 -231 l 347 -231 l 347 -116 l 579 -116 l 579 0 l 347 0 l 347 116 l 231 116 l 231 231 l 347 231 z "},"⅓":{"ha":926,"x_min":0,"x_max":810,"o":"m 0 116 l 0 347 l 116 347 l 116 463 l 231 463 l 231 579 l 347 579 l 347 694 l 463 694 l 463 810 l 579 810 l 579 926 l 810 926 l 810 810 l 694 810 l 694 694 l 579 694 l 579 579 l 463 579 l 463 463 l 347 463 l 347 347 l 231 347 l 231 231 l 116 231 l 116 116 l 0 116 m 0 579 l 0 926 l 116 926 l 116 1042 l 231 1042 l 231 579 l 0 579 m 347 231 l 347 347 l 694 347 l 694 231 l 810 231 l 810 116 l 694 116 l 694 0 l 810 0 l 810 -116 l 694 -116 l 694 -231 l 347 -231 l 347 -116 l 579 -116 l 579 0 l 347 0 l 347 116 l 579 116 l 579 231 l 347 231 z "}}}
